<svg height="26" viewBox="0 0 26 26" width="26" xmlns="http://www.w3.org/2000/svg"><g fill="none" fill-rule="evenodd"><path d="m17.1802834 10.0170481.0000095.0001257c2.206103-.21688733 4.148759 1.6457199 4.3390434 4.1602497.001376.0181829.0026564.036375.0038411.0545754.089824 1.3797981.1347369 2.5097092.1347369 3.3897335 0 .8783237-.0447395 1.9393368-.1342185 3.1830395l-.0000819-.0000077c-.1711857 2.3721234-1.9111194 4.1972949-3.999311 4.1952358h-8.7547575c-2.11854684-.0003452-3.87122483-1.8792976-4.00120778-4.289481-.07366736-1.3773422-.11042335-2.681549-.11042335-3.9126094 0-.7844875.01492594-1.5689488.0447778-2.3533838l-.00018856-.0000092c.09468293-2.5215578 1.96483697-4.47819766 4.17710596-4.3702775.04857688.0023697.09711192.0057464.14558103.0101284l-.00001269.0001823c1.13832249.1035699 2.34030659.1553548 3.60595229.1553548" stroke="#000" stroke-linecap="round" stroke-linejoin="round" stroke-width="1.75"/><g fill="#000"><path d="m13 0c2.4852814 0 4.5 2.01471863 4.5 4.5s-2.0147186 4.5-4.5 4.5-4.5-2.01471863-4.5-4.5 2.0147186-4.5 4.5-4.5zm0 2c-1.3807119 0-2.5 1.11928813-2.5 2.5s1.1192881 2.5 2.5 2.5 2.5-1.11928813 2.5-2.5-1.1192881-2.5-2.5-2.5z" fill-rule="nonzero"/><circle cx="15" cy="14" r="1"/><circle cx="15" cy="18" r="1"/></g></g></svg>