<?xml version="1.0" encoding="UTF-8"?>
<svg width="26px" height="26px" viewBox="0 0 26 26" version="1.1" xmlns="http://www.w3.org/2000/svg" xmlns:xlink="http://www.w3.org/1999/xlink">
    <title>app-icons/no-alert</title>
    <g id="app-icons/no-alert" stroke="none" stroke-width="1" fill="none" fill-rule="evenodd">
        <path d="M13,0 C18.105149,0 22.2295269,4.13616813 22.2295269,9.22212642 L22.2295269,10.0600291 C22.2295269,10.895153 22.4758006,11.7107803 22.9361531,12.4033358 L24.2990659,14.4535843 C25.8751623,16.8243021 24.6719166,20.0470737 21.9031068,20.8043222 C20.9121134,21.0753751 19.9118651,21.3003435 18.9055086,21.4792273 C19.0100332,21.6964708 19.0327781,21.9629331 18.948693,22.2138733 C18.6169645,23.2038706 18.0563394,24.087113 17.3240441,24.7853277 C16.9864961,25.1071664 16.4796222,25.0619749 16.1919096,24.6843898 C15.904197,24.3068046 15.9445966,23.7398095 16.2821446,23.4179709 C16.7767821,22.9463535 17.1598025,22.3619266 17.399285,21.7124123 C14.5489856,22.0865712 11.6653894,22.0956553 8.81599647,21.7396086 L8.90224835,21.9131399 C9.67149292,23.3626041 11.3509156,24.3334086 13.2507082,24.3334086 C13.4974768,24.3334086 13.7412775,24.3172588 13.9806841,24.2853418 C14.4688758,24.2202573 14.9211703,24.5368255 14.9909119,24.9924166 C15.0606536,25.4480077 14.7214328,25.8700986 14.233241,25.9351831 C13.9101289,25.9782595 13.5819301,26 13.2507082,26 C10.455051,26 7.98467675,24.4358741 7.05703313,22.1259566 C6.96878076,21.9062001 6.98639449,21.6736154 7.08608693,21.4770142 C6.08370864,21.2993534 5.08567171,21.0747798 4.09684616,20.8043245 C1.32812934,20.0470627 0.124873319,16.8243057 1.70086516,14.4536045 L3.06383731,12.4033407 C3.5241825,11.710827 3.77042991,10.8952168 3.77042991,10.0600291 L3.77042991,9.22212642 C3.77042991,8.72954814 4.18369963,8.33023454 4.69349368,8.33023454 C5.20328772,8.33023454 5.61655745,8.72954814 5.61655745,9.22212642 L5.61655745,10.0600291 C5.61655745,11.2360189 5.2692413,12.3863848 4.61714439,13.3673575 L3.25416078,15.4176385 C2.34024366,16.7924072 3.03783377,18.6608071 4.59966934,19.0879792 C10.0996759,20.5922949 15.9003642,20.5922949 21.4002915,19.0879747 C22.9622036,18.6608036 23.6597731,16.7924344 22.7457756,15.4176262 L21.3828278,13.3673251 C20.7307461,12.3863319 20.3833994,11.2359631 20.3833994,10.0600291 L20.3833994,9.22212642 C20.3833994,5.10678009 17.0698753,1.78378377 13,1.78378377 C11.8944638,1.78378377 10.8249109,2.0281835 9.84819684,2.49350917 C9.39096287,2.71134435 8.83753931,2.52979054 8.61209072,2.08799738 C8.38664213,1.64620422 8.5745413,1.11146978 9.03177526,0.893634594 C10.2606558,0.308171895 11.6092913,0 13,0 Z M3.53780895,1.2475707 C7.47213451,4.94423755 10.3872549,7.74047667 12.2856899,9.63891169 L12.3428534,9.69611086 C14.2350894,11.5907028 16.705625,14.1802097 19.7561696,17.4661959 C20.0991504,17.835648 20.0776911,18.4131889 19.7082391,18.7561696 C19.338787,19.0991504 18.7612461,19.0776911 18.4182654,18.7082391 C15.4904131,15.5544146 13.1021542,13.0481021 11.2550209,11.1907036 L10.9948261,10.9297755 C9.11261376,9.04756321 6.20941635,6.26276081 2.28775372,2.57799197 C1.92036803,2.23279875 1.90237748,1.65513941 2.2475707,1.28775372 C2.59276392,0.920368031 3.17042326,0.902377478 3.53780895,1.2475707 Z" id="Combined-Shape" fill="#000000" fill-rule="nonzero"></path>
    </g>
</svg>