<?xml version="1.0" encoding="UTF-8"?>
<svg width="26px" height="26px" viewBox="0 0 26 26" version="1.1" xmlns="http://www.w3.org/2000/svg" xmlns:xlink="http://www.w3.org/1999/xlink">
    <title>app-icons/phone@2x</title>
    <g id="app-icons/phone" stroke="none" stroke-width="1" fill="none" fill-rule="evenodd">
        <path d="M18.1326858,0.138715141 L18.38419,0.168728476 C18.4260483,0.1740498 18.4679447,0.179533845 18.5099805,0.185185363 C20.0550768,0.392916329 21.1352705,0.837324913 21.9803193,1.68242419 C22.8254503,2.52754084 23.2698655,3.60773223 23.4776003,5.15280633 L23.4940576,5.27859635 L23.5240718,5.53009949 C23.6319324,6.49866206 23.6587412,7.5543519 23.6623402,9.93070714 L23.6627907,10.5813954 C23.6627907,11.0823048 23.2567234,11.4883721 22.7558139,11.4883721 C22.2549045,11.4883721 21.8488372,11.0823048 21.8488372,10.5813954 L21.8484034,9.95053433 C21.844501,7.34616631 21.8124479,6.38094525 21.679823,5.39451693 C21.520703,4.21102663 21.2250839,3.49249741 20.6976468,2.96506931 C20.1702996,2.43769063 19.4517787,2.14207989 18.2682776,1.98296371 C17.2272085,1.84299683 16.2097582,1.81504762 13.2641636,1.81398564 L12.8986261,1.81398564 C9.95301682,1.81504761 8.93557656,1.84299662 7.89451389,1.9829636 C6.71102079,2.14207981 5.99248896,2.43769249 5.46509121,2.96508574 C4.93769249,3.49248896 4.64207981,4.21102079 4.4829636,5.39451389 C4.34299662,6.43557656 4.31504761,7.45301682 4.31398564,10.3986261 L4.31398564,15.6013729 C4.31504762,18.5469675 4.34299683,19.5644178 4.48296371,20.6054869 C4.64207989,21.788988 4.93769063,22.5075089 5.46509395,23.0348807 C5.99249742,23.5622932 6.71102663,23.8579124 7.89451694,24.0170323 L8.12253352,24.0458857 C9.00094796,24.1498996 9.96271301,24.179571 12.1572102,24.1850334 L12.7584071,24.1859422 C12.8635191,24.1860131 12.9711504,24.1860465 13.0813954,24.1860465 L13.173388,24.1860386 C16.1889951,24.1855111 17.2165837,24.1584307 18.2682746,24.0170322 C19.4517728,23.8579123 20.1702911,23.562295 20.6976933,23.0348479 C21.2250857,22.5075004 21.520703,21.7889821 21.6798228,20.6054839 C21.8124477,19.6190494 21.844501,18.653819 21.8484034,16.0494626 L21.8488372,15.4186046 C21.8488372,14.9176952 22.2549045,14.5116279 22.7558139,14.5116279 C23.2567234,14.5116279 23.6627907,14.9176952 23.6627907,15.4186046 L23.6623402,16.0692896 C23.6587411,18.4456339 23.6319323,19.5013299 23.5240718,20.4698977 L23.4940577,20.7214022 C23.4887362,20.7632606 23.483252,20.805157 23.4776004,20.8471928 C23.2698637,22.3922919 22.8254427,23.4724882 21.9803521,24.3175067 C21.135279,25.162652 20.0550826,25.607073 18.5099835,25.8148097 L18.3841929,25.831267 L18.1326884,25.8612812 C17.0798973,25.9785208 15.9241665,26 13.0813954,26 L12.9865104,26 C9.87611025,25.999448 8.81803484,25.9714742 7.65280633,25.8148096 C6.10773222,25.6070748 5.02754084,25.1626596 4.18244882,24.3175532 C3.33732491,23.4724798 2.89291633,22.392286 2.68518536,20.8471898 L2.66872848,20.7213993 L2.63871514,20.4698951 C2.53085759,19.5013283 2.50404944,18.4456327 2.50045042,16.0692893 L2.50045042,9.93070739 C2.50404941,7.55435306 2.53085743,6.49866367 2.63871517,5.53010211 L2.66872855,5.27859924 C2.67404989,5.23674114 2.67953394,5.19484498 2.68518547,5.15280937 C2.89291451,3.60773807 3.33731724,2.5275493 4.1824324,1.68242692 C5.0275493,0.837317242 6.10773807,0.392914514 7.65280937,0.185185473 L7.77859924,0.168728553 L8.03010211,0.138715166 C8.99866367,0.0308574339 10.0543531,0.00404941237 12.4307074,0.000450418402 L13.7320801,0.000450421335 C16.1084234,0.00404943676 17.164119,0.0308575854 18.1326858,0.138715141 Z M13.0813954,15.7209302 C14.9180632,15.7209302 16.4069768,17.2098437 16.4069768,19.0465116 C16.4069768,20.8831795 14.9180632,22.372093 13.0813954,22.372093 C11.2447275,22.372093 9.75581396,20.8831795 9.75581396,19.0465116 C9.75581396,17.2098437 11.2447275,15.7209302 13.0813954,15.7209302 Z M13.0813954,17.5348837 C12.2465463,17.5348837 11.5697674,18.2116626 11.5697674,19.0465116 C11.5697674,19.8813607 12.2465463,20.5581395 13.0813954,20.5581395 C13.9162444,20.5581395 14.5930233,19.8813607 14.5930233,19.0465116 C14.5930233,18.2116626 13.9162444,17.5348837 13.0813954,17.5348837 Z M16.7093023,3.62790698 C17.2102118,3.62790698 17.6162791,4.03397429 17.6162791,4.53488372 C17.6162791,5.03579314 17.2102118,5.44186046 16.7093023,5.44186046 L9.45348838,5.44186046 C8.95257896,5.44186046 8.54651164,5.03579314 8.54651164,4.53488372 C8.54651164,4.03397429 8.95257896,3.62790698 9.45348838,3.62790698 L16.7093023,3.62790698 Z" id="Combined-Shape" fill="#000000" fill-rule="nonzero"></path>
    </g>
</svg>