<?xml version="1.0" encoding="UTF-8"?>
<svg width="26px" height="26px" viewBox="0 0 26 26" version="1.1" xmlns="http://www.w3.org/2000/svg" xmlns:xlink="http://www.w3.org/1999/xlink">
    <title>app-icons/playbook</title>
    <g id="app-icons/playbook" stroke="none" stroke-width="1" fill="none" fill-rule="evenodd">
        <path d="M16.4711177,0.000483692631 C18.2684201,0.00386947742 19.0352356,0.0266016949 19.7839068,0.11703052 L19.8370212,0.123562339 C19.8812802,0.129101296 19.9255595,0.134881024 19.9700685,0.140911522 C21.1648015,0.302785274 22.0135711,0.654686191 22.6819489,1.32822981 C23.350332,2.00177888 23.6995363,2.85712992 23.8601691,4.06113435 C23.9798542,4.95821957 24,5.762717 24,8.1627907 C24,8.66370012 23.5970563,9.06976744 23.1,9.06976744 C22.6029437,9.06976744 22.2,8.66370012 22.2,8.1627907 C22.2,5.85977882 22.1806044,5.08523909 22.0762209,4.30284495 C21.9638291,3.46042576 21.762277,2.96673824 21.4091711,2.61090322 C21.0560601,2.255063 20.5661617,2.05195051 19.7302215,1.93868941 C18.9693761,1.83560286 18.2160196,1.81476957 16.0353086,1.81397747 L10.96469,1.81397747 C8.78395612,1.81476957 8.0305929,1.83560286 7.26974347,1.93868948 C6.43380195,2.05195024 5.94390972,2.25506111 5.5908121,2.61089592 C5.23771448,2.96673073 5.03616601,3.46042057 4.92377649,4.30284225 L4.89785549,4.51285454 C4.82588516,5.14884859 4.80479654,5.86778963 4.80077761,7.46165306 L4.80012258,17.8345522 C5.21743373,17.53303 5.68609485,17.303166 6.19052867,17.1613131 C6.48472188,17.0785999 6.79537596,17.0366778 7.20419084,17.0171149 C7.22029688,17.0163442 7.23629182,17.0156072 7.25225722,17.0149025 L7.27140676,17.0140722 C7.2777887,17.0138006 7.28417113,17.0135341 7.29055928,17.0132725 L7.31936218,17.0121288 C7.33219629,17.0116352 7.34508459,17.011161 7.35806888,17.0107055 L7.3776225,17.0100361 C7.54452891,17.0044641 7.7304322,17.0018704 8.02191064,17.0007542 L22.2,17 L22.2,13 C22.2,12.4990906 22.6029437,12.0930233 23.1,12.0930233 C23.5970563,12.0930233 24,12.4990906 24,13 L24,17.9087338 C23.9995871,20.2533579 23.9786573,21.0507207 23.8601691,21.9388314 C23.6995365,23.1428284 23.3503336,23.99818 22.6819561,24.6717387 C22.0135786,25.3452974 21.1648067,25.6972073 19.9700712,25.8590851 C19.0798903,25.979698 18.2815876,26 15.9,26 C15.4029437,26 15,25.5939327 15,25.0930233 C15,24.5921138 15.4029437,24.1860465 15.9,24.1860465 L16.0353085,24.1860225 C18.1270099,24.1852627 18.9054982,24.166064 19.6369941,24.0735242 L19.6836337,24.0675172 C19.6991671,24.0654814 19.7146914,24.0634118 19.7302188,24.0613079 C20.5661565,23.9480446 21.0560527,23.7449284 21.4091639,23.3890799 C21.7622751,23.0332314 21.9638289,22.5395376 22.0762209,21.6971197 C22.1627101,21.0488537 22.1908525,20.4059819 22.1979596,18.8945892 L8.48479041,18.8941811 C7.25104017,18.8947932 6.94233107,18.9108943 6.65759795,18.9909477 C5.81993444,19.226509 5.14664662,19.8666324 4.83596816,20.703239 C4.85428306,21.0627902 4.87916085,21.3471727 4.9146098,21.626687 L4.92067041,21.6736515 L4.92377641,21.6971224 C5.03616627,22.5395428 5.23771636,23.0332389 5.59081935,23.3890872 C5.94391718,23.7449303 6.4338071,23.9480449 7.26974615,24.0613079 C8.03059435,24.1643967 8.78395721,24.1852304 10.9646901,24.1860225 L11.1,24.1860465 C11.5970563,24.1860465 12,24.5921138 12,25.0930233 C12,25.5939327 11.5970563,26 11.1,26 C8.71838841,26 7.92007942,25.979698 7.02989485,25.8590852 C5.835152,25.6972071 4.98638058,25.3452958 4.31801265,24.6717314 C3.64965014,23.9981725 3.30045616,23.1428232 3.13982759,21.9388287 C3.13384348,21.8939747 3.12810821,21.8493522 3.12261186,21.8047501 L3.11613029,21.7512239 C3.0724003,21.3835432 3.04462416,21.0115198 3.02724893,20.5170785 L3,20.5097233 L3.02418134,20.4251147 C3.00820183,19.9199103 3.00210243,19.2874202 3.00047997,18.4127542 L3.00050918,7.57176933 C3.00425618,5.62210545 3.03055251,4.88021371 3.13982751,4.06113705 C3.30045634,2.85713512 3.64965176,2.0017864 4.3180199,1.32823711 C4.98638804,0.654687816 5.83515715,0.302785455 7.02989753,0.140911449 L7.28550488,0.108844698 C8.01093947,0.0254621578 8.78250759,0.00389169833 10.513525,0.00051313205 L16.4711177,0.000483692631 Z M14.0769231,10 C14.5867244,10 15,10.4477153 15,11 C15,11.5522847 14.5867244,12 14.0769231,12 L7.92307692,12 C7.41327562,12 7,11.5522847 7,11 C7,10.4477153 7.41327562,10 7.92307692,10 L14.0769231,10 Z M18.1315789,6 C18.6111947,6 19,6.44771525 19,7 C19,7.55228475 18.6111947,8 18.1315789,8 L8.86842105,8 C8.38880535,8 8,7.55228475 8,7 C8,6.44771525 8.38880535,6 8.86842105,6 L18.1315789,6 Z" id="Combined-Shape" fill="#000000" fill-rule="nonzero"></path>
    </g>
</svg>