<?xml version="1.0" encoding="UTF-8"?>
<svg width="26px" height="26px" viewBox="0 0 26 26" version="1.1" xmlns="http://www.w3.org/2000/svg" xmlns:xlink="http://www.w3.org/1999/xlink">
    <title>app-icons/plus@2x</title>
    <g id="app-icons/plus" stroke="none" stroke-width="1" fill="none" fill-rule="evenodd">
        <path d="M13,0.5 C14.1045695,0.5 15,1.3954305 15,2.5 L15,10.5 L23.5,10.5 C24.6045695,10.5 25.5,11.3954305 25.5,12.5 C25.5,13.6045695 24.6045695,14.5 23.5,14.5 L15,14.5 L15,23.5 C15,24.6045695 14.1045695,25.5 13,25.5 C11.8954305,25.5 11,24.6045695 11,23.5 L11,14.5 L2.5,14.5 C1.3954305,14.5 0.5,13.6045695 0.5,12.5 C0.5,11.3954305 1.3954305,10.5 2.5,10.5 L11,10.5 L11,2.5 C11,1.3954305 11.8954305,0.5 13,0.5 Z" id="Combined-Shape" fill="#000000" fill-rule="nonzero"></path>
    </g>
</svg>