<svg width="16" height="17" viewBox="0 0 16 17" fill="none" xmlns="http://www.w3.org/2000/svg">
<path d="M13.4169 4.75H12.75V3C12.75 2.80109 12.671 2.61032 12.5303 2.46967C12.3897 2.32902 12.1989 2.25 12 2.25H4C3.80109 2.25 3.61032 2.32902 3.46967 2.46967C3.32902 2.61032 3.25 2.80109 3.25 3V4.75H2.58313C1.5725 4.75 0.75 5.535 0.75 6.5V11.5C0.75 11.6989 0.829018 11.8897 0.96967 12.0303C1.11032 12.171 1.30109 12.25 1.5 12.25H3.25V14C3.25 14.1989 3.32902 14.3897 3.46967 14.5303C3.61032 14.671 3.80109 14.75 4 14.75H12C12.1989 14.75 12.3897 14.671 12.5303 14.5303C12.671 14.3897 12.75 14.1989 12.75 14V12.25H14.5C14.6989 12.25 14.8897 12.171 15.0303 12.0303C15.171 11.8897 15.25 11.6989 15.25 11.5V6.5C15.25 5.535 14.4275 4.75 13.4169 4.75ZM4.75 3.75H11.25V4.75H4.75V3.75ZM11.25 13.25H4.75V11.25H11.25V13.25ZM13.75 10.75H12.75V10.5C12.75 10.3011 12.671 10.1103 12.5303 9.96967C12.3897 9.82902 12.1989 9.75 12 9.75H4C3.80109 9.75 3.61032 9.82902 3.46967 9.96967C3.32902 10.1103 3.25 10.3011 3.25 10.5V10.75H2.25V6.5C2.25 6.36438 2.4025 6.25 2.58313 6.25H13.4169C13.5975 6.25 13.75 6.36438 13.75 6.5V10.75ZM12.75 8C12.75 8.19778 12.6914 8.39112 12.5815 8.55557C12.4716 8.72002 12.3154 8.84819 12.1327 8.92388C11.95 8.99957 11.7489 9.01937 11.5549 8.98079C11.3609 8.9422 11.1827 8.84696 11.0429 8.70711C10.903 8.56725 10.8078 8.38907 10.7692 8.19509C10.7306 8.00111 10.7504 7.80004 10.8261 7.61732C10.9018 7.43459 11.03 7.27841 11.1944 7.16853C11.3589 7.05865 11.5522 7 11.75 7C12.0152 7 12.2696 7.10536 12.4571 7.29289C12.6446 7.48043 12.75 7.73478 12.75 8Z" fill="#11181C"/>
</svg>
