<?xml version="1.0" encoding="UTF-8"?>
<svg width="28px" height="29px" viewBox="0 0 28 29" version="1.1" xmlns="http://www.w3.org/2000/svg" xmlns:xlink="http://www.w3.org/1999/xlink">
    <title>app-icons/search@2x</title>
    <g id="app-icons/search" stroke="none" stroke-width="1" fill="none" fill-rule="evenodd" transform="translate(2, 2)">
        <g id="Group" transform="translate(-0.8748, -0.8748)">
            <path d="M10.374822,17.874822 C14.5169576,17.874822 17.874822,14.5169576 17.874822,10.374822 C17.874822,6.2326864 14.5169576,2.87482202 10.374822,2.87482202 C6.2326864,2.87482202 2.87482202,6.2326864 2.87482202,10.374822 C2.87482202,13.4415989 4.71550454,16.0784614 7.35235743,17.2408973" id="Oval" stroke="#000000" stroke-width="1.5" stroke-linecap="round" transform="translate(10.3748, 10.3748) rotate(-57) translate(-10.3748, -10.3748)"></path>
            <path d="M10.374822,15.874822 C11.9787748,15.874822 13.4223663,15.188234 14.4277284,14.0929261 C14.8721977,13.6086918 12.7250705,13.2805176 10.5737006,13.376432 C8.37560125,13.4744296 6.17338512,14.0072344 6.75606982,14.5167388 C7.7232052,15.3624101 8.9891735,15.874822 10.374822,15.874822 Z" id="Oval" fill="#000000"></path>
            <path d="M20.7540839,15.6037234 C21.0544501,15.6034232 21.3336844,15.7099767 21.5518637,15.890373 C21.7700443,16.0707705 21.9271693,16.3250117 21.9833107,16.6200632 C22.2479777,18.0112555 22.4459716,19.3408423 22.5770097,20.6088642 C22.6802346,21.6077445 22.7458441,22.6066158 22.7736638,23.5984529 L22.7877791,24.3531178 C22.7899856,24.6553927 22.6838696,24.9367958 22.5029372,25.1566189 C22.3220047,25.376442 22.066256,25.5346852 21.7701706,25.5904574 C21.3528383,25.6684968 20.9417957,25.7083572 20.5367961,25.7083572 C20.2177657,25.7083572 19.8987629,25.683612 19.5798304,25.6342172 C19.1548383,25.5466397 18.8191193,25.3900792 18.586608,25.1662087 C18.3799209,24.9672027 18.2670061,24.716038 18.2466495,24.4409865 C18.1567314,23.2239626 18.168765,21.9368509 18.2817113,20.5796525 C18.3937181,19.2337426 18.598192,17.901097 18.8954932,16.5800616 C18.9589259,16.2952037 19.1169027,16.0514608 19.3319657,15.8787769 C19.5472364,15.7059261 19.8196839,15.6042624 20.1104036,15.6037238 Z" id="Rectangle" stroke="#000000" stroke-width="1.5" transform="translate(20.4883, 20.656) rotate(-45) translate(-20.4883, -20.656)"></path>
        </g>
    </g>
</svg>