<svg width="16" height="17" viewBox="0 0 16 17" fill="none" xmlns="http://www.w3.org/2000/svg">
<path d="M14.25 9.99961V13.4996C14.25 13.8311 14.1183 14.1491 13.8839 14.3835C13.6495 14.6179 13.3315 14.7496 13 14.7496H3C2.66848 14.7496 2.35054 14.6179 2.11612 14.3835C1.8817 14.1491 1.75 13.8311 1.75 13.4996V9.99961C1.75 9.8007 1.82902 9.60994 1.96967 9.46929C2.11032 9.32863 2.30109 9.24961 2.5 9.24961C2.69891 9.24961 2.88968 9.32863 3.03033 9.46929C3.17098 9.60994 3.25 9.8007 3.25 9.99961V13.2496H12.75V9.99961C12.75 9.8007 12.829 9.60994 12.9697 9.46929C13.1103 9.32863 13.3011 9.24961 13.5 9.24961C13.6989 9.24961 13.8897 9.32863 14.0303 9.46929C14.171 9.60994 14.25 9.8007 14.25 9.99961ZM6.03062 6.03024L7.25 4.81211V9.99961C7.25 10.1985 7.32902 10.3893 7.46967 10.5299C7.61032 10.6706 7.80109 10.7496 8 10.7496C8.19891 10.7496 8.38968 10.6706 8.53033 10.5299C8.67098 10.3893 8.75 10.1985 8.75 9.99961V4.81211L9.96937 6.03211C10.1103 6.17301 10.3014 6.25217 10.5006 6.25217C10.6999 6.25217 10.891 6.17301 11.0319 6.03211C11.1728 5.89122 11.2519 5.70012 11.2519 5.50086C11.2519 5.30161 11.1728 5.11051 11.0319 4.96961L8.53187 2.46961C8.4622 2.39969 8.3794 2.34422 8.28824 2.30636C8.19707 2.26851 8.09934 2.24902 8.00062 2.24902C7.90191 2.24902 7.80417 2.26851 7.71301 2.30636C7.62185 2.34422 7.53905 2.39969 7.46938 2.46961L4.96938 4.96961C4.89961 5.03938 4.84427 5.1222 4.80651 5.21335C4.76876 5.30451 4.74932 5.4022 4.74932 5.50086C4.74932 5.70012 4.82848 5.89122 4.96938 6.03211C5.11027 6.17301 5.30137 6.25217 5.50063 6.25217C5.69988 6.25217 5.89098 6.17301 6.03188 6.03211L6.03062 6.03024Z" fill="#11181C"/>
</svg>
