<svg width="41" height="40" viewBox="0 0 41 40" fill="none" xmlns="http://www.w3.org/2000/svg">
<circle cx="20.333" cy="20" r="20" fill="#E8FAF0"/>
<path d="M30.0643 24.625C30.1634 24.797 30.1903 25.0011 30.1392 25.1928C30.088 25.3845 29.963 25.5481 29.7915 25.6479L20.7915 30.8979C20.6768 30.9647 20.5464 31 20.4137 31C20.2809 31 20.1506 30.9647 20.0359 30.8979L11.0359 25.6479C10.8668 25.5463 10.7446 25.3822 10.6957 25.1912C10.6467 25.0001 10.675 24.7975 10.7743 24.6272C10.8737 24.4568 11.0361 24.3324 11.2265 24.281C11.4169 24.2295 11.6199 24.2551 11.7915 24.3522L20.4165 29.3819L29.0415 24.3522C29.2134 24.2532 29.4176 24.2263 29.6093 24.2774C29.801 24.3285 29.9646 24.4535 30.0643 24.625ZM29.0415 19.8522L20.4165 24.8819L11.7915 19.8522C11.6207 19.7672 11.424 19.7505 11.2413 19.8054C11.0586 19.8603 10.9037 19.9828 10.8081 20.1479C10.7126 20.313 10.6835 20.5083 10.7269 20.6941C10.7702 20.8798 10.8827 21.0421 11.0415 21.1479L20.0415 26.3979C20.1562 26.4647 20.2866 26.5 20.4193 26.5C20.5521 26.5 20.6824 26.4647 20.7971 26.3979L29.7971 21.1479C29.8836 21.099 29.9594 21.0334 30.0203 20.9549C30.0812 20.8764 30.1259 20.7867 30.1518 20.6908C30.1777 20.5949 30.1844 20.4948 30.1713 20.3964C30.1582 20.2979 30.1257 20.203 30.0757 20.1172C30.0256 20.0315 29.9591 19.9565 29.8798 19.8966C29.8006 19.8367 29.7102 19.7932 29.614 19.7686C29.5178 19.7439 29.4176 19.7386 29.3194 19.753C29.2211 19.7673 29.1266 19.8011 29.0415 19.8522ZM10.6665 16C10.6668 15.8687 10.7016 15.7397 10.7674 15.626C10.8332 15.5123 10.9277 15.4179 11.0415 15.3522L20.0415 10.1022C20.1562 10.0354 20.2866 10.0001 20.4193 10.0001C20.5521 10.0001 20.6824 10.0354 20.7971 10.1022L29.7971 15.3522C29.9103 15.4183 30.0043 15.5129 30.0696 15.6265C30.1348 15.7402 30.1692 15.869 30.1692 16C30.1692 16.1311 30.1348 16.2599 30.0696 16.3736C30.0043 16.4872 29.9103 16.5818 29.7971 16.6479L20.7971 21.8979C20.6824 21.9647 20.5521 22 20.4193 22C20.2866 22 20.1562 21.9647 20.0415 21.8979L11.0415 16.6479C10.9277 16.5822 10.8332 16.4878 10.7674 16.3741C10.7016 16.2604 10.6668 16.1314 10.6665 16ZM12.9053 16L20.4165 20.3819L27.9278 16L20.4165 11.6182L12.9053 16Z" fill="#17C964"/>
</svg>
