<?xml version="1.0" encoding="UTF-8"?>
<svg width="20px" height="20px" viewBox="0 0 26 26" version="1.1" xmlns="http://www.w3.org/2000/svg" xmlns:xlink="http://www.w3.org/1999/xlink">
    <title>app-icons/bot@2x</title>
    <g id="app-icons/bot" stroke="none" stroke-width="1" fill="none" fill-rule="evenodd">
        <path d="M11.6858513,24.3526241 L10.9053676,24.8145787 L11.6858513,24.3526241 Z M11.0302886,23.2450216 L11.8108932,22.783067 L11.0302886,23.2450216 Z M14.9697117,23.2450216 L15.7502075,23.707097 L15.7502075,23.707097 L14.9697117,23.2450216 Z M14.3141489,24.3526241 L13.5336652,23.8906696 L14.3141489,24.3526241 Z M25.9999997,11.1860728 C25.9999997,11.686967 25.5939281,12.0930516 25.093023,12.0930516 C24.5921179,12.0930516 24.1860463,11.686967 24.1860463,11.1860728 L25.9999997,11.1860728 Z M23.7948249,17.3854545 C23.9865114,16.9226535 24.5170686,16.7029227 24.9798444,16.8945976 C25.4426202,17.0862725 25.6623867,17.6167946 25.4707002,18.0795957 L23.7948249,17.3854545 Z M18.0916707,21.4548872 L18.1072949,22.3616242 L18.0916707,21.4548872 Z M21.3604148,21.0049048 L21.7074966,21.8428323 L21.7074966,21.8428323 L21.3604148,21.0049048 Z M1.36723769,17.7325251 L0.529312129,18.0795957 L0.529312129,18.0795957 L1.36723769,17.7325251 Z M7.90835377,21.4548872 L7.92395377,20.5480293 L7.90835377,21.4548872 Z M4.63960968,21.0049048 L4.29253992,21.8428323 L4.29253992,21.8428323 L4.63960968,21.0049048 Z M3.79418645,1.79799534 L4.26811202,2.57132178 L3.79418645,1.79799534 Z M1.79799116,3.79420739 L1.02464235,3.3203049 L1.02464235,3.3203049 L1.79799116,3.79420739 Z M22.2058017,1.79799534 L22.6797031,1.02466891 L22.6797031,1.02466891 L22.2058017,1.79799534 Z M24.2020091,3.79420739 L24.9753337,3.3203049 L24.9753337,3.3203049 L24.2020091,3.79420739 Z M16.1408121,21.7188785 L15.6848205,20.934886 L15.6848205,20.934886 L16.1408121,21.7188785 Z M10.9053676,24.8145787 L10.2498049,23.707097 L11.8108932,22.783067 L12.466456,23.8906696 L10.9053676,24.8145787 Z M15.7502075,23.707097 L15.0946326,24.8145787 L13.5336652,23.8906696 L14.189228,22.783067 L15.7502075,23.707097 Z M12.466456,23.8906696 C12.6994885,24.2844193 13.3005118,24.2844193 13.5336652,23.8906696 L15.0946326,24.8145787 C14.1591164,26.3951404 11.8408839,26.3951404 10.9053676,24.8145787 L12.466456,23.8906696 Z M14.8139536,1.81395817 L11.1860467,1.81395817 L11.1860467,4.98088166e-07 L14.8139536,4.98088166e-07 L14.8139536,1.81395817 Z M1.81395395,11.1860728 L1.81395395,12.3953779 L5.16603466e-07,12.3953779 L5.16603466e-07,11.1860728 L1.81395395,11.1860728 Z M18.0760465,20.5480293 C19.594253,20.5217874 20.3897683,20.4252848 21.0133329,20.1669772 L21.7074966,21.8428323 C20.7340446,22.2460146 19.6253078,22.3355032 18.1072949,22.3616242 L18.0760465,20.5480293 Z M25.4707002,18.0795957 C24.7649635,19.7833857 23.4112947,21.1370818 21.7074966,21.8428323 L21.0133208,20.1669772 C22.272652,19.645283 23.2731924,18.6448249 23.7948249,17.3854545 L25.4707002,18.0795957 Z M1.81395395,12.3953779 C1.81395395,13.8164324 1.81443767,14.836844 1.86934,15.6419994 C1.9237586,16.4390524 2.02848418,16.9588117 2.20516324,17.3854545 L0.529312129,18.0795957 C0.245730742,17.395129 0.120326094,16.6549133 0.0596191195,15.7654694 C-0.000483204312,14.8842488 4.55180311e-07,13.7916416 4.55180311e-07,12.3953779 L1.81395395,12.3953779 Z M7.89275377,22.3616242 C6.37471661,22.3355032 5.26590734,22.2460146 4.29253992,21.8428323 L4.98667944,20.1669772 C5.6101957,20.4252848 6.40579568,20.5217874 7.92395377,20.5480293 L7.89275377,22.3616242 Z M2.20516324,17.3854545 C2.72685625,18.6448249 3.72731203,19.645283 4.98667944,20.1669772 L4.29253992,21.8428323 C2.58875393,21.1370818 1.23506095,19.7833857 0.529312129,18.0795957 L2.20516324,17.3854545 Z M11.1860467,1.81395817 C9.18924676,1.81395817 7.7552561,1.81491352 6.63677241,1.92125981 C5.53171198,2.02632424 4.82862363,2.22781866 4.26811202,2.57132178 L3.32026088,1.02466891 C4.21381435,0.477156017 5.22733059,0.233142431 6.46505149,0.115452857 C7.68934913,-0.000954852953 9.22431652,3.71996901e-07 11.1860467,3.71996901e-07 L11.1860467,1.81395817 Z M2.58199377e-07,11.1860728 C2.58199377e-07,9.22435015 -0.000966925228,7.68936707 0.115488885,6.46507867 C0.233153998,5.22729441 0.4771912,4.21376371 1.02464235,3.3203049 L2.57133998,4.26809778 C2.22777719,4.82864698 2.02630743,5.53177326 1.92121906,6.63677581 C1.81492139,7.7552742 1.81395395,9.18921983 1.81395395,11.1860728 L2.58199377e-07,11.1860728 Z M4.26811202,2.57132178 C3.57651204,2.99511066 2.9950795,3.57654456 2.57133998,4.26809778 L1.02464235,3.3203049 C1.59797256,2.38467763 2.3846237,1.59802465 3.32026088,1.02466891 L4.26811202,2.57132178 Z M14.8139536,2.48947725e-07 C16.7756716,2.48947725e-07 18.3106511,-0.000954852952 19.5349367,0.115452857 C20.772718,0.233142431 21.7862464,0.477156017 22.6797031,1.02466891 L21.7319124,2.57132178 C21.1713645,2.22781866 20.4682399,2.02632424 19.3632399,1.92125981 C18.2447442,1.81491352 16.8108019,1.81395817 14.8139536,1.81395817 L14.8139536,2.48947725e-07 Z M24.1860463,11.1860728 C24.1860463,9.18921983 24.185091,7.7552742 24.0787449,6.63677581 C23.9736807,5.53177326 23.7721868,4.82864698 23.4286845,4.26809778 L24.9753337,3.3203049 C25.5228453,4.21376371 25.7668584,5.22729441 25.8845477,6.46507867 C26.0009551,7.68936707 25.9999999,9.22435015 25.9999999,11.1860728 L24.1860463,11.1860728 Z M22.6797031,1.02466891 C23.6153282,1.59802465 24.4019793,2.38467763 24.9753337,3.3203049 L23.4286845,4.26809778 C23.0048966,3.57654456 22.423464,2.99511066 21.7319124,2.57132178 L22.6797031,1.02466891 Z M14.189228,22.783067 C14.4347164,22.3682753 14.650214,22.0022187 14.8597861,21.7146459 C15.0806047,21.4118359 15.3337117,21.1391376 15.6848205,20.934886 L16.5968037,22.5029919 C16.5394707,22.5362478 16.4613619,22.5970759 16.3257628,22.783067 C16.1789898,22.9845372 16.0131582,23.2627983 15.7502075,23.707097 L14.189228,22.783067 Z M18.1072949,22.3616242 C17.5763023,22.3708149 17.2399712,22.377587 16.983587,22.4058847 C16.7440121,22.4324894 16.6511498,22.4713081 16.5968037,22.5029919 L15.6848205,20.934886 C16.0388559,20.7289413 16.4072577,20.6446528 16.7839433,20.6029317 C17.1438075,20.5631456 17.5787209,20.5566154 18.0760465,20.5480293 L18.1072949,22.3616242 Z M10.2498049,23.707097 C9.98690255,23.2627983 9.8211072,22.9845372 9.6742979,22.783067 C9.53873512,22.5970759 9.46061419,22.5362478 9.40329326,22.5029919 L10.3152281,20.934886 C10.6662886,21.1391376 10.9195165,21.4118359 11.1402141,21.7146459 C11.3497862,22.0022187 11.5652839,22.3682753 11.8108932,22.783067 L10.2498049,23.707097 Z M7.92395377,20.5480293 C8.4213398,20.5566154 8.85620491,20.5631456 9.21609327,20.6029317 C9.59279093,20.6446528 9.96114441,20.7289413 10.3152281,20.934886 L9.40329326,22.5029919 C9.34887466,22.4713081 9.25600024,22.4324894 9.01643746,22.4058847 C8.76006537,22.377587 8.42375841,22.3708149 7.89275377,22.3616242 L7.92395377,20.5480293 Z" id="Combined-Shape" fill="#000000" fill-rule="nonzero"></path>
        <path d="M18.1658841,14.828534 C18.5367245,14.6440069 18.9869389,14.7950437 19.171466,15.1658841 C19.3559931,15.5367245 19.2049563,15.9869389 18.8341159,16.171466 C16.3252194,17.4198721 14.397035,18.0514078 13.0000001,18.0514078 C11.6370543,18.0514078 9.66747445,17.5644831 7.05171922,16.5986538 C6.66314752,16.4551794 6.46445691,16.0238708 6.60793132,15.6352991 C6.75140573,15.2467274 7.18271433,15.0480368 7.57128603,15.1915112 C10.0338648,16.1007823 11.8566166,16.5514078 13.0000001,16.5514078 C14.1092946,16.5514078 15.8477768,15.982005 18.1658841,14.828534 Z" id="Line-6" fill="#000000" fill-rule="nonzero"></path>
        <circle id="Oval" fill="#000000" cx="11.5" cy="9.5" r="2.5"></circle>
        <circle id="Oval-Copy" fill="#000000" cx="18.5" cy="9.5" r="2.5"></circle>
    </g>
</svg>