<?xml version="1.0" encoding="UTF-8"?>
<svg width="83px" height="103px" viewBox="0 0 83 103" version="1.1" xmlns="http://www.w3.org/2000/svg" xmlns:xlink="http://www.w3.org/1999/xlink">
    <title>signature-placement-icon/bottom-active</title>
    <g id="signature-placement-icon/bottom-active" stroke="none" stroke-width="1" fill="none" fill-rule="evenodd">
        <path d="M8.24,0 C3.6892025,0 0,3.6892025 0,8.24 L0,94.76 C0,99.311055 3.6892025,103 8.24,103 L75.1898455,103 C79.7409005,103 83.4298455,99.311055 83.4298455,94.76 L83.4241805,25.75 L57.6741805,0 L8.24,0 Z" id="Path" stroke="#000000" fill="#E6E8ED"></path>
        <rect id="Rectangle" stroke="#000000" fill="#FFFFFF" x="19" y="93" width="20" height="7" rx="2"></rect>
        <path d="M42,33 C52.4934102,33 61,41.5065898 61,52 C61,53.977729 60.6973439,55.9161931 60.1092717,57.764986 C59.4341374,59.8874863 58.3896361,61.869169 57.0296009,63.6251084 C56.5929129,64.1889156 55.7818513,64.291966 55.2180442,63.8552781 C54.654237,63.4185901 54.5511865,62.6075285 54.9878745,62.0437213 C56.1632217,60.5262324 57.0653766,58.8146167 57.6482484,56.9821729 C58.1560381,55.385774 58.4174757,53.7113076 58.4174757,52 C58.4174757,42.9328785 51.0671215,35.5825243 42,35.5825243 C32.9328785,35.5825243 25.5825243,42.9328785 25.5825243,52 C25.5825243,61.0671215 32.9328785,68.4174757 42,68.4174757 C44.7725489,68.4174757 47.4428576,67.7304913 49.8241112,66.4370335 C50.4507748,66.0966401 51.2347294,66.328708 51.5751227,66.9553716 C51.9155161,67.5820352 51.6834482,68.3659898 51.0567846,68.7063831 C48.2994915,70.2040994 45.2058258,71 42,71 C31.5065898,71 23,62.4934102 23,52 C23,41.5065898 31.5065898,33 42,33 Z M54.1232629,47.5537285 C54.5591679,48.125182 54.4521315,48.9439928 53.8841904,49.3825936 C51.0266612,51.5893624 48.8916145,53.3433294 47.4867484,54.6362772 C46.6826074,55.3763564 45.4463793,56.582955 43.7851127,58.2495611 L43.0471391,58.9919657 C42.5378356,59.5056526 41.9939173,60.0568151 41.4155485,60.6453015 C41.356642,60.7042907 41.356642,60.7042907 41.2962303,60.7617182 C39.5758212,62.3759652 36.8805917,62.2812786 35.2759027,60.5498369 L29.9565944,54.8056229 C29.4685371,54.2785797 29.4975154,53.4532313 30.0213191,52.9621557 C30.5451229,52.4710801 31.3653983,52.5002376 31.8534555,53.0272808 L37.1723999,58.7711019 C37.8001793,59.4484689 38.8548343,59.4855202 39.5280379,58.8538583 L39.5454772,58.8372404 L39.57339,58.809663 C40.1573106,58.2155272 40.7066025,57.6589228 41.2212806,57.1398408 L41.9673393,56.3893585 C43.6475772,54.7038925 44.9038862,53.4780226 45.7368999,52.7113707 C47.2070319,51.3583566 49.3940455,49.561698 52.3056388,47.3131774 C52.8735799,46.8745766 53.6873579,46.9822749 54.1232629,47.5537285 Z" id="Combined-Shape" fill="#80AB88" fill-rule="nonzero"></path>
        <rect id="Rectangle-Copy-3" stroke="#000000" fill="#FFFFFF" x="43" y="93" width="20" height="7" rx="2"></rect>
    </g>
</svg>