<?xml version="1.0" encoding="UTF-8"?>
<svg width="26px" height="26px" viewBox="0 0 26 26" version="1.1" xmlns="http://www.w3.org/2000/svg" xmlns:xlink="http://www.w3.org/1999/xlink">
    <title>app-icons/download@2x</title>
    <g id="app-icons/download" stroke="none" stroke-width="1" fill="none" fill-rule="evenodd">
        <path d="M13,14 C13.5522847,14 14,14.4477153 14,15 L14,25 C14,25.5522847 13.5522847,26 13,26 C12.4477153,26 12,25.5522847 12,25 L12,15 C12,14.4477153 12.4477153,14 13,14 Z M13,0 C15.971147,0 18.9422189,0.166602478 21.9125358,0.499722938 C24.2393389,0.759197052 25.9996485,2.73295065 26,5.08269593 L26,15.3691083 C26.0005022,17.9162195 23.9435378,19.9815205 21.405579,19.9820248 C21.2216385,19.9820613 21.0371458,19.9710145 20.8512284,19.9489221 C20.3581845,19.889314 20.0633483,19.854924 19.995805,19.8488506 C19.5227782,19.8063172 19.1736737,19.387027 19.2160584,18.9123398 C19.2584431,18.4376526 19.6762667,18.0873227 20.1492935,18.1298562 C20.2432625,18.1383057 20.5361162,18.1724644 21.055196,18.2352221 C21.1725741,18.2491689 21.289442,18.2561665 21.4052384,18.2561435 C22.9932978,18.255828 24.2804699,16.9634392 24.2801556,15.3692791 L24.2801556,5.08282545 C24.2799357,3.61245036 23.1784412,2.37739562 21.7220532,2.21498593 C18.8145296,1.88890789 15.9072273,1.72588128 13,1.72588128 C10.0927728,1.72588128 7.1854704,1.88890789 4.27741309,2.21504562 C2.82155887,2.37739562 1.72006434,3.61245037 1.71984435,5.08269593 L1.71984435,15.3866697 C1.71984435,15.4984481 1.7262493,15.6098736 1.73903492,15.7203935 C1.92220486,17.3037299 3.34951012,18.4382151 4.92708979,18.2544234 C5.93815042,18.1367506 6.54282645,18.0703232 6.76550884,18.0528624 C7.23898756,18.0157363 7.65280924,18.3708173 7.68980545,18.845958 C7.72680165,19.3210987 7.37296267,19.736373 6.89948395,19.7734991 C6.70805921,19.7885089 6.10850972,19.8543732 5.12532459,19.9688016 C2.60428786,20.2625084 0.323362709,18.4495284 0.0306642185,15.9194181 C0.0102247545,15.7427377 0,15.5648598 0,15.3866697 L0,5.08256637 C0.000351550616,2.73295061 1.76066116,0.759197048 4.08693053,0.499782623 C7.05778115,0.166602479 10.028853,0 13,0 Z M12.999994,11 C15.0100386,11 17.2240474,12.4143217 19.7373036,15.1572731 C20.1104059,15.5644746 20.0827631,16.1970359 19.6755616,16.5701383 C19.2683601,16.9432406 18.6357988,16.9155978 18.2626964,16.5083963 C16.0934561,14.1409015 14.307465,13 12.999994,13 C11.692535,13 9.90654389,14.1409015 7.73730355,16.5083963 C7.36420118,16.9155978 6.73163991,16.9432406 6.3244384,16.5701383 C5.91723689,16.1970359 5.88959408,15.5644746 6.26269645,15.1572731 C8.77595257,12.4143217 10.9899614,11 12.999994,11 Z" id="Combined-Shape" fill="#555B65" fill-rule="nonzero" transform="translate(13, 13) scale(1, -1) translate(-13, -13)"></path>
    </g>
</svg>