<svg width="32" height="32" viewBox="0 0 32 32" fill="none" xmlns="http://www.w3.org/2000/svg">
<path d="M23.5 10.4998C22.9813 10.5006 22.4691 10.6158 22 10.8373V6.49985C21.9967 5.5726 21.6269 4.68428 20.9712 4.02861C20.3156 3.37295 19.4272 3.00314 18.5 2.99985C17.9148 2.99821 17.3386 3.1444 16.825 3.42485C16.5656 2.63555 16.0339 1.96427 15.325 1.53106C14.616 1.09784 13.7761 0.930942 12.9554 1.06021C12.1347 1.18948 11.3867 1.60648 10.8453 2.23665C10.3038 2.86681 10.0042 3.66903 10 4.49985V5.33735C9.4665 5.08429 8.87766 4.97032 8.28827 5.00604C7.69888 5.04176 7.12811 5.22601 6.62908 5.54165C6.13005 5.85728 5.71899 6.29404 5.43415 6.81127C5.14931 7.32849 4.99996 7.90938 5 8.49985V18.9998C5 21.9172 6.15893 24.7151 8.22183 26.778C10.2847 28.8409 13.0826 29.9998 16 29.9998C18.9174 29.9998 21.7153 28.8409 23.7782 26.778C25.8411 24.7151 27 21.9172 27 18.9998V13.9998C26.9967 13.0726 26.6269 12.1843 25.9712 11.5286C25.3156 10.8729 24.4272 10.5031 23.5 10.4998V10.4998ZM25 18.9998C25 21.3868 24.0518 23.676 22.364 25.3638C20.6761 27.0516 18.3869 27.9998 16 27.9998C13.6131 27.9998 11.3239 27.0516 9.63604 25.3638C7.94821 23.676 7 21.3868 7 18.9998V8.49985C7 8.10202 7.15804 7.72049 7.43934 7.43919C7.72064 7.15788 8.10218 6.99985 8.5 6.99985C8.89782 6.99985 9.27936 7.15788 9.56066 7.43919C9.84196 7.72049 10 8.10202 10 8.49985V13.9998C10 14.2651 10.1054 14.5194 10.2929 14.707C10.4804 14.8945 10.7348 14.9998 11 14.9998C11.2652 14.9998 11.5196 14.8945 11.7071 14.707C11.8946 14.5194 12 14.2651 12 13.9998V4.49985C12 4.10202 12.158 3.72049 12.4393 3.43919C12.7206 3.15788 13.1022 2.99985 13.5 2.99985C13.8978 2.99985 14.2794 3.15788 14.5607 3.43919C14.842 3.72049 15 4.10202 15 4.49985V12.9998C15 13.2651 15.1054 13.5194 15.2929 13.707C15.4804 13.8945 15.7348 13.9998 16 13.9998C16.2652 13.9998 16.5196 13.8945 16.7071 13.707C16.8946 13.5194 17 13.2651 17 12.9998V6.49985C17 6.10202 17.158 5.72049 17.4393 5.43919C17.7206 5.15788 18.1022 4.99985 18.5 4.99985C18.8978 4.99985 19.2794 5.15788 19.5607 5.43919C19.842 5.72049 20 6.10202 20 6.49985V15.5873C18.6025 15.8236 17.3338 16.5469 16.4186 17.6291C15.5034 18.7113 15.0008 20.0825 15 21.4998C15 21.7651 15.1054 22.0194 15.2929 22.207C15.4804 22.3945 15.7348 22.4998 16 22.4998C16.2652 22.4998 16.5196 22.3945 16.7071 22.207C16.8946 22.0194 17 21.7651 17 21.4998C17.0033 20.44 17.4258 19.4245 18.1752 18.6751C18.9246 17.9256 19.9401 17.5031 21 17.4998C21.2652 17.4998 21.5196 17.3945 21.7071 17.207C21.8946 17.0194 22 16.7651 22 16.4998V13.9998C22 13.602 22.158 13.2205 22.4393 12.9392C22.7206 12.6579 23.1022 12.4998 23.5 12.4998C23.8978 12.4998 24.2794 12.6579 24.5607 12.9392C24.842 13.2205 25 13.602 25 13.9998V18.9998Z" fill="black"/>
</svg>
