<svg width="18" height="24" viewBox="0 0 18 24" fill="none" xmlns="http://www.w3.org/2000/svg">
<path d="M16 8C15.31 8 14.75 8.56 14.75 9.25V15H14.25C12.6 15 11.25 16.35 11.25 18H10.25C10.25 15.96 11.78 14.28 13.75 14.03V3.25C13.75 2.56 13.19 2 12.5 2C11.81 2 11.25 2.56 11.25 3.25V11H10.25V1.25C10.25 0.56 9.69 0 9 0C8.31 0 7.75 0.56 7.75 1.25V11H6.75V2.75C6.75 2.06 6.19 1.5 5.5 1.5C4.81 1.5 4.25 2.06 4.25 2.75V12H3.25V5.75C3.25 5.06 2.69 4.5 2 4.5C1.31 4.5 0.75 5.06 0.75 5.75V15.75C0.75 20.31 4.44 24 9 24C13.56 24 17.25 20.31 17.25 15.75V9.25C17.25 8.56 16.69 8 16 8Z" fill="black"/>
</svg>
