<?xml version="1.0" encoding="UTF-8"?>
<svg width="26px" height="26px" viewBox="0 0 26 26" version="1.1" xmlns="http://www.w3.org/2000/svg" xmlns:xlink="http://www.w3.org/1999/xlink">
    <title>app-icons/help@2x</title>
    <g id="app-icons/help" stroke="none" stroke-width="1" fill="none" fill-rule="evenodd">
        <path d="M13,0 C13.0205692,0 13.0410129,0 13.0613325,0 L13.2992994,0 C14.8859137,0.00042797109 15.6753399,0.00428996244 16.4314673,0.0197181656 L16.4867454,0.0208678177 C16.5327794,0.0218432583 16.5787588,0.0228624366 16.624857,0.0239271884 L16.6802427,0.0252268833 C16.7172193,0.0261080866 16.7543162,0.027018927 16.791622,0.0279603441 C17.9988058,0.0584238051 18.9413713,0.120003467 19.7555081,0.229461259 C21.6416719,0.483049258 22.946705,1.01996223 23.9633096,2.03661629 C24.6563928,2.72965731 25.1290666,3.56610515 25.4363875,4.61143789 C25.709376,5.53999137 25.858808,6.64394228 25.9322435,8.11765882 C25.957173,8.61794793 25.5718182,9.04372174 25.0715295,9.06865124 C24.5712408,9.09358073 24.1454674,8.70822562 24.1205379,8.2079365 C23.9891604,5.57143049 23.5961874,4.23475709 22.6806553,3.31928063 C21.9817386,2.62032997 21.0383753,2.23221414 19.5138035,2.0272409 C18.7749401,1.92790335 17.8930457,1.87028745 16.7458612,1.84133808 C16.72763,1.84087802 16.7094459,1.8404254 16.691298,1.83998012 L16.6369518,1.83866617 C15.8140149,1.81906821 15.0433465,1.81442062 13.2968862,1.81398966 L12.7031112,1.81398966 C10.879868,1.81443957 10.1200992,1.81948493 9.25411783,1.84133808 C8.10693439,1.87028741 7.22504375,1.92790324 6.48618345,2.02724083 C4.96162117,2.23221373 4.01825385,2.62032987 3.31929094,3.31929815 C2.62032763,4.01825727 2.23221183,4.9616254 2.0272391,6.48618899 C1.92790159,7.22504992 1.87028581,8.10694131 1.84133651,9.25412573 C1.81948337,10.1201079 1.81443802,10.8798773 1.81398812,12.7031221 L1.81398812,13.2968976 C1.81441908,15.0433594 1.81906666,15.8140284 1.8386646,16.636966 L1.83997855,16.6913122 C1.84042383,16.7094602 1.84087645,16.7276443 1.84133651,16.7458755 C1.87028586,17.893061 1.9279017,18.7749561 2.02723917,19.5138201 C2.23221224,21.0383932 2.62032773,21.9817574 3.31930189,22.6806987 C4.01826061,23.3796771 4.96162585,23.7678003 6.48618588,23.9727771 C7.22504544,24.0721167 8.10693547,24.1297336 9.2541183,24.1586835 C10.1292151,24.1807672 10.8958515,24.185687 12.7610422,24.1860452 L13.2389557,24.1860452 C15.1041305,24.185687 15.8707648,24.1807672 16.7458607,24.1586835 C17.8930446,24.1297336 18.7749384,24.0721166 19.5138011,23.9727771 C21.0383706,23.7677999 21.9817318,23.379677 22.6806925,22.680668 C23.3796571,21.9817506 23.7677797,21.0383886 23.9727566,19.5138177 C24.072096,18.7749544 24.129713,17.8930599 24.1586629,16.745875 C24.1807465,15.8707783 24.1856663,15.1041434 24.1860246,13.238967 L24.1860465,13.0000111 C24.1860465,12.4991012 24.5921138,12.0930336 25.0930233,12.0930336 C25.5939327,12.0930336 26,12.4991012 26,13.0000111 L26,13.2409068 C25.9996645,14.8666673 25.9958981,15.6661324 25.9802814,16.4314817 L25.9791318,16.4867599 C25.9789367,16.4959667 25.9787398,16.5051713 25.9785412,16.5143751 L25.9773283,16.5695996 L25.9760723,16.6248716 L25.9747726,16.6802574 C25.9738914,16.717234 25.9729805,16.7543309 25.9720391,16.7916367 C25.941575,17.9988222 25.8799941,18.9413892 25.7705341,19.7555274 C25.5169408,21.6416951 24.9800164,22.9467314 23.9633513,23.963328 C22.9467118,24.9800377 21.6416766,25.5169626 19.7555106,25.7705561 C18.941373,25.8800162 17.9988069,25.9415972 16.7916224,25.9720613 C16.7543166,25.9730027 16.7172198,25.9739136 16.6802432,25.9747948 L16.6248574,25.9760945 L16.5695855,25.9773505 L16.514361,25.9785634 C16.5051572,25.978762 16.4959526,25.9789588 16.4867458,25.9791539 L16.4314677,25.9803036 C15.6661191,25.9959203 14.8666547,25.9996867 13.2408955,26 L12.7591024,26 C11.1333295,25.9996867 10.3338616,25.9959203 9.56851176,25.9803036 L9.51323361,25.9791539 C9.5040268,25.9789588 9.49482216,25.978762 9.48561833,25.9785634 L9.43039378,25.9773505 L9.37512183,25.9760945 L9.31973599,25.9747948 C9.28275935,25.9739136 9.24566245,25.9730027 9.20835661,25.9720613 C8.00117291,25.9415972 7.05861016,25.8800163 6.24447528,25.770556 C4.35832886,25.516964 3.05329901,24.9800432 2.03664964,23.9633652 C1.01996136,22.9467246 0.483048846,21.6416904 0.229461063,19.755525 C0.120003365,18.9413875 0.0584237553,17.9988212 0.0279603203,16.7916363 C0.0270189039,16.7543305 0.0261080644,16.7172336 0.0252268617,16.6802569 L0.023927168,16.6248711 C0.0228624171,16.578773 0.0218432397,16.5327935 0.0208677999,16.4867595 L0.0197181488,16.4314814 C0.00428995878,15.6753533 0.000427970725,14.8859264 0,13.2993108 L0,13.0613436 L0,13.0000111 C0,12.9794417 0,12.9589978 0,12.938678 L0,12.7007089 C0.000427969851,11.1140798 0.00428995108,10.3246496 0.0197181455,9.56852031 L0.0208677969,9.51324213 C0.0230137651,9.4119671 0.0253714239,9.31095605 0.02796032,9.20836494 C0.0584237205,8.0011808 0.120003294,7.05861787 0.229461136,6.24448304 C0.483047447,4.35833725 1.01995591,3.05330838 2.03663213,2.03663824 C3.05330578,1.01995678 4.35833353,0.483047859 6.24447771,0.229461332 C7.05861185,0.120003396 8.00117398,0.0584237703 9.20835708,0.0279603438 C9.31094811,0.0253714455 9.41195907,0.0230137847 9.51323401,0.0208678147 L9.56851215,0.0197181623 C10.3246408,0.00428995474 11.1140704,0.000427970216 12.700698,0 L12.938667,0 L13,0 Z" id="Path" fill="#000000" fill-rule="nonzero" transform="translate(13, 13) rotate(90) translate(-13, -13)"></path>
        <g id="?" transform="translate(10, 5)" fill="#000000" fill-rule="nonzero">
            <path d="M2.37563452,11.9739244 C2.94416244,11.9739244 3.51269036,11.5567145 3.51269036,10.7848761 C3.51269036,10.7640156 3.51269036,10.7431551 3.51269036,10.7222947 C3.51269036,10.5554107 3.49238579,10.3885267 3.49238579,10.2633638 C3.49238579,9.44980443 3.6751269,9.34550196 4.7106599,8.90743155 C7.02538071,7.94784876 8,6.32073012 8,4.71447197 C8,2.33637549 5.84771574,0 2.76142132,0 C2.03045685,0 0,0.125162973 0,1.3559322 C0,1.89830508 0.426395939,2.41981747 1.01522843,2.41981747 C1.13705584,2.41981747 1.27918782,2.39895698 1.40101523,2.35723598 C1.88832487,2.16949153 2.33502538,2.10691004 2.76142132,2.10691004 C4.44670051,2.10691004 5.62436548,3.35853977 5.62436548,4.65189048 C5.62436548,5.54889179 5.07614213,6.44589309 3.75634518,6.96740548 C1.54314721,7.86440678 1.31979695,8.40677966 1.31979695,10.4302477 C1.31979695,10.9100391 1.34010152,11.9739244 2.37563452,11.9739244 Z M3.97969543,14.5189048 C3.97969543,13.6219035 3.20812183,13.1212516 2.53807107,13.1212516 C1.96954315,13.1212516 1.11675127,13.517601 1.11675127,14.5397653 C1.11675127,15.7496741 1.98984772,16 2.53807107,16 C3.55329949,16 3.97969543,15.0612777 3.97969543,14.5189048 Z" id="Shape"></path>
        </g>
    </g>
</svg>