<?xml version="1.0" encoding="UTF-8"?>
<svg width="26px" height="26px" viewBox="0 0 26 26" version="1.1" xmlns="http://www.w3.org/2000/svg" xmlns:xlink="http://www.w3.org/1999/xlink">
    <title>app-icons/prompt</title>
    <g id="app-icons/prompt" stroke="none" stroke-width="1" fill="none" fill-rule="evenodd">
        <path d="M19.5349367,0.115452857 C20.6601925,0.222443379 21.6001152,0.433833911 22.4329778,0.882738872 L22.6797031,1.02466891 C23.5217657,1.54068907 24.2431594,2.22948 24.7969928,3.04415027 L24.9753337,3.3203049 C25.5228453,4.21376371 25.7668584,5.22729441 25.8845477,6.46507867 C25.9830463,7.50101501 25.997516,8.75940138 25.9996369,10.3105408 L25.9999999,11.1860728 C25.9999997,11.686967 25.5939281,12.0930516 25.093023,12.0930516 C24.5921179,12.0930516 24.1860463,11.686967 24.1860463,11.1860728 C24.1860463,9.18921983 24.185091,7.7552742 24.0787449,6.63677581 C23.9736807,5.53177326 23.7721868,4.82864698 23.4286845,4.26809778 C23.0048966,3.57654456 22.423464,2.99511066 21.7319124,2.57132178 C21.1713645,2.22781866 20.4682399,2.02632424 19.3632399,1.92125981 C18.4684433,1.83618278 17.3717609,1.81855595 15.9464935,1.8149083 L15.2058911,1.81400185 C15.0776982,1.81396242 14.9470768,1.81395817 14.8139536,1.81395817 L11.1860467,1.81395817 L10.7941176,1.81400185 L10.0535254,1.8149083 C8.62827077,1.81855595 7.53155936,1.83618278 6.63677241,1.92125981 C5.53171198,2.02632424 4.82862363,2.22781866 4.26811202,2.57132178 C3.57651204,2.99511066 2.9950795,3.57654456 2.57133998,4.26809778 C2.22777719,4.82864698 2.02630743,5.53177326 1.92121906,6.63677581 C1.8220079,7.68070764 1.81455108,8.99942907 1.81399777,10.7941343 L1.81395395,12.3953779 C1.81395395,13.8164324 1.81443767,14.836844 1.86934,15.6419994 C1.91771209,16.3504909 2.0058329,16.8398863 2.14890547,17.2395389 L2.20516324,17.3854545 C2.69425044,18.5661142 3.60412523,19.5192144 4.75363585,20.0636027 L4.98667944,20.1669772 C5.57122593,20.4091406 6.30701788,20.5090925 7.64763221,20.5422632 L7.92395377,20.5480293 C8.4213398,20.5566154 8.85620491,20.5631456 9.21609327,20.6029317 C9.53000799,20.6376993 9.83812813,20.7020276 10.1370245,20.8416855 L10.3152281,20.934886 C10.6662886,21.1391376 10.9195165,21.4118359 11.1402141,21.7146459 C11.3078718,21.9447041 11.4793219,22.224992 11.6669475,22.5402782 L12.466456,23.8906696 C12.6994885,24.2844193 13.3005118,24.2844193 13.5336652,23.8906696 L14.189228,22.783067 C14.4347164,22.3682753 14.650214,22.0022187 14.8597861,21.7146459 C15.0806047,21.4118359 15.3337117,21.1391376 15.6848205,20.934886 C16.0388559,20.7289413 16.4072577,20.6446528 16.7839433,20.6029317 C17.1438075,20.5631456 17.5787209,20.5566154 18.0760465,20.5480293 C19.594253,20.5217874 20.3897683,20.4252848 21.0133329,20.1669772 C22.272652,19.645283 23.2731924,18.6448249 23.7948249,17.3854545 C23.9865114,16.9226535 24.5170686,16.7029227 24.9798444,16.8945976 C25.4426202,17.0862725 25.6623867,17.6167946 25.4707002,18.0795957 C24.7649635,19.7833857 23.4112947,21.1370818 21.7074966,21.8428323 C20.7340446,22.2460146 19.6253078,22.3355032 18.1072949,22.3616242 C17.5763023,22.3708149 17.2399712,22.377587 16.983587,22.4058847 C16.7440121,22.4324894 16.6511498,22.4713081 16.5968037,22.5029919 C16.5394707,22.5362478 16.4613619,22.5970759 16.3257628,22.783067 C16.1789898,22.9845372 16.0131582,23.2627983 15.7502075,23.707097 L15.0946326,24.8145787 C14.1591164,26.3951404 11.8408839,26.3951404 10.9053676,24.8145787 L10.2498049,23.707097 C9.98690255,23.2627983 9.8211072,22.9845372 9.6742979,22.783067 C9.53873512,22.5970759 9.46061419,22.5362478 9.40329326,22.5029919 C9.34887466,22.4713081 9.25600024,22.4324894 9.01643746,22.4058847 C8.76006537,22.377587 8.42375841,22.3708149 7.89275377,22.3616242 C6.37471661,22.3355032 5.26590734,22.2460146 4.29253992,21.8428323 C2.58875393,21.1370818 1.23506095,19.7833857 0.529312129,18.0795957 C0.245730742,17.395129 0.120326094,16.6549133 0.0596191195,15.7654694 C0.0115372604,15.0604929 0.00223043072,14.220229 0.000430973184,13.1974355 L0.000362680049,10.3105408 C0.00248190576,8.75940138 0.0169493533,7.50101501 0.115488885,6.46507867 C0.233153998,5.22729441 0.4771912,4.21376371 1.02464235,3.3203049 C1.59797256,2.38467763 2.3846237,1.59802465 3.32026088,1.02466891 C4.21381435,0.477156017 5.22733059,0.233142431 6.46505149,0.115452857 C7.50099564,0.0169540256 8.75937199,0.00248427758 10.3105127,0.000363380731 L15.6894835,0.000363265523 C17.2406193,0.00248418948 18.4990028,0.0169540256 19.5349367,0.115452857 Z M14.3199537,5.02998737 C14.8092554,5.15487413 15.0996278,5.6339467 14.9685185,6.10002589 L13.3859038,11.7260486 L11.8034056,17.3522084 C11.6723083,17.8182907 11.1693729,18.0948935 10.680068,17.9700182 C10.1907631,17.8451428 9.90037838,17.366077 10.0314757,16.8999948 L11.6139797,11.2738143 L13.1966002,5.64777093 C13.3277094,5.18169173 13.8306519,4.90510061 14.3199537,5.02998737 Z M18.3947965,7.26354756 L18.6427477,7.53664926 C19.5345991,8.51973551 19.8882675,8.92643472 20.1954951,9.35345889 L20.2161423,9.3822846 L20.2366822,9.41121252 C20.2537635,9.43537299 20.2707679,9.45968226 20.2877827,9.48424613 C20.7635885,10.1711552 21,10.7955754 21,11.500012 C21,11.7888326 20.9587473,12.0697805 20.8765668,12.3468794 C20.7283349,12.8466931 20.4566038,13.3168962 20.0254912,13.871693 L19.9971848,13.9079991 L19.978333,13.9320404 L19.9689027,13.9440242 L19.9500164,13.9679374 C19.6695157,14.3222324 19.3702836,14.6613731 18.6555078,15.4492564 L18.394847,15.7363968 C18.0757565,16.0878677 17.5584085,16.0878677 17.2393179,15.7363968 C16.9202274,15.3849259 16.9202274,14.8150789 17.2393179,14.463608 L17.4736939,14.2054363 C18.1524636,13.4574372 18.4453949,13.1265811 18.6919897,12.8180106 L18.7089269,12.7967604 C18.7229869,12.7790734 18.7369197,12.76143 18.7507896,12.7437553 L18.7757015,12.7118907 L18.7839897,12.7012373 C19.0880088,12.3099966 19.2530592,12.0243937 19.3231846,11.7879423 C19.3522641,11.6898911 19.3658351,11.5974671 19.3658351,11.500012 C19.3658351,11.2414411 19.2650248,10.9751767 18.9885818,10.5760827 C18.7115181,10.1760926 18.3939732,9.80820632 17.4263169,8.74233109 L17.2393684,8.53644764 C16.92025,8.18500744 16.9202048,7.61516048 17.2392674,7.26365883 C17.5583301,6.91215718 18.0756781,6.91210736 18.3947965,7.26354756 Z M8.76068013,7.26360319 C9.07977329,7.61507412 9.07977329,8.18492108 8.76068013,8.53639201 L8.57376282,8.74227546 C7.60614265,9.80807816 7.28849525,10.1760782 7.01142508,10.5760788 C6.73498688,10.9751671 6.63417829,11.2414323 6.63417829,11.500012 C6.63417829,11.7585888 6.73498479,12.0248453 7.01142029,12.4239218 C7.28848846,12.8239115 7.60612433,13.1918896 8.57381332,14.2577442 L8.76073064,14.4636636 C9.0797959,14.8151653 9.07975067,15.3850122 8.76062962,15.7364524 C8.44150856,16.0878926 7.92415633,16.0878428 7.60509107,15.7363412 L7.41823076,15.5304845 L7.35728962,15.4633377 C6.37532224,14.3809737 6.04571444,13.9972242 5.71221293,13.5157644 C5.23640941,12.8288701 5,12.2044505 5,11.500012 C5,10.795576 5.23640767,10.1711536 5.71220814,9.48425001 C6.04230668,9.00769335 6.36860236,8.62685022 7.32742721,7.56955061 L7.38754825,7.50328113 L7.41822426,7.46948664 L7.60514158,7.26360319 C7.92423474,6.91213227 8.44158697,6.91213227 8.76068013,7.26360319 Z" id="Combined-Shape" fill="#000000" fill-rule="nonzero"></path>
    </g>
</svg>