<?xml version="1.0" encoding="UTF-8"?>
<svg width="26px" height="26px" viewBox="0 0 26 26" version="1.1" xmlns="http://www.w3.org/2000/svg" xmlns:xlink="http://www.w3.org/1999/xlink">
    <title>app-icons/related@2x</title>
    <g id="app-icons/related" stroke="none" stroke-width="1" fill="none" fill-rule="evenodd">
        <path d="M13.1315789,4 C13.6111947,4 14,4.44771525 14,5 C14,5.55228475 13.6111947,6 13.1315789,6 L3.86842105,6 C3.38880535,6 3,5.55228475 3,5 C3,4.44771525 3.38880535,4 3.86842105,4 L13.1315789,4 Z" id="Path" fill="#000000" fill-rule="nonzero"></path>
        <path d="M13.1315789,8 C13.6111947,8 14,8.44771525 14,9 C14,9.55228475 13.6111947,10 13.1315789,10 L3.86842105,10 C3.38880535,10 3,9.55228475 3,9 C3,8.44771525 3.38880535,8 3.86842105,8 L13.1315789,8 Z" id="Path-Copy" fill="#000000" fill-rule="nonzero"></path>
        <path d="M13.1315789,12 C13.6111947,12 14,12.4477153 14,13 C14,13.5522847 13.6111947,14 13.1315789,14 L3.86842105,14 C3.38880535,14 3,13.5522847 3,13 C3,12.4477153 3.38880535,12 3.86842105,12 L13.1315789,12 Z" id="Path-Copy-2" fill="#000000" fill-rule="nonzero"></path>
        <path d="M13.1315789,16 C13.6111947,16 14,16.4477153 14,17 C14,17.5522847 13.6111947,18 13.1315789,18 L3.86842105,18 C3.38880535,18 3,17.5522847 3,17 C3,16.4477153 3.38880535,16 3.86842105,16 L13.1315789,16 Z" id="Path-Copy-3" fill="#000000" fill-rule="nonzero"></path>
        <path d="M13.1315789,20 C13.6111947,20 14,20.4477153 14,21 C14,21.5522847 13.6111947,22 13.1315789,22 L3.86842105,22 C3.38880535,22 3,21.5522847 3,21 C3,20.4477153 3.38880535,20 3.86842105,20 L13.1315789,20 Z" id="Path-Copy-4" fill="#000000" fill-rule="nonzero"></path>
        <g id="Group" transform="translate(16.9999, 3.9999)">
            <path d="M0.148418648,0.476146515 C0.437812574,0.00575348673 1.0537416,-0.140975277 1.52413462,0.148418648 C4.48359374,1.96912908 6.00014057,4.62308602 6.00014057,8.00014057 C6.00014057,11.3771951 4.48359374,14.0311521 1.52413462,15.8518625 C1.0537416,16.1412564 0.437812574,15.9945277 0.148418648,15.5241346 C-0.140975277,15.0537416 0.00575348673,14.4378126 0.476146515,14.1484186 C2.85002073,12.6879702 4.00014057,10.6752605 4.00014057,8.00014057 C4.00014057,5.32502068 2.85002073,3.31231096 0.476146515,1.85186249 C0.00575348673,1.56246857 -0.140975277,0.946539543 0.148418648,0.476146515 Z" id="Line-11" fill="#000000" fill-rule="nonzero"></path>
            <polyline id="Path-5" stroke="#000000" stroke-width="2" stroke-linecap="round" stroke-linejoin="round" points="1.00014057 11.0001406 1.00014057 15.2822681 5.00014057 16.0001406"></polyline>
        </g>
    </g>
</svg>