<svg width="41" height="40" viewBox="0 0 41 40" fill="none" xmlns="http://www.w3.org/2000/svg">
<circle cx="20.333" cy="20" r="20" fill="#DFF0F2"/>
<path d="M30.3809 28.3497L25.6869 23.6566C27.0474 22.0232 27.7258 19.9281 27.581 17.8073C27.4362 15.6864 26.4794 13.703 24.9094 12.2697C23.3395 10.8364 21.2775 10.0635 19.1522 10.1118C17.027 10.1601 15.0022 11.0258 13.499 12.529C11.9958 14.0322 11.13 16.057 11.0817 18.1823C11.0334 20.3075 11.8063 22.3696 13.2397 23.9395C14.673 25.5094 16.6564 26.4663 18.7773 26.6111C20.8981 26.7559 22.9932 26.0774 24.6266 24.7169L29.3197 29.411C29.3894 29.4807 29.4721 29.5359 29.5631 29.5736C29.6542 29.6113 29.7518 29.6308 29.8503 29.6308C29.9489 29.6308 30.0464 29.6113 30.1375 29.5736C30.2285 29.5359 30.3113 29.4807 30.3809 29.411C30.4506 29.3413 30.5059 29.2586 30.5436 29.1675C30.5813 29.0765 30.6007 28.9789 30.6007 28.8803C30.6007 28.7818 30.5813 28.6842 30.5436 28.5932C30.5059 28.5021 30.4506 28.4194 30.3809 28.3497ZM12.6003 18.3803C12.6003 17.0453 12.9962 15.7403 13.7379 14.6302C14.4796 13.5202 15.5338 12.655 16.7672 12.1442C18.0006 11.6333 19.3578 11.4996 20.6672 11.76C21.9765 12.0205 23.1793 12.6634 24.1233 13.6074C25.0673 14.5514 25.7102 15.7541 25.9706 17.0635C26.2311 18.3729 26.0974 19.7301 25.5865 20.9635C25.0756 22.1969 24.2104 23.2511 23.1004 23.9928C21.9904 24.7345 20.6853 25.1303 19.3503 25.1303C17.5607 25.1284 15.845 24.4166 14.5795 23.1511C13.3141 21.8857 12.6023 20.1699 12.6003 18.3803Z" fill="#009D9C"/>
</svg>
