<svg width="120" height="120" viewBox="0 0 120 120" fill="none" xmlns="http://www.w3.org/2000/svg">
<path d="M105.872 48.1969C104.105 46.35 102.277 44.4469 101.588 42.7734C100.95 41.2406 100.912 38.7 100.875 36.2391C100.805 31.6641 100.73 26.4797 97.125 22.875C93.5203 19.2703 88.3359 19.1953 83.7609 19.125C81.3 19.0875 78.7594 19.05 77.2266 18.4125C75.5578 17.7234 73.65 15.8953 71.8031 14.1281C68.5687 11.0203 64.8937 7.5 60 7.5C55.1063 7.5 51.4359 11.0203 48.1969 14.1281C46.35 15.8953 44.4469 17.7234 42.7734 18.4125C41.25 19.05 38.7 19.0875 36.2391 19.125C31.6641 19.1953 26.4797 19.2703 22.875 22.875C19.2703 26.4797 19.2188 31.6641 19.125 36.2391C19.0875 38.7 19.05 41.2406 18.4125 42.7734C17.7234 44.4422 15.8953 46.35 14.1281 48.1969C11.0203 51.4313 7.5 55.1063 7.5 60C7.5 64.8937 11.0203 68.5641 14.1281 71.8031C15.8953 73.65 17.7234 75.5531 18.4125 77.2266C19.05 78.7594 19.0875 81.3 19.125 83.7609C19.1953 88.3359 19.2703 93.5203 22.875 97.125C26.4797 100.73 31.6641 100.805 36.2391 100.875C38.7 100.912 41.2406 100.95 42.7734 101.588C44.4422 102.277 46.35 104.105 48.1969 105.872C51.4313 108.98 55.1063 112.5 60 112.5C64.8937 112.5 68.5641 108.98 71.8031 105.872C73.65 104.105 75.5531 102.277 77.2266 101.588C78.7594 100.95 81.3 100.912 83.7609 100.875C88.3359 100.805 93.5203 100.73 97.125 97.125C100.73 93.5203 100.805 88.3359 100.875 83.7609C100.912 81.3 100.95 78.7594 101.588 77.2266C102.277 75.5578 104.105 73.65 105.872 71.8031C108.98 68.5687 112.5 64.8937 112.5 60C112.5 55.1063 108.98 51.4359 105.872 48.1969ZM81.4031 51.4031L55.1531 77.6531C54.8049 78.0018 54.3913 78.2784 53.936 78.4671C53.4808 78.6558 52.9928 78.7529 52.5 78.7529C52.0072 78.7529 51.5192 78.6558 51.064 78.4671C50.6087 78.2784 50.1951 78.0018 49.8469 77.6531L38.5969 66.4031C37.8932 65.6995 37.4979 64.7451 37.4979 63.75C37.4979 62.7549 37.8932 61.8005 38.5969 61.0969C39.3005 60.3932 40.2549 59.9979 41.25 59.9979C42.2451 59.9979 43.1995 60.3932 43.9031 61.0969L52.5 69.6984L76.0969 46.0969C76.4453 45.7485 76.8589 45.4721 77.3141 45.2835C77.7694 45.095 78.2573 44.9979 78.75 44.9979C79.2427 44.9979 79.7306 45.095 80.1859 45.2835C80.6411 45.4721 81.0547 45.7485 81.4031 46.0969C81.7515 46.4453 82.0279 46.8589 82.2165 47.3141C82.405 47.7694 82.5021 48.2573 82.5021 48.75C82.5021 49.2427 82.405 49.7306 82.2165 50.1859C82.0279 50.6411 81.7515 51.0547 81.4031 51.4031Z" fill="#17C964"/>
</svg>
