<?xml version="1.0" encoding="UTF-8"?>
<svg width="83px" height="103px" viewBox="0 0 83 103" version="1.1" xmlns="http://www.w3.org/2000/svg" xmlns:xlink="http://www.w3.org/1999/xlink">
    <title>signature-placement-icon/sides</title>
    <g id="signature-placement-icon/sides" stroke="none" stroke-width="1" fill="none" fill-rule="evenodd">
        <path d="M8.24,0 C3.6892025,0 0,3.6892025 0,8.24 L0,94.76 C0,99.311055 3.6892025,103 8.24,103 L75.1898455,103 C79.7409005,103 83.4298455,99.311055 83.4298455,94.76 L83.4241805,25.75 L57.6741805,0 L8.24,0 Z" id="Path" stroke="#000000" fill="#E6E8ED"></path>
        <rect id="Rectangle-Copy-4" stroke="#000000" fill="#FFFFFF" transform="translate(7, 73.5) rotate(90) translate(-7, -73.5)" x="-3" y="70" width="20" height="7" rx="2"></rect>
        <rect id="Rectangle-Copy-5" stroke="#000000" fill="#FFFFFF" transform="translate(76, 73.5) rotate(90) translate(-76, -73.5)" x="66" y="70" width="20" height="7" rx="2"></rect>
        <rect id="Rectangle-Copy-6" stroke="#000000" fill="#FFFFFF" transform="translate(7, 49.5) rotate(90) translate(-7, -49.5)" x="-3" y="46" width="20" height="7" rx="2"></rect>
        <rect id="Rectangle-Copy-7" stroke="#000000" fill="#FFFFFF" transform="translate(76, 49.5) rotate(90) translate(-76, -49.5)" x="66" y="46" width="20" height="7" rx="2"></rect>
    </g>
</svg>