<?xml version="1.0" encoding="UTF-8"?>
<svg width="252px" height="54px" viewBox="0 0 252 54" version="1.1" xmlns="http://www.w3.org/2000/svg" xmlns:xlink="http://www.w3.org/1999/xlink">
    <title>logo/final/transparent/simpleo-ai-logo</title>
    <g id="logo/final/transparent/simpleo-ai-logo" stroke="none" stroke-width="1" fill="none" fill-rule="evenodd">
        <g id="Group-2">
            <g id="Group" transform="translate(0, 4.4443)" fill-rule="nonzero">
                <path d="M11.4879808,37.2385817 C18.3759014,37.2385817 23.0246394,33.8798077 23.0246394,28.695613 C23.0246394,24.8013822 20.7367788,22.7569111 15.1875,21.5886418 L10.8795072,20.663762 C8.27524038,20.1039663 7.25300481,19.2034255 7.25300481,17.8404447 C7.25300481,16.1610577 8.93239183,15.0171274 11.3419471,15.0171274 C13.8975361,15.0171274 15.3091947,16.2340745 16.5504808,17.8161058 C17.1832933,18.570613 18.2055288,18.9113582 19.1304087,18.9113582 C20.9558293,18.9113582 21.8563702,17.9134615 21.8563702,16.4774639 C21.8563702,16.1367188 21.7833534,15.7959736 21.6859976,15.4308894 C20.8341346,12.4858774 16.866887,10.0276442 11.4636418,10.0276442 C4.69741587,10.0276442 0.389423077,13.2403846 0.389423077,18.2298678 C0.389423077,22.0997596 2.96935096,24.7040264 8.08052885,25.7992788 L12.4615385,26.7241587 C15.0171274,27.2839543 15.9176683,28.0384615 15.9176683,29.4501202 C15.9176683,31.1781851 14.2382812,32.2490986 11.6583534,32.2490986 C8.95673077,32.2490986 7.35036058,31.4215745 5.96304087,29.5961538 C4.98948317,28.5009014 4.01592548,27.9897837 2.87199519,27.9897837 C1.21694712,27.9897837 0,29.0850361 0,30.7157452 C0,31.1051683 0.0973557692,31.5676082 0.267728365,32.0300481 C1.50901442,35.0967548 5.50060096,37.2385817 11.4879808,37.2385817 Z" id="Path" fill="#000000"></path>
                <path d="M30.2046274,7.35036058 C32.3464543,7.35036058 34.0015024,5.71965144 34.0015024,3.67518029 C34.0015024,1.60637019 32.3464543,0 30.2046274,0 C28.0628005,0 26.4077524,1.60637019 26.4077524,3.67518029 C26.4077524,5.71965144 28.0628005,7.35036058 30.2046274,7.35036058 Z" id="Path" fill="#FF6868"></path>
                <path d="M30.2046274,37.1899038 C32.3951322,37.1899038 33.758113,35.8025841 33.758113,33.4903846 L33.758113,13.7758413 C33.758113,11.4636418 32.3951322,10.0519832 30.2046274,10.0519832 C27.9897837,10.0519832 26.6511418,11.4636418 26.6511418,13.7758413 L26.6511418,33.4903846 C26.6511418,35.8025841 27.9897837,37.1899038 30.2046274,37.1899038 Z" id="Path" fill="#000000"></path>
                <path d="M42.0333534,37.1899038 C44.1265024,37.1899038 45.5868389,35.8999399 45.5868389,33.4903846 L45.5868389,20.9314904 C45.5868389,18.0108173 47.4122596,15.9663462 50.1138822,15.9663462 C52.742488,15.9663462 54.3245192,17.6213942 54.3245192,20.4203726 L54.3245192,33.4903846 C54.3245192,35.8999399 55.6388221,37.1899038 57.7319712,37.1899038 C59.8494591,37.1899038 61.163762,35.8999399 61.163762,33.4903846 L61.163762,20.8341346 C61.163762,17.9378005 62.9405048,15.9663462 65.6421274,15.9663462 C68.3924279,15.9663462 69.9014423,17.6213942 69.9014423,20.6394231 L69.9014423,33.4903846 C69.9014423,35.8999399 71.3374399,37.1899038 73.4305889,37.1899038 C75.5480769,37.1899038 77.0084135,35.8999399 77.0084135,33.4903846 L77.0084135,18.8626803 C77.0084135,13.6054687 73.5766226,10.1006611 68.4654447,10.1006611 C64.6442308,10.1006611 61.5288462,12.1694712 60.3605769,15.4552284 L60.2145433,15.4552284 C59.3383413,12.0477764 56.7097356,10.1006611 52.9371995,10.1006611 C49.3837139,10.1006611 46.5847356,12.1694712 45.4894832,15.3091947 L45.3434495,15.3091947 L45.3434495,13.6784856 C45.3434495,11.2932692 43.9317909,10.0519832 41.9116587,10.0519832 C39.8915264,10.0519832 38.4798678,11.2932692 38.4798678,13.6784856 L38.4798678,33.4903846 C38.4798678,35.8999399 39.9158654,37.1899038 42.0333534,37.1899038 Z" id="Path" fill="#000000"></path>
                <path d="M85.0646034,45.976262 C87.1577524,45.976262 88.6180889,44.710637 88.6180889,42.2767428 L88.6180889,32.2977764 L88.7641226,32.2977764 C90.1514423,35.2427885 93.0721154,37.0925481 96.8689904,37.0925481 C103.391827,37.0925481 107.432091,32.0300481 107.432091,23.633113 C107.432091,15.2118389 103.367488,10.1736779 96.7472957,10.1736779 C92.9747596,10.1736779 90.0784255,12.0721154 88.6667668,15.1388221 L88.5207332,15.1388221 L88.5207332,13.7271635 C88.5207332,11.3176082 87.0603966,10.0519832 85.0159255,10.0519832 C82.9714543,10.0519832 81.5111178,11.3176082 81.5111178,13.7028245 L81.5111178,42.2767428 C81.5111178,44.710637 82.9957933,45.976262 85.0646034,45.976262 Z M94.3620793,31.3728966 C90.8816106,31.3728966 88.59375,28.3548678 88.59375,23.633113 C88.59375,18.9600361 90.8816106,15.8689904 94.3620793,15.8689904 C97.9155649,15.8689904 100.154748,18.9113582 100.154748,23.633113 C100.154748,28.3792067 97.9155649,31.3728966 94.3620793,31.3728966 Z" id="Shape" fill="#000000"></path>
                <path d="M114.806791,37.1899038 C116.89994,37.1899038 118.360276,35.9242788 118.360276,33.4903846 L118.360276,4.74609375 C118.360276,2.31219952 116.89994,1.02223558 114.806791,1.02223558 C112.737981,1.02223558 111.253305,2.31219952 111.253305,4.74609375 L111.253305,33.4903846 C111.253305,35.9242788 112.737981,37.1899038 114.806791,37.1899038 Z" id="Path" fill="#000000"></path>
                <path d="M135.154147,37.2385817 C140.192308,37.2385817 144.232572,35.3401442 145.960637,32.1274038 C146.277043,31.5432692 146.447416,30.9591346 146.447416,30.3993389 C146.447416,28.7686298 145.20613,27.7950721 143.672776,27.7950721 C142.747897,27.7950721 142.115084,28.0628005 141.360577,28.8416466 C139.4378,31.1051683 137.734075,31.9813702 135.129808,31.9813702 C131.527644,31.9813702 129.191106,29.4501202 129.191106,25.5802284 L129.191106,25.2638221 L144.086538,25.2638221 C146.057993,25.2638221 147.177584,24.1442308 147.177584,22.1727764 C147.177584,15.0901442 142.21244,10.0276442 134.813401,10.0276442 C127.097957,10.0276442 122.205829,15.3578726 122.205829,23.7548077 C122.205829,32.2004207 127.000601,37.2385817 135.154147,37.2385817 Z M129.264123,20.9071514 C129.507512,17.5727163 131.771034,15.2848558 134.886418,15.2848558 C138.001803,15.2848558 140.192308,17.4996995 140.338341,20.9071514 L129.264123,20.9071514 Z" id="Shape" fill="#000000"></path>
            </g>
            <path d="M207.76857,41.4151442 C209.934736,41.4151442 211.687139,39.6627404 211.687139,37.4965745 C211.687139,35.3060697 209.934736,33.5780048 207.76857,33.5780048 C205.578065,33.5780048 203.85,35.3060697 203.85,37.4965745 C203.85,39.6627404 205.578065,41.4151442 207.76857,41.4151442 Z" id="Path" fill="#FF6868" fill-rule="nonzero"></path>
            <path d="M224.708474,41.5368389 C227.969892,41.5368389 231.23131,39.9061298 232.691647,37.1314904 L232.83768,37.1314904 L232.83768,38.4701322 C232.983714,40.5632813 234.322356,41.6341947 236.245132,41.6341947 C238.265264,41.6341947 239.701262,40.4172476 239.701262,38.0563702 L239.701262,23.1852764 C239.701262,17.9280649 235.344591,14.4719351 228.651382,14.4719351 C223.248137,14.4719351 219.061839,16.3947115 217.844892,19.5100962 C217.601502,20.0455529 217.479808,20.5566707 217.479808,21.1164663 C217.479808,22.7228365 218.721094,23.8424279 220.449159,23.8424279 C221.593089,23.8424279 222.49363,23.4043269 223.272476,22.528125 C224.854507,20.4836538 226.16881,19.7778245 228.334976,19.7778245 C231.01226,19.7778245 232.715986,21.1894832 232.715986,23.6233774 L232.715986,25.3514423 L226.144471,25.7408654 C219.621635,26.1302885 215.970793,28.8805889 215.970793,33.6266827 C215.970793,38.3240986 219.743329,41.5368389 224.708474,41.5368389 Z M227.045012,36.4013221 C224.659796,36.4013221 223.053425,35.184375 223.053425,33.2372596 C223.053425,31.3875 224.56244,30.1948918 227.215385,30.0001803 L232.715986,29.6594351 L232.715986,31.5578726 C232.715986,34.3811899 230.160397,36.4013221 227.045012,36.4013221 Z" id="Shape" fill="#000000" fill-rule="nonzero"></path>
            <path d="M247.952163,41.6341947 C250.142668,41.6341947 251.505649,40.246875 251.505649,37.9346755 L251.505649,18.2201322 C251.505649,15.9079327 250.142668,14.496274 247.952163,14.496274 C245.73732,14.496274 244.398678,15.9079327 244.398678,18.2201322 L244.398678,37.9346755 C244.398678,40.246875 245.73732,41.6341947 247.952163,41.6341947 Z" id="Path" fill="#000000" fill-rule="nonzero"></path>
            <circle id="Oval" fill="#FF6868" cx="176.739663" cy="27" r="27"></circle>
            <path d="M247.952163,11.7946514 C250.09399,11.7946514 251.749038,10.1639423 251.749038,8.11947115 C251.749038,6.05066106 250.09399,4.44429087 247.952163,4.44429087 C245.810337,4.44429087 244.155288,6.05066106 244.155288,8.11947115 C244.155288,10.1639423 245.810337,11.7946514 247.952163,11.7946514 Z" id="Path" fill="#FF6868" fill-rule="nonzero"></path>
        </g>
    </g>
</svg>