<svg width="15" height="12" viewBox="0 0 15 12" fill="none" xmlns="http://www.w3.org/2000/svg">
<path d="M14.2081 3.68169L6.18249 11.7067C6.08963 11.7996 5.97938 11.8733 5.85804 11.9235C5.73669 11.9738 5.60664 11.9997 5.4753 11.9997C5.34396 11.9997 5.2139 11.9738 5.09256 11.9235C4.97122 11.8733 4.86097 11.7996 4.76811 11.7067L0.291861 7.20669C0.104657 7.0192 -0.000488281 6.76508 -0.000488281 6.50013C-0.000488281 6.23518 0.104657 5.98105 0.291861 5.79356L1.79186 4.29356C1.97875 4.10662 2.23206 4.00129 2.4964 4.00058C2.76074 3.99988 3.0146 4.10387 3.20249 4.28981L5.49249 6.49419L5.49936 6.50106L11.295 0.790438C11.4824 0.603807 11.7361 0.499023 12.0006 0.499023C12.2651 0.499023 12.5188 0.603807 12.7062 0.790438L14.2062 2.26294C14.2999 2.35576 14.3743 2.46618 14.4251 2.58786C14.4759 2.70953 14.5022 2.84006 14.5023 2.97192C14.5025 3.10379 14.4766 3.23438 14.4261 3.35619C14.3756 3.478 14.3015 3.58862 14.2081 3.68169Z" fill="white"/>
</svg>
