<?xml version="1.0" encoding="UTF-8"?>
<svg width="26px" height="26px" viewBox="0 0 26 26" version="1.1" xmlns="http://www.w3.org/2000/svg" xmlns:xlink="http://www.w3.org/1999/xlink">
    <title>app-icons/tick-apply@2x</title>
    <g id="app-icons/tick-apply" stroke="none" stroke-width="1" fill="none" fill-rule="evenodd">
        <path d="M13,0.125 C20.1106662,0.125 25.875,5.88933385 25.875,13 C25.875,14.3401716 25.6699106,15.6537361 25.2714143,16.9065366 C24.813922,18.3448098 24.106135,19.6876606 23.1845322,20.8775406 C22.8886186,21.2595941 22.3390177,21.3294244 21.9569641,21.0335108 C21.5749106,20.7375972 21.5050803,20.1879963 21.8009939,19.8059428 C22.5974463,18.7776443 23.208775,17.6177994 23.6037473,16.3760777 C23.9478416,15.2943074 24.125,14.159636 24.125,13 C24.125,6.85583216 19.1441678,1.875 13,1.875 C6.85583216,1.875 1.875,6.85583216 1.875,13 C1.875,19.1441678 6.85583216,24.125 13,24.125 C14.8787667,24.125 16.6882522,23.6594776 18.3018648,22.7829898 C18.7265119,22.5523285 19.2577443,22.709585 19.4884055,23.1342321 C19.7190668,23.5588791 19.5618103,24.0901115 19.1371633,24.3207728 C17.2687344,25.3356726 15.1723688,25.875 13,25.875 C5.88933385,25.875 0.125,20.1106662 0.125,13 C0.125,5.88933385 5.88933385,0.125 13,0.125 Z" id="Path" fill="#000000" fill-rule="nonzero"></path>
        <path d="M19.9672503,9.80587985 C20.3506023,9.51165033 20.8998906,9.58389835 21.1941201,9.96725032 C21.4883497,10.3506023 21.4161017,10.8998906 21.0327497,11.1941201 C19.103959,12.6745016 17.6628336,13.8511271 16.7145693,14.7184839 C16.1717859,15.2149561 15.3373499,16.0243867 14.2160191,17.1424073 L13.7178977,17.6404395 C13.3741252,17.9850395 13.0069882,18.3547795 12.6165977,18.7495578 C12.5768366,18.7891299 12.5768366,18.7891299 12.5360597,18.8276544 C11.3748086,19.9105505 9.55556781,19.8470312 8.47242608,18.6855166 L4.8819703,14.8320872 C4.55253876,14.4785272 4.57209866,13.9248533 4.92565857,13.5954217 C5.27921847,13.2659902 5.83289244,13.2855501 6.16232398,13.63911 L9.75253413,17.492276 C10.1762761,17.9466786 10.8881529,17.9715339 11.3425555,17.547792 C11.3585117,17.5327172 11.3585117,17.5327172 11.3731675,17.5181441 C11.7673054,17.1195761 12.1380695,16.7461854 12.4854697,16.3979661 L12.9890485,15.8945151 C14.1231846,14.7638427 14.9711749,13.9414842 15.5334471,13.427186 C16.5257648,12.5195344 18.0019672,11.3142699 19.9672503,9.80587985 Z" id="Line-7" fill="#000000" fill-rule="nonzero"></path>
    </g>
</svg>