<?xml version="1.0" encoding="UTF-8"?>
<svg width="26px" height="26px" viewBox="0 0 26 26" version="1.1" xmlns="http://www.w3.org/2000/svg" xmlns:xlink="http://www.w3.org/1999/xlink">
    <title>app-icons/trashcan@2x</title>
    <g id="app-icons/trashcan" stroke="none" stroke-width="1" fill="none" fill-rule="evenodd">
        <path d="M6.42085895,2.03142083 C8.85701373,2.38317737 11.0712735,2.55856476 13.062397,2.55856476 C14.8848424,2.55856476 16.7068622,2.41162259 18.5289153,2.11762342 C20.15422,1.85524487 21.6902719,2.92535422 21.9598048,4.50782147 C21.9978572,4.73123243 22.0089436,4.95821344 21.9928429,5.1841342 L20.7780461,22.2311262 C20.6639463,23.8313667 19.2390961,25.0385634 17.595548,24.9274771 C17.5126733,24.9218756 17.4300943,24.9129073 17.3482134,24.9006155 C16.0228537,24.7019057 14.5942121,24.6021893 13.062397,24.6021893 C11.3664693,24.6021893 9.66102955,24.7244186 7.9455541,24.9690346 C6.31537591,25.2012133 4.80059285,24.1026551 4.56222973,22.515414 C4.55375809,22.459002 4.54699964,22.4023957 4.54201088,22.3460836 L3.01134813,5.15562276 C2.86890505,3.55754179 4.083972,2.14959671 5.72529847,2.01088049 C5.95718143,1.99128297 6.1906229,1.99817648 6.42085895,2.03142083 Z M5.89727607,3.93993901 C5.35016358,3.98617806 4.94513353,4.45550206 4.9926234,4.98829502 L6.52333097,22.1792602 C6.52498088,22.1978837 6.52721091,22.2165616 6.53002048,22.2352703 C6.6094729,22.7643377 7.11436518,23.1304981 7.65754204,23.0531359 C9.46777482,22.795008 11.2695122,22.6658771 13.062397,22.6658771 C14.6925501,22.6658771 16.2220086,22.7726303 17.6510668,22.9868875 C17.6782713,22.9909714 17.7056962,22.9939499 17.7332703,22.9958136 C18.2811206,23.0328424 18.756073,22.6304415 18.7941038,22.097062 L20.0088983,5.05010228 C20.0142673,4.97476521 20.0105709,4.89908574 19.9978852,4.82460611 C19.9080397,4.29710997 19.3960029,3.94039325 18.854132,4.02786933 C16.9248819,4.33916539 14.9941253,4.49487696 13.062397,4.49487696 C10.9681404,4.49487696 8.65746275,4.3118525 6.12912524,3.94678568 C6.05238086,3.93570437 5.97456929,3.9334066 5.89727607,3.93993901 Z M11,13 C11.5522847,13 12,13.2304417 12,13.5147059 L12,19.4852941 C12,19.7695583 11.5522847,20 11,20 C10.4477153,20 10,19.7695583 10,19.4852941 L10,13.5147059 C10,13.2304417 10.4477153,13 11,13 Z M15,13 C15.5522847,13 16,13.2304417 16,13.5147059 L16,19.4852941 C16,19.7695583 15.5522847,20 15,20 C14.4477153,20 14,19.7695583 14,19.4852941 L14,13.5147059 C14,13.2304417 14.4477153,13 15,13 Z" id="Combined-Shape" fill="#000000" fill-rule="nonzero"></path>
    </g>
</svg>