<svg width="41" height="40" viewBox="0 0 41 40" fill="none" xmlns="http://www.w3.org/2000/svg">
<circle cx="20.3335" cy="20" r="20" fill="#EDE8FB"/>
<path d="M10.55 19.85C10.6288 19.9091 10.7185 19.9521 10.8139 19.9766C10.9093 20.001 11.0086 20.0064 11.1061 19.9925C11.2036 19.9785 11.2974 19.9456 11.3821 19.8954C11.4669 19.8452 11.5409 19.7788 11.6 19.7C12.0541 19.0946 12.6429 18.6031 13.3198 18.2647C13.9968 17.9262 14.7432 17.75 15.5 17.75C16.2568 17.75 17.0032 17.9262 17.6802 18.2647C18.3571 18.6031 18.9459 19.0946 19.4 19.7C19.5195 19.859 19.6972 19.964 19.8941 19.992C20.091 20.0199 20.291 19.9685 20.45 19.8491C20.5067 19.8069 20.5569 19.7567 20.5991 19.7C21.0532 19.0946 21.642 18.6031 22.3189 18.2647C22.9958 17.9262 23.7422 17.75 24.4991 17.75C25.2559 17.75 26.0023 17.9262 26.6792 18.2647C27.3561 18.6031 27.945 19.0946 28.3991 19.7C28.5185 19.8591 28.6963 19.9643 28.8933 19.9923C29.0903 20.0204 29.2904 19.969 29.4495 19.8495C29.6087 19.7301 29.7138 19.5523 29.7419 19.3553C29.7699 19.1583 29.7185 18.9582 29.5991 18.7991C28.9352 17.9091 28.0499 17.2084 27.0312 16.7666C27.5897 16.2567 27.981 15.5899 28.1537 14.8537C28.3264 14.1175 28.2725 13.3463 27.9991 12.6412C27.7256 11.9362 27.2454 11.3303 26.6215 10.9031C25.9976 10.4758 25.259 10.2472 24.5028 10.2472C23.7466 10.2472 23.0081 10.4758 22.3841 10.9031C21.7602 11.3303 21.28 11.9362 21.0066 12.6412C20.7331 13.3463 20.6792 14.1175 20.8519 14.8537C21.0247 15.5899 21.4159 16.2567 21.9744 16.7666C21.2389 17.0846 20.5707 17.5399 20.0056 18.1081C19.4406 17.5399 18.7724 17.0846 18.0369 16.7666C18.5953 16.2567 18.9866 15.5899 19.1593 14.8537C19.332 14.1175 19.2781 13.3463 19.0047 12.6412C18.7313 11.9362 18.2511 11.3303 17.6271 10.9031C17.0032 10.4758 16.2646 10.2472 15.5084 10.2472C14.7522 10.2472 14.0137 10.4758 13.3898 10.9031C12.7658 11.3303 12.2856 11.9362 12.0122 12.6412C11.7387 13.3463 11.6848 14.1175 11.8576 14.8537C12.0303 15.5899 12.4215 16.2567 12.98 16.7666C11.9569 17.2069 11.0672 17.9081 10.4 18.8C10.3409 18.8788 10.2979 18.9685 10.2735 19.0639C10.249 19.1593 10.2436 19.2586 10.2575 19.3561C10.2715 19.4536 10.3045 19.5474 10.3546 19.6321C10.4048 19.7169 10.4712 19.7909 10.55 19.85ZM24.5 11.75C24.945 11.75 25.38 11.882 25.75 12.1292C26.12 12.3764 26.4084 12.7278 26.5787 13.139C26.749 13.5501 26.7936 14.0025 26.7068 14.439C26.62 14.8754 26.4057 15.2763 26.091 15.591C25.7763 15.9057 25.3754 16.12 24.939 16.2068C24.5025 16.2936 24.0501 16.249 23.639 16.0787C23.2278 15.9084 22.8764 15.6201 22.6292 15.2501C22.382 14.88 22.25 14.445 22.25 14C22.25 13.4033 22.4871 12.831 22.909 12.409C23.331 11.9871 23.9033 11.75 24.5 11.75ZM15.5 11.75C15.945 11.75 16.38 11.882 16.75 12.1292C17.12 12.3764 17.4084 12.7278 17.5787 13.139C17.749 13.5501 17.7936 14.0025 17.7068 14.439C17.62 14.8754 17.4057 15.2763 17.091 15.591C16.7763 15.9057 16.3754 16.12 15.939 16.2068C15.5025 16.2936 15.0501 16.249 14.639 16.0787C14.2278 15.9084 13.8764 15.6201 13.6292 15.2501C13.382 14.88 13.25 14.445 13.25 14C13.25 13.4033 13.4871 12.831 13.909 12.409C14.331 11.9871 14.9033 11.75 15.5 11.75ZM27.0312 26.5166C27.5897 26.0067 27.981 25.3399 28.1537 24.6037C28.3264 23.8675 28.2725 23.0963 27.9991 22.3912C27.7256 21.6862 27.2454 21.0803 26.6215 20.6531C25.9976 20.2258 25.259 19.9972 24.5028 19.9972C23.7466 19.9972 23.0081 20.2258 22.3841 20.6531C21.7602 21.0803 21.28 21.6862 21.0066 22.3912C20.7331 23.0963 20.6792 23.8675 20.8519 24.6037C21.0247 25.3399 21.4159 26.0067 21.9744 26.5166C21.2389 26.8346 20.5707 27.2899 20.0056 27.8581C19.4406 27.2899 18.7724 26.8346 18.0369 26.5166C18.5953 26.0067 18.9866 25.3399 19.1593 24.6037C19.332 23.8675 19.2781 23.0963 19.0047 22.3912C18.7313 21.6862 18.2511 21.0803 17.6271 20.6531C17.0032 20.2258 16.2646 19.9972 15.5084 19.9972C14.7522 19.9972 14.0137 20.2258 13.3898 20.6531C12.7658 21.0803 12.2856 21.6862 12.0122 22.3912C11.7387 23.0963 11.6848 23.8675 11.8576 24.6037C12.0303 25.3399 12.4215 26.0067 12.98 26.5166C11.9569 26.9569 11.0672 27.6581 10.4 28.55C10.3409 28.6288 10.2979 28.7185 10.2735 28.8139C10.249 28.9093 10.2436 29.0086 10.2575 29.1061C10.2715 29.2036 10.3045 29.2974 10.3546 29.3821C10.4048 29.4669 10.4712 29.5409 10.55 29.6C10.6288 29.6591 10.7185 29.7021 10.8139 29.7266C10.9093 29.751 11.0086 29.7564 11.1061 29.7425C11.2036 29.7285 11.2974 29.6956 11.3821 29.6454C11.4669 29.5952 11.5409 29.5288 11.6 29.45C12.0541 28.8446 12.6429 28.3531 13.3198 28.0147C13.9968 27.6762 14.7432 27.5 15.5 27.5C16.2568 27.5 17.0032 27.6762 17.6802 28.0147C18.3571 28.3531 18.9459 28.8446 19.4 29.45C19.5195 29.609 19.6972 29.714 19.8941 29.742C20.091 29.7699 20.291 29.7185 20.45 29.5991C20.5067 29.5569 20.5569 29.5067 20.5991 29.45C21.0532 28.8446 21.642 28.3531 22.3189 28.0147C22.9958 27.6762 23.7422 27.5 24.4991 27.5C25.2559 27.5 26.0023 27.6762 26.6792 28.0147C27.3561 28.3531 27.945 28.8446 28.3991 29.45C28.5185 29.6091 28.6963 29.7143 28.8933 29.7423C29.0903 29.7704 29.2904 29.719 29.4495 29.5995C29.6087 29.4801 29.7138 29.3023 29.7419 29.1053C29.7699 28.9083 29.7185 28.7082 29.5991 28.5491C28.9352 27.6591 28.0499 26.9584 27.0312 26.5166ZM15.5 21.5C15.945 21.5 16.38 21.632 16.75 21.8792C17.12 22.1264 17.4084 22.4778 17.5787 22.889C17.749 23.3001 17.7936 23.7525 17.7068 24.189C17.62 24.6254 17.4057 25.0263 17.091 25.341C16.7763 25.6557 16.3754 25.87 15.939 25.9568C15.5025 26.0436 15.0501 25.999 14.639 25.8287C14.2278 25.6584 13.8764 25.3701 13.6292 25C13.382 24.63 13.25 24.195 13.25 23.75C13.25 23.1533 13.4871 22.581 13.909 22.159C14.331 21.7371 14.9033 21.5 15.5 21.5ZM24.5 21.5C24.945 21.5 25.38 21.632 25.75 21.8792C26.12 22.1264 26.4084 22.4778 26.5787 22.889C26.749 23.3001 26.7936 23.7525 26.7068 24.189C26.62 24.6254 26.4057 25.0263 26.091 25.341C25.7763 25.6557 25.3754 25.87 24.939 25.9568C24.5025 26.0436 24.0501 25.999 23.639 25.8287C23.2278 25.6584 22.8764 25.3701 22.6292 25C22.382 24.63 22.25 24.195 22.25 23.75C22.25 23.1533 22.4871 22.581 22.909 22.159C23.331 21.7371 23.9033 21.5 24.5 21.5Z" fill="#2F469C"/>
</svg>
