<svg width="24" height="24" viewBox="0 0 24 24" fill="none" xmlns="http://www.w3.org/2000/svg">
<path d="M21.75 8.99981C21.7511 10.1224 21.4723 11.2275 20.9387 12.2152C20.4051 13.2028 19.6335 14.0418 18.694 14.6561C17.7544 15.2704 16.6765 15.6407 15.5577 15.7335C14.439 15.8263 13.3148 15.6385 12.2869 15.1873L7.40627 20.8329C7.39502 20.8461 7.3819 20.8601 7.36971 20.8723C6.80703 21.435 6.04389 21.7511 5.24815 21.7511C4.4524 21.7511 3.68926 21.435 3.12658 20.8723C2.56391 20.3096 2.2478 19.5465 2.2478 18.7508C2.2478 17.955 2.56391 17.1919 3.12658 16.6292C3.13971 16.617 3.15283 16.6039 3.1669 16.5926L8.81252 11.7129C8.30671 10.5559 8.13527 9.28023 8.31766 8.03069C8.50004 6.78115 9.02896 5.60772 9.8444 4.64353C10.6598 3.67933 11.7292 2.96294 12.9311 2.57564C14.133 2.18833 15.4194 2.14561 16.6444 2.45231C16.7707 2.48396 16.8865 2.54794 16.9806 2.63794C17.0746 2.72795 17.1437 2.84089 17.1808 2.96565C17.218 3.09041 17.2221 3.2227 17.1926 3.34951C17.1632 3.47632 17.1012 3.59327 17.0128 3.68888L13.5 7.49981L14.0306 9.97013L16.5 10.4998L20.311 6.98231C20.4066 6.89395 20.5235 6.832 20.6503 6.80254C20.7771 6.77308 20.9094 6.77714 21.0342 6.81431C21.1589 6.85149 21.2719 6.9205 21.3619 7.01455C21.4519 7.10861 21.5159 7.22447 21.5475 7.35075C21.6821 7.89011 21.7501 8.44392 21.75 8.99981Z" fill="black"/>
</svg>
