<svg width="20" height="20" viewBox="0 0 20 20" fill="none" xmlns="http://www.w3.org/2000/svg">
<path d="M16.9132 15.5865C17.0894 15.7626 17.1883 16.0015 17.1883 16.2505C17.1883 16.4996 17.0894 16.7385 16.9132 16.9146C16.7371 17.0907 16.4983 17.1897 16.2492 17.1897C16.0001 17.1897 15.7612 17.0907 15.5851 16.9146L9.99997 11.3279L4.41325 16.913C4.32604 17.0002 4.22251 17.0694 4.10857 17.1166C3.99463 17.1638 3.87251 17.1881 3.74918 17.1881C3.62586 17.1881 3.50374 17.1638 3.3898 17.1166C3.27586 17.0694 3.17233 17.0002 3.08512 16.913C2.99792 16.8258 2.92874 16.7223 2.88155 16.6084C2.83435 16.4944 2.81006 16.3723 2.81006 16.249C2.81006 16.1257 2.83435 16.0035 2.88155 15.8896C2.92874 15.7757 2.99792 15.6721 3.08512 15.5849L9.33512 9.33492C9.42222 9.24752 9.52571 9.17817 9.63967 9.13085C9.75362 9.08354 9.8758 9.05918 9.99918 9.05918C10.1226 9.05918 10.2447 9.08354 10.3587 9.13085C10.4727 9.17817 10.5762 9.24752 10.6632 9.33492L16.9132 15.5865ZM4.41325 10.6646L9.99997 5.07789L15.5867 10.6654C15.7628 10.8415 16.0017 10.9405 16.2507 10.9405C16.4998 10.9405 16.7387 10.8415 16.9148 10.6654C17.0909 10.4893 17.1899 10.2504 17.1899 10.0013C17.1899 9.75225 17.0909 9.51338 16.9148 9.33726L10.6648 3.08726C10.5777 2.99986 10.4742 2.93052 10.3603 2.8832C10.2463 2.83588 10.1241 2.81152 10.0007 2.81152C9.87736 2.81152 9.75518 2.83588 9.64123 2.8832C9.52728 2.93052 9.42378 2.99986 9.33669 3.08726L3.08668 9.33726C2.91056 9.51338 2.81162 9.75225 2.81162 10.0013C2.81162 10.2504 2.91056 10.4893 3.08668 10.6654C3.2628 10.8415 3.50168 10.9405 3.75075 10.9405C3.99982 10.9405 4.23869 10.8415 4.41481 10.6654L4.41325 10.6646Z" fill="#F31260"/>
</svg>
