<svg width="20" height="20" viewBox="0 0 20 20" fill="none" xmlns="http://www.w3.org/2000/svg">
<path d="M16.9132 9.33659C17.0006 9.42368 17.07 9.52718 17.1173 9.64113C17.1646 9.75509 17.189 9.87726 17.189 10.0006C17.189 10.124 17.1646 10.2462 17.1173 10.3602C17.07 10.4741 17.0006 10.5776 16.9132 10.6647L10.6632 16.9147C10.5762 17.0021 10.4727 17.0715 10.3587 17.1188C10.2447 17.1661 10.1226 17.1905 9.99918 17.1905C9.8758 17.1905 9.75362 17.1661 9.63967 17.1188C9.52571 17.0715 9.42222 17.0021 9.33512 16.9147L3.08512 10.6647C2.99792 10.5775 2.92874 10.474 2.88155 10.36C2.83435 10.2461 2.81006 10.124 2.81006 10.0006C2.81006 9.87732 2.83435 9.7552 2.88155 9.64126C2.92874 9.52732 2.99792 9.42379 3.08512 9.33659C3.17233 9.24938 3.27586 9.18021 3.3898 9.13301C3.50374 9.08581 3.62586 9.06152 3.74918 9.06152C3.87251 9.06152 3.99463 9.08581 4.10857 9.13301C4.22251 9.18021 4.32604 9.24938 4.41325 9.33659L9.99997 14.9217L15.5867 9.33424C15.6739 9.24723 15.7774 9.17827 15.8913 9.13129C16.0052 9.08431 16.1273 9.06024 16.2505 9.06046C16.3737 9.06068 16.4956 9.08518 16.6093 9.13256C16.7231 9.17994 16.8263 9.24927 16.9132 9.33659ZM9.33512 10.6647C9.42222 10.7521 9.52571 10.8215 9.63967 10.8688C9.75362 10.9161 9.8758 10.9405 9.99918 10.9405C10.1226 10.9405 10.2447 10.9161 10.3587 10.8688C10.4727 10.8215 10.5762 10.7521 10.6632 10.6647L16.9132 4.41471C17.0005 4.32751 17.0696 4.22398 17.1168 4.11004C17.164 3.9961 17.1883 3.87398 17.1883 3.75065C17.1883 3.62732 17.164 3.5052 17.1168 3.39126C17.0696 3.27732 17.0005 3.17379 16.9132 3.08659C16.826 2.99938 16.7225 2.93021 16.6086 2.88301C16.4946 2.83581 16.3725 2.81152 16.2492 2.81152C16.1259 2.81152 16.0037 2.83581 15.8898 2.88301C15.7759 2.93021 15.6723 2.99938 15.5851 3.08659L9.99997 8.67174L4.41325 3.08659C4.23713 2.91047 3.99826 2.81152 3.74918 2.81152C3.50011 2.81152 3.26124 2.91047 3.08512 3.08659C2.909 3.26271 2.81006 3.50158 2.81006 3.75065C2.81006 3.99972 2.909 4.23859 3.08512 4.41471L9.33512 10.6647Z" fill="#17C964"/>
</svg>
