<svg width="20" height="20" viewBox="0 0 20 20" fill="none" xmlns="http://www.w3.org/2000/svg">
<path d="M17.8125 12.5C17.8125 12.7486 17.7137 12.9871 17.5379 13.1629C17.3621 13.3387 17.1236 13.4375 16.875 13.4375H3.125C2.87636 13.4375 2.6379 13.3387 2.46209 13.1629C2.28627 12.9871 2.1875 12.7486 2.1875 12.5C2.1875 12.2514 2.28627 12.0129 2.46209 11.8371C2.6379 11.6613 2.87636 11.5625 3.125 11.5625H16.875C17.1236 11.5625 17.3621 11.6613 17.5379 11.8371C17.7137 12.0129 17.8125 12.2514 17.8125 12.5ZM3.125 8.4375H16.875C17.1236 8.4375 17.3621 8.33873 17.5379 8.16291C17.7137 7.9871 17.8125 7.74864 17.8125 7.5C17.8125 7.25136 17.7137 7.0129 17.5379 6.83709C17.3621 6.66127 17.1236 6.5625 16.875 6.5625H3.125C2.87636 6.5625 2.6379 6.66127 2.46209 6.83709C2.28627 7.0129 2.1875 7.25136 2.1875 7.5C2.1875 7.74864 2.28627 7.9871 2.46209 8.16291C2.6379 8.33873 2.87636 8.4375 3.125 8.4375Z" fill="#F5A524"/>
</svg>
