<?xml version="1.0" encoding="UTF-8"?>
<svg width="26px" height="26px" viewBox="0 0 26 26" version="1.1" xmlns="http://www.w3.org/2000/svg" xmlns:xlink="http://www.w3.org/1999/xlink">
    <title>social-icons/linkedin@2x</title>
    <g id="social-icons/linkedin" stroke="none" stroke-width="1" fill="none" fill-rule="evenodd">
        <g id="icons8-linkedin" fill-rule="nonzero">
            <path d="M26,22.3888889 C26,24.3836667 24.3836667,26 22.3888889,26 L3.61111111,26 C1.61705556,26 0,24.3836667 0,22.3888889 L0,3.61111111 C0,1.61633333 1.61705556,0 3.61111111,0 L22.3888889,0 C24.3836667,0 26,1.61633333 26,3.61111111 L26,22.3888889 Z" id="Path" fill="#0288D1"></path>
            <path d="M4,9.95833333 L7.54166667,9.95833333 L7.54166667,22 L4,22 L4,9.95833333 Z M5.76020833,8.54166667 L5.740375,8.54166667 C4.68354167,8.54166667 4,7.754 4,6.770125 C4,5.765 4.70479167,5 5.78075,5 C6.858125,5 7.52183333,5.765 7.54166667,6.770125 C7.54166667,7.75329167 6.858125,8.54166667 5.76020833,8.54166667 Z M21,22 L17.4583333,22 L17.4583333,15.554875 C17.4583333,13.9979583 16.590625,12.9354583 15.1973333,12.9354583 C14.134125,12.9354583 13.5589583,13.6522917 13.279875,14.3450417 C13.177875,14.5929583 13.2083333,15.278625 13.2083333,15.625 L13.2083333,22 L9.66666667,22 L9.66666667,9.95833333 L13.2083333,9.95833333 L13.2083333,11.8113333 C13.7190417,11.0208333 14.51875,9.95833333 16.5644167,9.95833333 C19.0988333,9.95833333 20.9992917,11.5520833 20.9992917,15.11075 L21,22 L21,22 Z" id="Shape" fill="#FFFFFF"></path>
        </g>
    </g>
</svg>