<?xml version="1.0" encoding="UTF-8"?>
<svg width="26px" height="26px" viewBox="0 0 26 26" version="1.1" xmlns="http://www.w3.org/2000/svg" xmlns:xlink="http://www.w3.org/1999/xlink">
    <title>social-icons/facebook@2x</title>
    <g id="social-icons/facebook" stroke="none" stroke-width="1" fill="none" fill-rule="evenodd">
        <g id="icons8-facebook" fill-rule="nonzero">
            <path d="M13,0 C5.82029825,0 0,5.82029825 0,13 C0,20.1797017 5.82029825,26 13,26 C20.1797017,26 26,20.1797017 26,13 C26,5.82029825 20.1797017,0 13,0 Z" id="Path" fill="#039BE5"></path>
            <path d="M15.0189881,16.2896122 L18.4309866,16.2896122 L18.9666919,12.8161529 L15.0182942,12.8161529 L15.0182942,10.9177456 C15.0182942,9.47481705 15.4887711,8.19530448 16.8356674,8.19530448 L19,8.19530448 L19,5.16411139 C18.6197325,5.11265274 17.8154807,5 16.2957986,5 C13.1225082,5 11.262112,6.67936024 11.262112,10.505381 L11.262112,12.8161529 L8,12.8161529 L8,16.2896122 L11.262112,16.2896122 L11.262112,25.836584 C11.9081504,25.9339382 12.5625158,26 13.2342291,26 C13.841408,26 14.4340146,25.944369 15.0189881,25.8650949 L15.0189881,16.2896122 Z" id="Path" fill="#FFFFFF"></path>
        </g>
    </g>
</svg>