<?xml version="1.0" encoding="UTF-8"?>
<svg width="26px" height="26px" viewBox="0 0 26 26" version="1.1" xmlns="http://www.w3.org/2000/svg" xmlns:xlink="http://www.w3.org/1999/xlink">
    <title>app-icons/calendar</title>
    <g id="app-icons/calendar" stroke="none" stroke-width="1" fill="none" fill-rule="evenodd">
        <path d="M18,1 C18.5522847,1 19,1.33578644 19,1.75 L19.0014531,3.02636582 C19.8688808,3.05019719 20.4421982,3.09408438 21.0453748,3.17276662 C22.5310443,3.36656691 23.5696921,3.78117295 24.382239,4.5695989 C25.1948651,5.35804106 25.6221874,6.36579358 25.8219323,7.80725324 L25.8383246,7.9289465 L25.8681141,8.1723463 C25.9795302,9.15104437 26,10.2314363 26,12.8717949 L26,15.2167265 C25.9994692,18.1185244 25.9725711,19.1056538 25.8219324,20.192746 C25.6221856,21.6342289 25.1948577,22.6419861 24.3822443,23.4303621 C23.4859082,24.300038 22.3259178,24.7130665 20.562126,24.8814221 C20.0827962,24.9271746 19.6559959,24.5872483 19.6088409,24.1221755 C19.5616858,23.6571028 19.9120326,23.242997 20.3913624,23.1972446 C21.790203,23.0637239 22.5852256,22.7806466 23.1489448,22.2336944 C23.6560529,21.7417115 23.9403003,21.0713778 24.0933002,19.9672463 C24.2200695,19.0524087 24.2512764,18.1571198 24.2553274,15.7597276 L24.2551976,12.1687964 C24.2506428,9.82495902 24.218802,8.93843801 24.0933003,8.03275445 C23.9403004,6.92863037 23.6560511,6.25828655 23.1489001,5.76622838 C22.6418355,5.27421631 21.95095,4.99842956 20.8129682,4.84998389 C19.8504413,4.72442568 18.9089114,4.6954888 16.3200033,4.69256784 L9.99867897,4.69233768 C7.16636232,4.69332844 6.18805438,4.71940316 5.18703259,4.84998379 C4.04905845,4.99842948 3.35816246,5.27421804 2.85104924,5.7662437 C2.34393509,6.25827866 2.05969212,6.92862492 1.90669577,8.03275162 L1.87642181,8.26636026 C1.77269271,9.12821067 1.74730272,10.0858032 1.74446883,12.3800316 L1.74421696,15.2987168 C1.7451564,17.8269316 1.76797792,18.8326077 1.87642193,19.733639 L1.90669587,19.9672491 C2.0596922,21.0713833 2.3439333,21.7417194 2.85105187,22.233725 C3.35817059,22.7257686 4.04906407,23.0015632 5.18703551,23.1500124 C6.13282203,23.2733909 7.05833298,23.3034758 9.54645639,23.3072559 L15.8255814,23.3076923 C16.3072251,23.3076923 16.6976744,23.6865283 16.6976744,24.1538462 C16.6976744,24.621164 16.3072251,25 15.8255814,25 L10.1744186,25 C7.11295631,25 6.08635079,24.9748635 4.95462147,24.8272287 C3.4689733,24.6334249 2.43032773,24.2188127 1.61773925,23.43038 C0.80512011,22.6419782 0.377804163,21.6342235 0.178062849,20.1927432 L0.161671045,20.0710494 L0.131882362,19.8276486 C0.0297538084,18.9305048 0.00404311833,17.9479086 0.000467229386,15.756636 L0.000467226364,12.2433609 C0.00404309421,10.0520783 0.0297536646,9.06948769 0.131882383,8.17234873 L0.161671119,7.92894919 C0.16696528,7.88845441 0.172427526,7.8479252 0.178062955,7.80725607 C0.377802418,6.36579903 0.805112734,5.35804895 1.61772346,4.56960145 C2.43033586,3.78116579 3.46897891,3.36656522 4.95462439,3.17276672 L5,3.166 L5,1.75 C5,1.33578644 5.44771525,1 6,1 C6.55228475,1 7,1.33578644 7,1.75 L6.99953184,3.02633848 C7.63892376,3.0087879 8.43810271,3.00212569 9.52671971,3.00045333 L16.4732771,3.00045333 C16.657413,3.00073621 16.833268,3.00116185 17.0014694,3.0017588 L17,1.75 C17,1.33578644 17.4477153,1 18,1 Z M19,17 C19.5523,17 20,17.4477 20,18 C20,18.5523 19.5523,19 19,19 C18.4477,19 18,18.5523 18,18 C18,17.4477 18.4477,17 19,17 Z M13,17 C13.5523,17 14,17.4477 14,18 C14,18.5523 13.5523,19 13,19 C12.4477,19 12,18.5523 12,18 C12,17.4477 12.4477,17 13,17 Z M7,17 C7.55228,17 8,17.4477 8,18 C8,18.5523 7.55228,19 7,19 C6.44772,19 6,18.5523 6,18 C6,17.4477 6.44772,17 7,17 Z M19,13 C19.5523,13 20,13.4477 20,14 C20,14.5523 19.5523,15 19,15 C18.4477,15 18,14.5523 18,14 C18,13.4477 18.4477,13 19,13 Z M13,13 C13.5523,13 14,13.4477 14,14 C14,14.5523 13.5523,15 13,15 C12.4477,15 12,14.5523 12,14 C12,13.4477 12.4477,13 13,13 Z M7,13 C7.55228,13 8,13.4477 8,14 C8,14.5523 7.55228,15 7,15 C6.44772,15 6,14.5523 6,14 C6,13.4477 6.44772,13 7,13 Z M19,9 C19.5523,9 20,9.4477 20,10 C20,10.5523 19.5523,11 19,11 C18.4477,11 18,10.5523 18,10 C18,9.4477 18.4477,9 19,9 Z M13,9 C13.5523,9 14,9.4477 14,10 C14,10.5523 13.5523,11 13,11 C12.4477,11 12,10.5523 12,10 C12,9.4477 12.4477,9 13,9 Z M7,9 C7.55228,9 8,9.4477 8,10 C8,10.5523 7.55228,11 7,11 C6.44772,11 6,10.5523 6,10 C6,9.4477 6.44772,9 7,9 Z" id="Combined-Shape" fill="#000000" fill-rule="nonzero"></path>
    </g>
</svg>