<?xml version="1.0" encoding="UTF-8"?>
<svg width="26px" height="26px" viewBox="0 0 26 26" version="1.1" xmlns="http://www.w3.org/2000/svg" xmlns:xlink="http://www.w3.org/1999/xlink">
    <title>app-icons/comments</title>
    <g id="app-icons/comments" stroke="none" stroke-width="1" fill="none" fill-rule="evenodd">
        <path d="M14.3141487,23.4793453 L15.0946324,23.9057649 L14.3141487,23.4793453 Z M14.9697114,22.456943 L14.1891068,22.0305234 L14.9697114,22.456943 Z M11.0302883,22.456943 L10.2497925,22.8834742 L10.2497925,22.8834742 L11.0302883,22.456943 Z M11.6858511,23.4793453 L12.4663348,23.0529257 L11.6858511,23.4793453 Z M2.52132281e-07,11.3256057 C2.52132281e-07,11.7879695 0.406071868,12.1628169 0.90697697,12.1628169 C1.40788207,12.1628169 1.81395369,11.7879695 1.81395369,11.3256057 L2.52132281e-07,11.3256057 Z M2.20517507,17.0481119 C2.01348856,16.6209109 1.48293137,16.4180825 1.02015557,16.5950132 C0.557379771,16.7719438 0.337613265,17.2616566 0.529299771,17.6888576 L2.20517507,17.0481119 Z M7.90832932,20.8045113 L7.89270514,21.6414992 L7.90832932,20.8045113 Z M4.63958523,20.3891429 L4.29250338,21.1626144 L4.29250338,21.1626144 L4.63958523,20.3891429 Z M24.6327623,17.3684847 L25.4706879,17.6888576 L25.4706879,17.6888576 L24.6327623,17.3684847 Z M18.0916462,20.8045113 L18.0760462,19.9674116 L18.0916462,20.8045113 Z M21.3603903,20.3891429 L21.7074601,21.1626144 L21.7074601,21.1626144 L21.3603903,20.3891429 Z M22.2058135,2.65968801 L21.731888,3.37352779 L22.2058135,2.65968801 Z M24.2020088,4.50234528 L24.9753577,4.06489683 L24.9753577,4.06489683 L24.2020088,4.50234528 Z M3.79419828,2.65968801 L3.3202969,1.94584822 L3.3202969,1.94584822 L3.79419828,2.65968801 Z M1.7979909,4.50234528 L1.02466627,4.06489683 L1.02466627,4.06489683 L1.7979909,4.50234528 Z M9.85918787,21.0481955 L10.3151795,20.3245101 L10.3151795,20.3245101 L9.85918787,21.0481955 Z M15.0946324,23.9057649 L15.7501951,22.8834742 L14.1891068,22.0305234 L13.533544,23.0529257 L15.0946324,23.9057649 Z M10.2497925,22.8834742 L10.9053674,23.9057649 L12.4663348,23.0529257 L11.810772,22.0305234 L10.2497925,22.8834742 Z M13.533544,23.0529257 C13.3005115,23.416387 12.6994882,23.416387 12.4663348,23.0529257 L10.9053674,23.9057649 C11.8408836,25.364745 14.1591161,25.364745 15.0946324,23.9057649 L13.533544,23.0529257 Z M11.1860464,2.67442293 L14.8139533,2.67442293 L14.8139533,1.00000046 L11.1860464,1.00000046 L11.1860464,2.67442293 Z M24.186046,11.3256057 L24.186046,12.4418873 L25.9999995,12.4418873 L25.9999995,11.3256057 L24.186046,11.3256057 Z M7.92395351,19.9674116 C6.40574704,19.9431883 5.61023171,19.8541091 4.98666708,19.6156713 L4.29250338,21.1626144 C5.26595545,21.5347827 6.37469216,21.6173875 7.89270514,21.6414992 L7.92395351,19.9674116 Z M0.529299771,17.6888576 C1.23503649,19.2615868 2.58870529,20.5111524 4.29250338,21.1626144 L4.98667917,19.6156713 C3.72734805,19.1341074 2.72680761,18.2106076 2.20517507,17.0481119 L0.529299771,17.6888576 Z M24.186046,12.4418873 C24.186046,13.7536299 24.1855623,14.6955483 24.13066,15.4387686 C24.0762414,16.1745099 23.9715158,16.6542877 23.7948368,17.0481119 L25.4706879,17.6888576 C25.7542693,17.0570421 25.8796739,16.3737662 25.9403809,15.552741 C26.0004832,14.7393066 25.9999995,13.7307461 25.9999995,12.4418873 L24.186046,12.4418873 Z M18.1072462,21.6414992 C19.6252834,21.6173875 20.7340927,21.5347827 21.7074601,21.1626144 L21.0133206,19.6156713 C20.3898043,19.8541091 19.5942043,19.9431883 18.0760462,19.9674116 L18.1072462,21.6414992 Z M23.7948368,17.0481119 C23.2731438,18.2106076 22.272688,19.1341074 21.0133206,19.6156713 L21.7074601,21.1626144 C23.4112461,20.5111524 24.7649391,19.2615868 25.4706879,17.6888576 L23.7948368,17.0481119 Z M14.8139533,2.67442293 C16.8107532,2.67442293 18.2447439,2.67530479 19.3632276,2.7734706 C20.468288,2.87045315 21.1713764,3.05644799 21.731888,3.37352779 L22.6797391,1.94584822 C21.7861857,1.44045171 20.7726694,1.2152084 19.5349485,1.10657187 C18.3106509,0.999118597 16.7756835,1.00000034 14.8139533,1.00000034 L14.8139533,2.67442293 Z M25.9999997,11.3256057 C25.9999997,9.51478475 26.0009669,8.0978773 25.8845111,6.96776492 C25.766846,5.82519484 25.5228088,4.88962804 24.9753577,4.06489683 L23.42866,4.93978257 C23.7722228,5.4572126 23.9736926,6.10625224 24.0787809,7.12625459 C24.1850786,8.15871465 24.186046,9.48235677 24.186046,11.3256057 L25.9999997,11.3256057 Z M21.731888,3.37352779 C22.423488,3.76471753 23.0049205,4.30142575 23.42866,4.93978257 L24.9753577,4.06489683 C24.4020274,3.20124089 23.6153763,2.47509968 22.6797391,1.94584822 L21.731888,3.37352779 Z M11.1860464,1.00000023 C9.22432835,1.00000023 7.68934886,0.999118597 6.46506332,1.10657187 C5.22728196,1.2152084 4.21375362,1.44045171 3.3202969,1.94584822 L4.26808757,3.37352779 C4.82863546,3.05644799 5.53176009,2.87045315 6.63676006,2.7734706 C7.75525584,2.67530479 9.18919812,2.67442293 11.1860464,2.67442293 L11.1860464,1.00000023 Z M1.81395369,11.3256057 C1.81395369,9.48235677 1.81490904,8.15871465 1.92125508,7.12625459 C2.02631926,6.10625224 2.22781321,5.4572126 2.57131552,4.93978257 L1.02466627,4.06489683 C0.477154657,4.88962804 0.233141641,5.82519484 0.115452342,6.96776492 C-0.000955096677,8.0978773 1.26041357e-07,9.51478475 1.26041357e-07,11.3256057 L1.81395369,11.3256057 Z M3.3202969,1.94584822 C2.38467181,2.47509968 1.59802067,3.20124089 1.02466627,4.06489683 L2.57131552,4.93978257 C2.99510342,4.30142575 3.57653596,3.76471753 4.26808757,3.37352779 L3.3202969,1.94584822 Z M11.810772,22.0305234 C11.5652836,21.6476388 11.349786,21.3097403 11.1402139,21.0442886 C10.9193953,20.7647716 10.6662883,20.5130501 10.3151795,20.3245101 L9.40319625,21.7719926 C9.46052927,21.8026903 9.53863811,21.8588393 9.67423718,22.0305234 C9.82101019,22.2164959 9.98684182,22.4733523 10.2497925,22.8834742 L11.810772,22.0305234 Z M7.89270514,21.6414992 C8.42369768,21.649983 8.76002883,21.6562341 9.01641301,21.6823551 C9.25598789,21.7069133 9.34885021,21.742746 9.40319625,21.7719926 L10.3151795,20.3245101 C9.96114414,20.1344074 9.59274229,20.0566026 9.21605672,20.0180908 C8.85619255,19.9813652 8.42127907,19.9753372 7.92395351,19.9674116 L7.89270514,21.6414992 Z M15.7501951,22.8834742 C16.0130975,22.4733523 16.1788928,22.2164959 16.3257021,22.0305234 C16.4612649,21.8588393 16.5393858,21.8026903 16.5967067,21.7719926 L15.6847719,20.3245101 C15.3337114,20.5130501 15.0804835,20.7647716 14.8597859,21.0442886 C14.6502138,21.3097403 14.4347161,21.6476388 14.1891068,22.0305234 L15.7501951,22.8834742 Z M18.0760462,19.9674116 C17.5786602,19.9753372 17.1437951,19.9813652 16.7839067,20.0180908 C16.4072091,20.0566026 16.0388556,20.1344074 15.6847719,20.3245101 L16.5967067,21.7719926 C16.6511253,21.742746 16.7439998,21.7069133 16.9835625,21.6823551 C17.2399346,21.6562341 17.5762416,21.649983 18.1072462,21.6414992 L18.0760462,19.9674116 Z" id="Combined-Shape" fill="#000000" fill-rule="nonzero"></path>
        <path d="M16.1315789,8 C16.6111947,8 17,8.44771525 17,9 C17,9.55228475 16.6111947,10 16.1315789,10 L6.86842105,10 C6.38880535,10 6,9.55228475 6,9 C6,8.44771525 6.38880535,8 6.86842105,8 L16.1315789,8 Z" id="Path" fill="#000000" fill-rule="nonzero"></path>
        <path d="M13.0769231,13 C13.5867244,13 14,13.4477153 14,14 C14,14.5522847 13.5867244,15 13.0769231,15 L6.92307692,15 C6.41327562,15 6,14.5522847 6,14 C6,13.4477153 6.41327562,13 6.92307692,13 L13.0769231,13 Z" id="Path" fill="#000000" fill-rule="nonzero"></path>
    </g>
</svg>