<?xml version="1.0" encoding="UTF-8"?>
<svg width="26px" height="26px" viewBox="0 0 26 26" version="1.1" xmlns="http://www.w3.org/2000/svg" xmlns:xlink="http://www.w3.org/1999/xlink">
    <title>app-icons/email@2x</title>
    <g id="app-icons/email" stroke="none" stroke-width="1" fill="none" fill-rule="evenodd">
        <path d="M19.0465116,2 C20.9995349,2 22.7656,2.4881107 24.0473395,3.6783907 C25.3414139,4.87997767 26,6.66433952 26,8.95348838 L26,17.4186046 C26,19.7078139 25.3414139,21.4921395 24.0473395,22.6937023 C22.7656,23.8840186 20.9995349,24.372093 19.0465116,24.372093 L6.95348838,24.372093 C5.00050138,24.372093 3.23446046,23.8840186 1.95261209,22.6937023 C0.658610232,21.4921395 0,19.7078139 0,17.4186046 L0,8.95348838 C0,6.66433952 0.658610232,4.87997767 1.95261209,3.6783907 C3.23446046,2.4881107 5.00050138,2 6.95348838,2 L19.0465116,2 Z M19.0465116,3.81395349 L6.95348838,3.81395349 C5.27856837,3.81395349 4.02135349,4.23281954 3.18692279,5.00765581 C2.36464558,5.7711851 1.81395349,7.01007906 1.81395349,8.95348838 L1.81395349,17.4186046 C1.81395349,19.3619535 2.36464558,20.6008837 3.18692279,21.3644372 C4.02135349,22.1392372 5.27856837,22.5581395 6.95348838,22.5581395 L19.0465116,22.5581395 C20.7213954,22.5581395 21.978586,22.1392372 22.8131256,21.3644372 C23.6353302,20.6008837 24.1860465,19.3619535 24.1860465,17.4186046 L24.1860465,8.95348838 C24.1860465,7.01007906 23.6353302,5.7711851 22.8131256,5.00765581 C21.978586,4.23281954 20.7213954,3.81395349 19.0465116,3.81395349 Z M21.9044558,7.51473303 C22.2107721,7.91109395 22.1377302,8.48069954 21.7414418,8.78696745 L15.0333209,13.9704 C13.8356279,14.8957581 12.1642512,14.8957581 10.9665581,13.9704 L4.25848557,8.78696745 C3.86211257,8.48069954 3.7890828,7.91109395 4.09536279,7.51473303 C4.40164278,7.11836 4.97123629,7.04533023 5.36760929,7.35161022 L12.0756093,12.5349581 C12.6200372,12.9556744 13.3798418,12.9556744 13.9241488,12.5349581 L20.6322698,7.35161022 C21.0286791,7.04533023 21.5982605,7.11836 21.9044558,7.51473303 Z" id="Combined-Shape" fill="#000000" fill-rule="nonzero"></path>
    </g>
</svg>