<svg fill="none" height="24" viewBox="0 0 24 24" width="24" xmlns="http://www.w3.org/2000/svg"><path d="m8.85001 17.825 3.14999-1.9 3.15 1.925-.825-3.6 2.775-2.4-3.65-.325-1.45-3.40005-1.45 3.37505-3.64999.325 2.775 2.425zm3.14999.45-4.14999 2.5c-.18333.1166-.375.1666-.575.15-.2-.0167-.375-.0834-.525-.2-.15-.1167-.26666-.2625-.34999-.4375-.08334-.175-.1-.3709-.05-.5875l1.09999-4.725-3.67499-3.175c-.16667-.15-.27084-.3209-.3125-.5125-.04167-.1917-.02917-.3792.0375-.5625.06666-.1834.16666-.3334.3-.45.13333-.1167.31666-.1917.55-.225l4.84999-.42505 1.87499-4.45c.0833-.2.2125-.35.3875-.45s.3542-.15.5375-.15.3625.05.5375.15.3042.25.3875.45l1.875 4.45 4.85.42505c.2333.0333.4167.1083.55.225.1333.1166.2333.2666.3.45.0667.1833.0792.3708.0375.5625-.0417.1916-.1458.3625-.3125.5125l-3.675 3.175 1.1 4.725c.05.2166.0333.4125-.05.5875s-.2.3208-.35.4375c-.15.1166-.325.1833-.525.2-.2.0166-.3917-.0334-.575-.15z" fill="#9c9c9c"/></svg>