<svg width="48" height="48" viewBox="0 0 48 48" fill="none" xmlns="http://www.w3.org/2000/svg">
<path d="M10.3929 26.3996C9.73097 26.3996 9.16667 26.1639 8.7 25.6925C8.23333 25.2211 8 24.6545 8 23.9925C8 23.3306 8.2357 22.7663 8.7071 22.2996C9.17847 21.8329 9.74513 21.5996 10.4071 21.5996C11.069 21.5996 11.6333 21.8353 12.1 22.3067C12.5667 22.7781 12.8 23.3447 12.8 24.0067C12.8 24.6686 12.5643 25.2329 12.0929 25.6996C11.6215 26.1663 11.0549 26.3996 10.3929 26.3996ZM23.9929 26.3996C23.331 26.3996 22.7667 26.1639 22.3 25.6925C21.8333 25.2211 21.6 24.6545 21.6 23.9925C21.6 23.3306 21.8357 22.7663 22.3071 22.2996C22.7785 21.8329 23.3451 21.5996 24.0071 21.5996C24.669 21.5996 25.2333 21.8353 25.7 22.3067C26.1667 22.7781 26.4 23.3447 26.4 24.0067C26.4 24.6686 26.1643 25.2329 25.6929 25.6996C25.2215 26.1663 24.6549 26.3996 23.9929 26.3996ZM37.5929 26.3996C36.931 26.3996 36.3667 26.1639 35.9 25.6925C35.4333 25.2211 35.2 24.6545 35.2 23.9925C35.2 23.3306 35.4357 22.7663 35.9071 22.2996C36.3785 21.8329 36.9451 21.5996 37.6071 21.5996C38.269 21.5996 38.8333 21.8353 39.3 22.3067C39.7667 22.7781 40 23.3447 40 24.0067C40 24.6686 39.7643 25.2329 39.2929 25.6996C38.8215 26.1663 38.2549 26.3996 37.5929 26.3996Z" fill="#9C9C9C"/>
</svg>
