<?xml version="1.0" encoding="UTF-8"?>
<svg width="874px" height="718px" viewBox="0 0 874 718" version="1.1" xmlns="http://www.w3.org/2000/svg" xmlns:xlink="http://www.w3.org/1999/xlink">
    <title>icon-nobell</title>
    <g id="Page-1" stroke="none" stroke-width="1" fill="none" fill-rule="evenodd">
        <g id="icon-nobell" transform="translate(30, 0.6667)">
            <path d="M143.007619,216.685688 L189.831823,249.994868 C189.722948,252.760841 189.668,255.54067 189.668,258.333333 L189.668,281.803333 C189.668,314.906667 179.869667,347.266667 161.508,374.81 L123.221333,432.24 C97.7156667,470.496667 117.187,522.5 161.548,534.6 C305.450595,573.845655 456.681617,576.610461 601.615162,542.894418 L654.7132,580.664764 C652.388348,581.454457 650.020261,582.17937 647.61,582.836667 C622.423333,589.706667 597.02,595.516667 571.473333,600.27 L571.41,600.44 C545.776667,668.836667 477.266667,716.666667 398,716.666667 C318.732667,716.666667 250.222333,668.836667 224.589333,600.44 L224.526,600.27 C198.979,595.516667 173.579333,589.706667 148.392333,582.836667 C71.106,561.76 37.1823333,471.16 81.6186667,404.503333 L119.905667,347.073333 C132.791667,327.746667 139.668,305.033333 139.668,281.803333 L139.668,258.333333 C139.668,244.155007 140.810205,230.24346 143.007619,216.685688 Z M285.449667,609.563333 C309.148,643.616667 350.366667,666.666667 398,666.666667 C445.63,666.666667 486.85,643.616667 510.546667,609.566667 C435.783333,618.5 360.213333,618.496667 285.449667,609.563333 Z M398,0 C540.673333,0 656.333333,115.659667 656.333333,258.333333 L656.333333,281.803333 C656.333333,305.033333 663.21,327.746667 676.096667,347.073333 L714.383333,404.503333 C731.899516,430.778265 737.240098,460.773519 732.548564,488.764422 L682.026523,452.829101 C680.195517,445.742618 677.146938,438.789837 672.78,432.24 L634.493333,374.81 C616.133333,347.266667 606.333333,314.906667 606.333333,281.803333 L606.333333,258.333333 C606.333333,143.274 513.06,50 398,50 C330.161078,50 269.895051,82.4253618 231.855088,132.623187 L191.094265,103.628429 C238.210985,40.714185 313.351032,0 398,0 Z" id="Combined-Shape" fill="#999999" fill-rule="nonzero" opacity="0.98999995"></path>
            <line x1="0" y1="41.3333333" x2="814" y2="620.333333" id="Line" stroke="#2D2D2D" stroke-width="60" stroke-linecap="round"></line>
        </g>
    </g>
</svg>