<?xml version="1.0" encoding="UTF-8"?>
<svg width="718px" height="618px" viewBox="0 0 718 618" version="1.1" xmlns="http://www.w3.org/2000/svg" xmlns:xlink="http://www.w3.org/1999/xlink">
    <title>icon-email</title>
    <g id="Page-1" stroke="none" stroke-width="1" fill="none" fill-rule="evenodd">
        <g id="icon-email" transform="translate(0.6667, 0.6667)" fill="#2B2D2F">
            <path d="M87.8446667,82.9033333 C65.1793333,103.949333 50,138.098333 50,191.666667 L50,425 C50,478.566667 65.1793333,512.716667 87.8446667,533.763333 C110.845,555.12 145.499,566.666667 191.666667,566.666667 L525,566.666667 C571.166667,566.666667 605.82,555.12 628.823333,533.763333 C651.486667,512.716667 666.666667,478.566667 666.666667,425 L666.666667,191.666667 C666.666667,138.098333 651.486667,103.949333 628.823333,82.9033333 C605.82,61.5456667 571.166667,50 525,50 L191.666667,50 C145.499,50 110.845,61.5456667 87.8446667,82.9033333 Z M53.822,46.2633333 C89.155,13.4543333 137.834333,0 191.666667,0 L525,0 C578.833333,0 627.513333,13.4543333 662.843333,46.2633333 C698.513333,79.384 716.666667,128.568333 716.666667,191.666667 L716.666667,425 C716.666667,488.1 698.513333,537.283333 662.843333,570.403333 C627.513333,603.213333 578.833333,616.666667 525,616.666667 L191.666667,616.666667 C137.834333,616.666667 89.155,603.213333 53.822,570.403333 C18.154,537.283333 0,488.1 0,425 L0,191.666667 C0,128.568333 18.154,79.384 53.822,46.2633333 Z" id="vector-(Stroke)"></path>
            <path d="M603.776667,152.008667 C612.22,162.934 610.206667,178.634667 599.283333,187.076667 L414.38,329.953333 C381.366667,355.46 335.296667,355.46 302.283333,329.953333 L117.381333,187.076667 C106.455667,178.634667 104.442667,162.934 112.885,152.008667 C121.327333,141.083 137.027667,139.07 147.953333,147.512333 L332.853333,290.386667 C347.86,301.983333 368.803333,301.983333 383.806667,290.386667 L568.71,147.512333 C579.636667,139.07 595.336667,141.083 603.776667,152.008667 Z" id="vector-(Stroke)_2"></path>
        </g>
    </g>
</svg>