<?xml version="1.0" encoding="UTF-8"?>
<svg width="26px" height="26px" viewBox="0 0 26 26" version="1.1" xmlns="http://www.w3.org/2000/svg" xmlns:xlink="http://www.w3.org/1999/xlink">
    <title>app-icons/buiness-core@2x</title>
    <g id="app-icons/buiness-core" stroke="none" stroke-width="1" fill="none" fill-rule="evenodd">
        <path d="M13,0.125 C20.1106662,0.125 25.875,5.88933385 25.875,13 C25.875,14.3401716 25.6699106,15.6537361 25.2714143,16.9065366 C24.813922,18.3448098 24.106135,19.6876606 23.1845322,20.8775406 C22.8886186,21.2595941 22.3390177,21.3294244 21.9569641,21.0335108 C21.5749106,20.7375972 21.5050803,20.1879963 21.8009939,19.8059428 C22.5974463,18.7776443 23.208775,17.6177994 23.6037473,16.3760777 C23.9478416,15.2943074 24.125,14.159636 24.125,13 C24.125,6.85583216 19.1441678,1.875 13,1.875 C6.85583216,1.875 1.875,6.85583216 1.875,13 C1.875,19.1441678 6.85583216,24.125 13,24.125 C14.8787667,24.125 16.6882522,23.6594776 18.3018648,22.7829898 C18.7265119,22.5523285 19.2577443,22.709585 19.4884055,23.1342321 C19.7190668,23.5588791 19.5618103,24.0901115 19.1371633,24.3207728 C17.2687344,25.3356726 15.1723688,25.875 13,25.875 C5.88933385,25.875 0.125,20.1106662 0.125,13 C0.125,5.88933385 5.88933385,0.125 13,0.125 Z" id="Path" fill="#000000" fill-rule="nonzero"></path>
        <path d="M13,4.125 C17.9015272,4.125 21.875,8.09847285 21.875,13 C21.875,17.9015272 17.9015272,21.875 13,21.875 C12.5167508,21.875 12.125,21.4832492 12.125,21 C12.125,20.5167508 12.5167508,20.125 13,20.125 C16.9350288,20.125 20.125,16.9350288 20.125,13 C20.125,9.06497116 16.9350288,5.875 13,5.875 C9.06497116,5.875 5.875,9.06497116 5.875,13 C5.875,15.7702324 7.46987213,18.2524464 9.92440613,19.4290561 C10.3601748,19.6379469 10.5440957,20.1605467 10.3352048,20.5963154 C10.126314,21.0320841 9.60371416,21.216005 9.16794546,21.0071141 C6.11177333,19.5421021 4.125,16.4499442 4.125,13 C4.125,8.09847285 8.09847285,4.125 13,4.125 Z" id="Oval" fill="#000000" fill-rule="nonzero"></path>
        <circle id="Oval" fill="#000000" cx="13" cy="13" r="4"></circle>
    </g>
</svg>