<?xml version="1.0" encoding="UTF-8"?>
<svg width="26px" height="26px" viewBox="0 0 26 26" version="1.1" xmlns="http://www.w3.org/2000/svg" xmlns:xlink="http://www.w3.org/1999/xlink">
    <title>app-icons/collaborate@2x</title>
    <g id="app-icons/collaborate" stroke="none" stroke-width="1" fill="none" fill-rule="evenodd">
        <path d="M14.2981283,9.1309966 C16.9331248,8.9918171 19.1719613,11.2057707 19.3918416,14.1113976 C19.3941973,14.1432702 19.3941973,14.1432702 19.3963292,14.1751573 C19.4872877,15.5723839 19.5329143,16.7202604 19.5329143,17.6217324 C19.5329143,18.5230937 19.4873192,19.6043963 19.396424,20.8677832 C19.1936308,23.6765395 17.095392,25.8775357 14.5243029,25.8750044 L5.7694028,25.8750044 C3.16068539,25.8745749 1.04844558,23.6101555 0.894586484,20.7572517 C0.820149703,19.3655238 0.782914274,18.0457028 0.782914274,16.7979096 C0.782914274,16.0023258 0.798051281,15.2067711 0.828324973,14.4112515 L0.840939779,14.1833765 C1.05616779,11.3078795 3.26576319,9.07068845 5.92224353,9.2002784 C5.982889,9.20323685 6.04347715,9.20745209 6.10397615,9.21292169 L6.11691427,9.21500003 L6.77893615,9.26775701 C7.46112897,9.31630668 8.16647469,9.34667739 8.89494821,9.35882838 L9.63113006,9.36490464 C10.1143792,9.36490464 10.5061301,9.75665548 10.5061301,10.2399046 C10.5061301,10.7231538 10.1143792,11.1149046 9.63113006,11.1149046 C8.33965408,11.1149046 7.11128073,11.0619828 5.94589372,10.9559504 L5.89171603,10.9514391 L5.83697542,10.9481998 C4.13882515,10.8653597 2.6541901,12.4186521 2.57688731,14.4773491 L2.57691427,14.466 L2.57705917,14.4778 C2.55743915,14.993367 2.5443592,15.5089417 2.53781924,16.0245259 L2.53291427,16.7979096 C2.53291427,18.0136169 2.56927319,19.3023699 2.64206791,20.6633981 C2.74819556,22.6312493 4.1413117,24.1247347 5.7695454,24.125 L14.5251657,24.1250005 C16.1295706,24.1265825 17.5112234,22.6772657 17.6509516,20.7419817 C17.7390303,19.5177421 17.7829143,18.4770185 17.7829143,17.6217324 C17.7829143,16.7631675 17.7387162,15.6512284 17.6500254,14.2888366 C17.6485076,14.2661348 17.6485076,14.2661348 17.6468309,14.2434495 C17.4917803,12.1945199 15.9558066,10.7218372 14.2659035,10.8879757 C13.7773145,10.93601 13.3448333,10.5727446 13.3077875,10.0831998 L13.3062939,9.97311441 C13.3275774,9.53882791 13.669453,9.17820289 14.1142574,9.14454278 L14.0939143,9.14800003 L14.1069143,9.14600003 L14.1199143,9.14500003 L14.2981283,9.1309966 Z" id="Path" fill="#000000" fill-rule="nonzero" transform="translate(10.1579, 17.4999) scale(-1, 1) translate(-10.1579, -17.4999)"></path>
        <path d="M20.0947222,9.14624143 C22.8170265,8.87876136 25.1663258,11.1312995 25.3918416,14.1113976 C25.3941973,14.1432702 25.3941973,14.1432702 25.3963292,14.1751573 C25.4872877,15.5723839 25.5329143,16.7202604 25.5329143,17.6217324 C25.5329143,18.5230937 25.4873192,19.6043963 25.396424,20.8677832 C25.1936309,23.6765385 23.0953932,25.8775349 20.5234415,25.8750053 C20.0401926,25.8745274 19.6488276,25.4823911 19.6493033,24.9991422 C19.649779,24.5158932 20.0419153,24.1245282 20.5251642,24.1250039 C22.1295704,24.1265833 23.5112234,22.6772655 23.6509516,20.7419817 C23.7390303,19.5177421 23.7829143,18.4770185 23.7829143,17.6217324 C23.7829143,16.7631675 23.7387162,15.6512284 23.6500254,14.2888366 C23.6485076,14.2661348 23.6485076,14.2661348 23.6468309,14.2434495 C23.4917808,12.1945267 21.9557995,10.7218082 20.2658445,10.8878548 C19.7849112,10.9351089 19.3567308,10.5835425 19.3094767,10.1026093 C19.2622226,9.621676 19.613789,9.19349554 20.0947222,9.14624143 Z" id="Path-Copy" fill="#000000" fill-rule="nonzero"></path>
        <path d="M9,0 C11.4852814,0 13.5,2.01471863 13.5,4.5 C13.5,6.98528137 11.4852814,9 9,9 C6.51471863,9 4.5,6.98528137 4.5,4.5 C4.5,2.01471863 6.51471863,0 9,0 Z M9,2 C7.61928813,2 6.5,3.11928813 6.5,4.5 C6.5,5.88071187 7.61928813,7 9,7 C10.3807119,7 11.5,5.88071187 11.5,4.5 C11.5,3.11928813 10.3807119,2 9,2 Z" id="Oval" fill="#000000" fill-rule="nonzero"></path>
        <path d="M19,0 C21.4852814,0 23.5,2.01471863 23.5,4.5 C23.5,6.98528137 21.4852814,9 19,9 C16.5147186,9 14.5,6.98528137 14.5,4.5 C14.5,2.01471863 16.5147186,0 19,0 Z M19,2 C17.6192881,2 16.5,3.11928813 16.5,4.5 C16.5,5.88071187 17.6192881,7 19,7 C20.3807119,7 21.5,5.88071187 21.5,4.5 C21.5,3.11928813 20.3807119,2 19,2 Z" id="Oval-Copy-2" fill="#000000" fill-rule="nonzero"></path>
        <circle id="Oval" fill="#000000" cx="9" cy="14" r="1"></circle>
        <circle id="Oval-Copy" fill="#000000" cx="9" cy="18" r="1"></circle>
    </g>
</svg>