<?xml version="1.0" encoding="UTF-8"?>
<svg width="26px" height="26px" viewBox="0 0 26 26" version="1.1" xmlns="http://www.w3.org/2000/svg" xmlns:xlink="http://www.w3.org/1999/xlink">
    <title>app-icons/extraction@2x</title>
    <g id="app-icons/extraction" stroke="none" stroke-width="1" fill="none" fill-rule="evenodd">
        <path d="M16.7839068,0.11703052 L16.8370212,0.123562339 C16.8812802,0.129101296 16.9255595,0.134881024 16.9700685,0.140911522 C18.1648015,0.302785274 19.0135711,0.654686191 19.6819489,1.32822981 C20.350332,2.00177888 20.6995363,2.85712992 20.8601691,4.06113435 C20.9798542,4.95821957 21,5.762717 21,8.1627907 C21,8.66370012 20.5970563,9.06976744 20.1,9.06976744 C19.6029437,9.06976744 19.2,8.66370012 19.2,8.1627907 C19.2,5.85977882 19.1806044,5.08523909 19.0762209,4.30284495 C18.9638291,3.46042576 18.762277,2.96673824 18.4091711,2.61090322 C18.0560601,2.255063 17.5661617,2.05195051 16.7302215,1.93868941 C15.9693761,1.83560286 15.2160196,1.81476957 13.0353086,1.81397747 L7.96469001,1.81397747 C5.78395612,1.81476957 5.0305929,1.83560286 4.26974347,1.93868948 C3.43380195,2.05195024 2.94390972,2.25506111 2.5908121,2.61089592 C2.23771448,2.96673073 2.03616601,3.46042057 1.92377649,4.30284225 L1.89785549,4.51285454 C1.82588516,5.14884859 1.80479654,5.86778963 1.80077761,7.46165306 L1.80012258,17.8345522 C2.21743373,17.53303 2.68609485,17.303166 3.19052867,17.1613131 C3.48472188,17.0785999 3.79537596,17.0366778 4.20419084,17.0171149 C4.22029688,17.0163442 4.23629182,17.0156072 4.25225722,17.0149025 L4.27140676,17.0140722 C4.2777887,17.0138006 4.28417113,17.0135341 4.29055928,17.0132725 L4.31936218,17.0121288 C4.33219629,17.0116352 4.34508459,17.011161 4.35806888,17.0107055 L4.3776225,17.0100361 C4.54452891,17.0044641 4.7304322,17.0018704 5.02191064,17.0007542 L19.2,17 L19.2,16 C19.2,15.4990906 19.6029437,15.0930233 20.1,15.0930233 C20.5970563,15.0930233 21,15.4990906 21,16 L21,17.9087338 C20.9995871,20.2533579 20.9786573,21.0507207 20.8601691,21.9388314 C20.6995365,23.1428284 20.3503336,23.99818 19.6819561,24.6717387 C19.0135786,25.3452974 18.1648067,25.6972073 16.9700712,25.8590851 C16.0798903,25.979698 15.2815876,26 12.9,26 C12.4029437,26 12,25.5939327 12,25.0930233 C12,24.5921138 12.4029437,24.1860465 12.9,24.1860465 L13.0353085,24.1860225 C15.1270099,24.1852627 15.9054982,24.166064 16.6369941,24.0735242 L16.6836337,24.0675172 C16.6991671,24.0654814 16.7146914,24.0634118 16.7302188,24.0613079 C17.5661565,23.9480446 18.0560527,23.7449284 18.4091639,23.3890799 C18.7622751,23.0332314 18.9638289,22.5395376 19.0762209,21.6971197 C19.1627101,21.0488537 19.1908525,20.4059819 19.1979596,18.8945892 L5.48479041,18.8941811 C4.25104017,18.8947932 3.94233107,18.9108943 3.65759795,18.9909477 C2.81993444,19.226509 2.14664662,19.8666324 1.83596816,20.703239 C1.85428306,21.0627902 1.87916085,21.3471727 1.9146098,21.626687 L1.92067041,21.6736515 L1.92377641,21.6971224 C2.03616627,22.5395428 2.23771636,23.0332389 2.59081935,23.3890872 C2.94391718,23.7449303 3.4338071,23.9480449 4.26974615,24.0613079 C5.03059435,24.1643967 5.78395721,24.1852304 7.96469008,24.1860225 L8.1,24.1860465 C8.59705627,24.1860465 9,24.5921138 9,25.0930233 C9,25.5939327 8.59705627,26 8.1,26 C5.71838841,26 4.92007942,25.979698 4.02989485,25.8590852 C2.835152,25.6972071 1.98638058,25.3452958 1.31801265,24.6717314 C0.649650143,23.9981725 0.300456157,23.1428232 0.139827587,21.9388287 C0.133843477,21.8939747 0.128108209,21.8493522 0.122611859,21.8047501 L0.116130285,21.7512239 C0.0724002966,21.3835432 0.0446241578,21.0115198 0.0272489317,20.5170785 L0,20.5097233 L0.0241813365,20.4251147 C0.00820183474,19.9199103 0.00210242878,19.2874202 0.000479971918,18.4127542 L0.000509184881,7.57176933 C0.00425618305,5.62210545 0.0305525097,4.88021371 0.139827515,4.06113705 C0.300456336,2.85713512 0.649651755,2.0017864 1.3180199,1.32823711 C1.98638804,0.654687816 2.83515715,0.302785455 4.02989753,0.140911449 C4.8426736,0.0307893509 5.57885849,0.00428917672 7.51352495,0.00051313205 L13.4711177,0.000483692631 C15.2684201,0.00386947742 16.0352356,0.0266016949 16.7839068,0.11703052 Z" id="Combined-Shape" fill="#000000" fill-rule="nonzero"></path>
        <path d="M14,4 C14.5522847,4 15,4.40294373 15,4.9 L15,18.7486054 C15,19.2456617 14.5522847,19.6486054 14,19.6486054 C13.4477153,19.6486054 13,19.2456617 13,18.7486054 L13,4.9 C13,4.40294373 13.4477153,4 14,4 Z" id="Path-Copy" fill="#000000" fill-rule="nonzero" transform="translate(14, 11.8243) rotate(90) translate(-14, -11.8243)"></path>
        <path d="M22.616458,8.09905456 C22.9564078,7.7753109 23.4944376,7.78844857 23.8181813,8.12839838 C25.2289722,9.60981145 25.957172,10.7988189 25.957172,11.8243027 C25.957172,12.8267009 25.2484874,14.0981208 23.8581373,15.7822666 C23.5592735,16.1442835 23.0235238,16.1954792 22.6615069,15.8966154 C22.29949,15.5977516 22.2482943,15.0620019 22.5471581,14.699985 C23.6961738,13.30817 24.257172,12.3017079 24.257172,11.8243027 C24.257172,11.3699831 23.715689,10.4858476 22.5871142,9.30077788 C22.2633705,8.96082808 22.2765082,8.42279822 22.616458,8.09905456 Z" id="Path-9" fill="#000000" fill-rule="nonzero"></path>
        <path d="M13.0769231,6 C13.5867244,6 14,6.44771525 14,7 C14,7.55228475 13.5867244,8 13.0769231,8 L6.92307692,8 C6.41327562,8 6,7.55228475 6,7 C6,6.44771525 6.41327562,6 6.92307692,6 L13.0769231,6 Z" id="Path" fill="#000000" fill-rule="nonzero"></path>
    </g>
</svg>