<?xml version="1.0" encoding="UTF-8"?>
<svg width="26px" height="26px" viewBox="0 0 26 26" version="1.1" xmlns="http://www.w3.org/2000/svg" xmlns:xlink="http://www.w3.org/1999/xlink">
    <title>app-icons/functional@2x</title>
    <g id="app-icons/functional" stroke="none" stroke-width="1" fill="none" fill-rule="evenodd">
        <path d="M13,0 C13.0205692,0 13.0410129,0 13.0613325,0 L13.2992994,0 C14.8859137,0.00042797109 15.6753399,0.00428996244 16.4314673,0.0197181656 L16.4867454,0.0208678177 C16.5327794,0.0218432583 16.5787588,0.0228624366 16.624857,0.0239271884 L16.6802427,0.0252268833 C16.7172193,0.0261080866 16.7543162,0.027018927 16.791622,0.0279603441 C17.9988058,0.0584238051 18.9413713,0.120003467 19.7555081,0.229461259 C21.6416719,0.483049258 22.946705,1.01996223 23.9633096,2.03661629 C24.6563928,2.72965731 25.1290666,3.56610515 25.4363875,4.61143789 C25.709376,5.53999137 25.858808,6.64394228 25.9322435,8.11765882 C25.957173,8.61794793 25.5718182,9.04372174 25.0715295,9.06865124 C24.5712408,9.09358073 24.1454674,8.70822562 24.1205379,8.2079365 C23.9891604,5.57143049 23.5961874,4.23475709 22.6806553,3.31928063 C21.9817386,2.62032997 21.0383753,2.23221414 19.5138035,2.0272409 C18.7749401,1.92790335 17.8930457,1.87028745 16.7458612,1.84133808 C16.72763,1.84087802 16.7094459,1.8404254 16.691298,1.83998012 L16.6369518,1.83866617 C15.8140149,1.81906821 15.0433465,1.81442062 13.2968862,1.81398966 L12.7031112,1.81398966 C10.879868,1.81443957 10.1200992,1.81948493 9.25411783,1.84133808 C8.10693439,1.87028741 7.22504375,1.92790324 6.48618345,2.02724083 C4.96162117,2.23221373 4.01825385,2.62032987 3.31929094,3.31929815 C2.62032763,4.01825727 2.23221183,4.9616254 2.0272391,6.48618899 C1.92790159,7.22504992 1.87028581,8.10694131 1.84133651,9.25412573 C1.81948337,10.1201079 1.81443802,10.8798773 1.81398812,12.7031221 L1.81398812,13.2968976 C1.81441908,15.0433594 1.81906666,15.8140284 1.8386646,16.636966 L1.83997855,16.6913122 C1.84042383,16.7094602 1.84087645,16.7276443 1.84133651,16.7458755 C1.87028586,17.893061 1.9279017,18.7749561 2.02723917,19.5138201 C2.23221224,21.0383932 2.62032773,21.9817574 3.31930189,22.6806987 C4.01826061,23.3796771 4.96162585,23.7678003 6.48618588,23.9727771 C7.22504544,24.0721167 8.10693547,24.1297336 9.2541183,24.1586835 C10.1292151,24.1807672 10.8958515,24.185687 12.7610422,24.1860452 L13.2389557,24.1860452 C15.1041305,24.185687 15.8707648,24.1807672 16.7458607,24.1586835 C17.8930446,24.1297336 18.7749384,24.0721166 19.5138011,23.9727771 C21.0383706,23.7677999 21.9817318,23.379677 22.6806925,22.680668 C23.3796571,21.9817506 23.7677797,21.0383886 23.9727566,19.5138177 C24.072096,18.7749544 24.129713,17.8930599 24.1586629,16.745875 C24.1807465,15.8707783 24.1856663,15.1041434 24.1860246,13.238967 L24.1860465,13.0000111 C24.1860465,12.4991012 24.5921138,12.0930336 25.0930233,12.0930336 C25.5939327,12.0930336 26,12.4991012 26,13.0000111 L26,13.2409068 C25.9996645,14.8666673 25.9958981,15.6661324 25.9802814,16.4314817 L25.9791318,16.4867599 C25.9789367,16.4959667 25.9787398,16.5051713 25.9785412,16.5143751 L25.9773283,16.5695996 L25.9760723,16.6248716 L25.9747726,16.6802574 C25.9738914,16.717234 25.9729805,16.7543309 25.9720391,16.7916367 C25.941575,17.9988222 25.8799941,18.9413892 25.7705341,19.7555274 C25.5169408,21.6416951 24.9800164,22.9467314 23.9633513,23.963328 C22.9467118,24.9800377 21.6416766,25.5169626 19.7555106,25.7705561 C18.941373,25.8800162 17.9988069,25.9415972 16.7916224,25.9720613 C16.7543166,25.9730027 16.7172198,25.9739136 16.6802432,25.9747948 L16.6248574,25.9760945 L16.5695855,25.9773505 L16.514361,25.9785634 C16.5051572,25.978762 16.4959526,25.9789588 16.4867458,25.9791539 L16.4314677,25.9803036 C15.6661191,25.9959203 14.8666547,25.9996867 13.2408955,26 L12.7591024,26 C11.1333295,25.9996867 10.3338616,25.9959203 9.56851176,25.9803036 L9.51323361,25.9791539 C9.5040268,25.9789588 9.49482216,25.978762 9.48561833,25.9785634 L9.43039378,25.9773505 L9.37512183,25.9760945 L9.31973599,25.9747948 C9.28275935,25.9739136 9.24566245,25.9730027 9.20835661,25.9720613 C8.00117291,25.9415972 7.05861016,25.8800163 6.24447528,25.770556 C4.35832886,25.516964 3.05329901,24.9800432 2.03664964,23.9633652 C1.01996136,22.9467246 0.483048846,21.6416904 0.229461063,19.755525 C0.120003365,18.9413875 0.0584237553,17.9988212 0.0279603203,16.7916363 C0.0270189039,16.7543305 0.0261080644,16.7172336 0.0252268617,16.6802569 L0.023927168,16.6248711 C0.0228624171,16.578773 0.0218432397,16.5327935 0.0208677999,16.4867595 L0.0197181488,16.4314814 C0.00428995878,15.6753533 0.000427970725,14.8859264 0,13.2993108 L0,13.0613436 L0,13.0000111 C0,12.9794417 0,12.9589978 0,12.938678 L0,12.7007089 C0.000427969851,11.1140798 0.00428995108,10.3246496 0.0197181455,9.56852031 L0.0208677969,9.51324213 C0.0230137651,9.4119671 0.0253714239,9.31095605 0.02796032,9.20836494 C0.0584237205,8.0011808 0.120003294,7.05861787 0.229461136,6.24448304 C0.483047447,4.35833725 1.01995591,3.05330838 2.03663213,2.03663824 C3.05330578,1.01995678 4.35833353,0.483047859 6.24447771,0.229461332 C7.05861185,0.120003396 8.00117398,0.0584237703 9.20835708,0.0279603438 C9.31094811,0.0253714455 9.41195907,0.0230137847 9.51323401,0.0208678147 L9.56851215,0.0197181623 C10.3246408,0.00428995474 11.1140704,0.000427970216 12.700698,0 L12.938667,0 L13,0 Z" id="Path-Copy-2" fill="#000000" fill-rule="nonzero" transform="translate(13, 13) rotate(90) translate(-13, -13)"></path>
        <path d="M13.7573232,4 C14.3946573,4 14.9054617,4.54360844 14.9054617,5.17625618 L14.9054617,5.89325696 C14.9054617,6.46966936 15.4068937,6.95704244 16.0067374,6.95704244 C16.3113456,6.95704244 16.5925224,6.83051289 16.803405,6.59619891 L17.2439153,6.15568862 C17.4547978,5.94949232 17.7547197,5.82764905 18.0640142,5.82764905 C18.3733087,5.82764905 18.6779168,5.94949232 18.8841131,6.15568862 L19.9291535,7.19135642 C20.3837226,7.64123926 20.3837226,8.37698516 19.9291535,8.826868 L19.4698981,9.27675085 C19.2449567,9.47826087 19.1184271,9.75006509 19.1184271,10.049987 C19.1184271,10.6451445 19.6058002,11.1465764 20.1868989,11.1465764 L20.8992134,11.1465764 C21.5365474,11.1465764 21.9911165,11.6480083 21.9820243,12.2853424 L21.9820243,13.7146576 C21.9820243,14.3519917 21.5271748,14.8534236 20.8898408,14.8534236 L20.1775263,14.8534236 C19.5964276,14.8534236 19.1090546,15.3501692 19.1090546,15.950013 C19.1090546,16.2452486 19.2355841,16.5217391 19.4605255,16.7232492 L19.9197809,17.173132 C20.3696638,17.6230148 20.3696638,18.3587607 19.9197809,18.8086436 L18.8747406,19.8489977 C18.663858,20.055194 18.3639361,20.1770372 18.0546416,20.1770372 C17.7453472,20.1770372 17.4454253,20.055194 17.2345427,19.8489977 L16.7940324,19.4084874 C16.5784636,19.1788597 16.2972868,19.0476438 15.9973649,19.0476438 C15.3975211,19.0476438 14.8960892,19.5350169 14.8960892,20.1114293 L14.8960892,20.8237438 C14.8960892,21.4610778 14.389971,22 13.752637,22 L12.328008,22 C11.6859876,22 11.1798694,21.4563916 11.1798694,20.8237438 L11.1798694,20.1114293 C11.1798694,19.5350169 10.6784375,19.0476438 10.0785937,19.0476438 C9.77867184,19.0476438 9.49749506,19.1741734 9.30067132,19.3944285 L8.8461022,19.8443114 C8.63521961,20.0505077 8.33529772,20.172351 8.02600326,20.172351 C7.71670881,20.172351 7.41210064,20.055194 7.20590433,19.8443114 L6.16086398,18.8039573 C5.71098113,18.3587607 5.71098113,17.6230148 6.16086398,17.173132 L6.60137426,16.737308 C6.83568824,16.5264254 6.96690407,16.2452486 6.96690407,15.9453267 C6.96690407,15.3501692 6.47953099,14.8487373 5.89843232,14.8487373 L5.18611782,14.8487373 C4.54409751,14.8487373 4.00517536,14.3426191 4.00517536,13.7099714 L4.00517536,12.2853424 C4.00517536,11.6480083 4.54409751,11.1465764 5.18611782,11.1465764 L5.89843232,11.1465764 C6.47953099,11.1465764 6.96690407,10.6498308 6.96690407,10.049987 C6.96690407,9.79291107 6.87050061,9.54960709 6.69540043,9.35253741 L6.16086398,8.81749544 C5.71098113,8.37229888 5.71098113,7.63655298 6.16086398,7.18667014 L7.21527689,6.15568862 C7.42615947,5.94949232 7.72608137,5.82764905 8.03537582,5.82764905 C8.34467028,5.82764905 8.64927845,5.94480604 8.85547476,6.15568862 L9.31004388,6.60557147 C9.5115539,6.82582661 9.7880444,6.95235616 10.0879663,6.95235616 C10.6878101,6.95235616 11.189242,6.46498308 11.189242,5.88857068 L11.189242,5.17625618 C11.189242,4.53892216 11.6953602,4 12.3326942,4 L13.7573232,4 Z M13.2051754,5.7 L12.8891754,5.7 L12.889242,5.88857068 C12.889242,7.36093378 11.7061693,8.56048644 10.2563811,8.64732249 L10.0879663,8.65235616 C9.30924325,8.65235616 8.57832666,8.32425582 8.1142068,7.81386518 L8.03317536,7.733 L7.75217536,8.007 L7.88018898,8.13074384 C8.33467325,8.59911697 8.61300024,9.20359915 8.65984909,9.85368397 L8.66690407,10.049987 C8.66690407,11.578589 7.42875163,12.8465764 5.89843232,12.8465764 L5.70517536,12.846 L5.70517536,13.148 L5.89843232,13.1487373 C7.37166681,13.1487373 8.5747582,14.3283992 8.66185518,15.7770346 L8.66690407,15.9453267 C8.66690407,16.7352871 8.32560931,17.4726125 7.79701045,17.9458005 L7.75217536,17.989 L8.02717536,18.263 L8.10483425,18.1861348 L8.16763313,18.1213964 C8.67730374,17.6265352 9.36114516,17.3476438 10.0785937,17.3476438 C11.604041,17.3476438 12.8798694,18.5824369 12.8798694,20.1114293 L12.8791754,20.3 L13.1951754,20.3 L13.1960892,20.1114293 C13.1960892,18.6390662 14.3791619,17.4395136 15.8289501,17.3526775 L15.9973649,17.3476438 C16.7114484,17.3476438 17.380804,17.626053 17.8678937,18.0787115 L18.0551754,18.266 L18.3291754,17.992 C17.7925159,17.5113742 17.4665957,16.8534549 17.4159818,16.1445254 L17.4090546,15.950013 C17.4090546,14.421411 18.647207,13.1534236 20.1775263,13.1534236 L20.2811754,13.153 L20.2811754,12.846 L20.1868989,12.8465764 C18.7136644,12.8465764 17.510573,11.6669145 17.423476,10.2182791 L17.4184271,10.049987 C17.4184271,9.263608 17.7527815,8.53261741 18.2802724,8.06234126 L18.3371754,8.006 L18.0631754,7.736 L17.9301273,7.87543546 C17.4599928,8.33072504 16.8541296,8.60417156 16.2032584,8.65012639 L16.0067374,8.65704244 C14.4812902,8.65704244 13.2054617,7.42224941 13.2054617,5.89325696 L13.2051754,5.7 Z" id="Path" fill="#000000" fill-rule="nonzero"></path>
        <circle id="Oval-Copy-3" fill="#000000" cx="13" cy="13" r="2"></circle>
    </g>
</svg>