<?xml version="1.0" encoding="UTF-8"?>
<svg width="26px" height="26px" viewBox="0 0 26 26" version="1.1" xmlns="http://www.w3.org/2000/svg" xmlns:xlink="http://www.w3.org/1999/xlink">
    <title>app-icons/high-volume@2x</title>
    <g id="app-icons/high-volume" stroke="none" stroke-width="1" fill="none" fill-rule="evenodd">
        <path d="M15.9,0 C18.1148755,0 18.9603685,0.0175588124 19.7839068,0.11703052 L19.8370212,0.123562339 C19.8812802,0.129101296 19.9255595,0.134881024 19.9700685,0.140911522 C21.1648015,0.302785274 22.0135711,0.654686191 22.6819489,1.32822981 C23.350332,2.00177888 23.6995363,2.85712992 23.8601691,4.06113435 C23.9798542,4.95821957 24,5.762717 24,8.1627907 C24,8.66370012 23.5970563,9.06976744 23.1,9.06976744 C22.6029437,9.06976744 22.2,8.66370012 22.2,8.1627907 C22.2,5.85977882 22.1806044,5.08523909 22.0762209,4.30284495 C21.9638291,3.46042576 21.762277,2.96673824 21.4091711,2.61090322 C21.0560601,2.255063 20.5661617,2.05195051 19.7302215,1.93868941 C18.9693761,1.83560286 18.2160196,1.81476957 16.0353086,1.81397747 L10.96469,1.81397747 C8.78395612,1.81476957 8.0305929,1.83560286 7.26974347,1.93868948 C6.43380195,2.05195024 5.94390972,2.25506111 5.5908121,2.61089592 C5.23771448,2.96673073 5.03616601,3.46042057 4.92377649,4.30284225 C4.82148284,5.06958975 4.8008098,5.82879299 4.8000238,8.0264318 L4.8000238,17.9735668 C4.80078574,20.1039085 4.82023578,20.8825496 4.9146098,21.626687 L4.92067041,21.6736515 L4.92377641,21.6971224 C5.03616627,22.5395428 5.23771636,23.0332389 5.59081935,23.3890872 C5.94391718,23.7449303 6.4338071,23.9480449 7.26974615,24.0613079 C8.03059435,24.1643967 8.78395721,24.1852304 10.9646901,24.1860225 L11.1,24.1860465 C11.5970563,24.1860465 12,24.5921138 12,25.0930233 C12,25.5939327 11.5970563,26 11.1,26 C8.71838841,26 7.92007942,25.979698 7.02989485,25.8590852 C5.835152,25.6972071 4.98638058,25.3452958 4.31801265,24.6717314 C3.64965014,23.9981725 3.30045616,23.1428232 3.13982759,21.9388287 C3.13384348,21.8939747 3.12810821,21.8493522 3.12261186,21.8047501 L3.11613029,21.7512239 C3.01742374,20.9213016 3,20.0692544 3,17.8372093 L3,8.1627907 C3,5.76271808 3.02014537,4.95822101 3.13982751,4.06113705 C3.30045634,2.85713512 3.64965176,2.0017864 4.3180199,1.32823711 C4.98638804,0.654687816 5.83515715,0.302785455 7.02989753,0.140911449 C7.92008084,0.020301532 8.71838948,0 11.1,0 L15.9,0 Z M23.1,12.0930233 C23.5970563,12.0930233 24,12.4990906 24,13 L24,17.9087338 C23.9995871,20.2533579 23.9786573,21.0507207 23.8601691,21.9388314 C23.6995365,23.1428284 23.3503336,23.99818 22.6819561,24.6717387 C22.0135786,25.3452974 21.1648067,25.6972073 19.9700712,25.8590851 C19.0798903,25.979698 18.2815876,26 15.9,26 C15.4029437,26 15,25.5939327 15,25.0930233 C15,24.5921138 15.4029437,24.1860465 15.9,24.1860465 L16.0353085,24.1860225 C18.1270099,24.1852627 18.9054982,24.166064 19.6369941,24.0735242 L19.6836337,24.0675172 C19.6991671,24.0654814 19.7146914,24.0634118 19.7302188,24.0613079 C20.5661565,23.9480446 21.0560527,23.7449284 21.4091639,23.3890799 C21.7622751,23.0332314 21.9638289,22.5395376 22.0762209,21.6971197 C22.1806044,20.9147297 22.2,20.1401969 22.2,17.8372093 L22.2,13 C22.2,12.4990906 22.6029437,12.0930233 23.1,12.0930233 Z" id="Combined-Shape" fill="#000000" fill-rule="nonzero"></path>
        <path d="M23,20.9470813 C23,21.4701401 22.5759775,21.8941632 22.0529187,21.8941639 L9.21055089,21.8941811 L9.21055089,21.8941811 C8.03848816,21.8947932 7.74521451,21.9108943 7.47471805,21.9909477 C6.587226,22.2536568 5.89395833,23.0195511 5.65614009,24 L4,23.5097233 C4.39636463,21.8756382 5.5517797,20.599182 7.03100224,20.1613131 C7.31048579,20.0785999 7.60560716,20.0366778 7.99398129,20.0171149 C8.00928204,20.0163442 8.02447723,20.0156072 8.03964436,20.0149025 L8.05783642,20.0140722 C8.06389926,20.0138006 8.06996257,20.0135341 8.07603132,20.0132725 L8.10339407,20.0121288 C8.11558647,20.0116352 8.12783036,20.011161 8.14016543,20.0107055 L8.15874138,20.0100361 C8.37015616,20.0026068 8.61365457,20.0004723 9.08419804,20.0000748 L9.12631075,20.0000441 C9.1334294,20 9.14059838,20 9.14781833,20 L9.26001714,20 L9.28341513,20 L22.0529187,20 C22.5759773,20 23,20.4240227 23,20.9470813 Z" id="Path" fill="#000000" fill-rule="nonzero"></path>
        <path d="M17.0675672,8.67847778 C17.245139,8.30425709 17.6924552,8.14484168 18.0666759,8.3224135 C18.4408966,8.49998532 18.600312,8.94730153 18.4227402,9.32152222 L16.3651442,13.6577678 C16.2734205,13.8510693 16.1594511,14.0330059 16.0255488,14.1998857 C15.0750487,15.3844749 13.3442168,15.5742415 12.1596276,14.6237414 L10.8848622,13.600885 C10.7989548,13.5319539 10.7043136,13.4746795 10.6033972,13.4305497 C9.97087396,13.153953 9.2338867,13.4424885 8.95729005,14.0750117 L6.75788337,19.104631 C6.59192539,19.4841449 6.14973303,19.6572662 5.7702191,19.4913082 C5.39070517,19.3253502 5.21758387,18.8831579 5.38354186,18.5036439 L7.58294854,13.4740247 C8.19146115,12.0824736 9.81283312,11.4476955 11.2043842,12.0562082 C11.4264004,12.1532938 11.6346111,12.2792975 11.8236074,12.4309458 L13.0983728,13.4538023 C13.6368224,13.8858478 14.4235641,13.7995902 14.8556096,13.2611406 C14.9164743,13.1852861 14.9682786,13.1025877 15.0099712,13.0147233 L17.0675672,8.67847778 Z" id="Path-6" fill="#000000" fill-rule="nonzero"></path>
        <path d="M18.308354,5.13484904 C19.2237467,4.8247276 20.2172221,5.31539686 20.5273435,6.2307895 L21.5723628,9.35724159 C21.7036713,9.75009139 21.4916501,10.1750056 21.0988003,10.3063141 C20.7059505,10.4376225 20.2810363,10.2256014 20.1497278,9.83275156 L19.1069844,6.71306237 L19.0768762,6.652016 C19.0153577,6.5611384 18.8986361,6.5186141 18.7896608,6.55553332 C17.0151571,7.15670883 17.0151571,7.15670883 15.2406534,7.75788434 C14.8483422,7.89079353 14.422567,7.6805067 14.2896579,7.28819557 C14.1567487,6.89588444 14.3670355,6.47010925 14.7593466,6.33720006 C16.5338503,5.73602455 16.5338503,5.73602455 18.308354,5.13484904 Z" id="Path-7" fill="#000000" fill-rule="nonzero"></path>
    </g>
</svg>