<?xml version="1.0" encoding="UTF-8"?>
<svg width="26px" height="26px" viewBox="0 0 26 26" version="1.1" xmlns="http://www.w3.org/2000/svg" xmlns:xlink="http://www.w3.org/1999/xlink">
    <title>app-icons/integrations@2x</title>
    <g id="app-icons/integrations" stroke="none" stroke-width="1" fill="none" fill-rule="evenodd">
        <path d="M22.1396902,4.94027108 C22.4488199,5.29356222 22.4130201,5.83056045 22.0597289,6.13969019 L15.3979097,11.9679884 L21.2752705,13.2912474 C21.7332453,13.394373 22.0209074,13.8492348 21.9177817,14.3072097 C21.8146561,14.7651845 21.3597943,15.0528465 20.9018195,14.9497209 L14.1979097,13.4399884 L12.8336903,23.3812848 C12.7698654,23.8463678 12.3411009,24.1716518 11.8760178,24.1078269 C11.4109348,24.0440021 11.0856508,23.6152376 11.1494757,23.1501545 L12.5559097,12.8929884 L7.02850483,9.20724275 C6.63790545,8.94684316 6.53235766,8.41910422 6.79275725,8.02850483 C7.05315684,7.63790545 7.58089578,7.53235766 7.97149517,7.79275725 L13.4299097,11.4309884 L20.9402711,4.86030981 C21.2935622,4.55118006 21.8305604,4.58697995 22.1396902,4.94027108 Z" id="Combined-Shape" fill="#000000" fill-rule="nonzero" transform="translate(14.5, 14.3829) rotate(-45) translate(-14.5, -14.3829)"></path>
        <circle id="Oval" fill="#000000" cx="20.5" cy="8.5" r="2.5"></circle>
        <circle id="Oval-Copy-3" fill="#000000" cx="3.5" cy="15.5" r="2.5"></circle>
        <circle id="Oval-Copy" fill="#000000" cx="13" cy="3.5" r="2.5"></circle>
        <circle id="Oval-Copy-2" fill="#000000" cx="19.5" cy="22.5" r="2.5"></circle>
    </g>
</svg>