<?xml version="1.0" encoding="UTF-8"?>
<svg width="26px" height="26px" viewBox="0 0 26 26" version="1.1" xmlns="http://www.w3.org/2000/svg" xmlns:xlink="http://www.w3.org/1999/xlink">
    <title>app-icons/search@2x</title>
    <g id="app-icons/search" stroke="none" stroke-width="1" fill="none" fill-rule="evenodd">
        <g id="Group" transform="translate(-1.9123, -1.9123)" fill="#000000">
            <path d="M11.4123042,3.16230422 C15.9686534,3.16230422 19.6623042,6.85595504 19.6623042,11.4123042 C19.6623042,15.9686534 15.9686534,19.6623042 11.4123042,19.6623042 C10.9980907,19.6623042 10.6623042,19.3265178 10.6623042,18.9123042 C10.6623042,18.4980907 10.9980907,18.1623042 11.4123042,18.1623042 C15.1402263,18.1623042 18.1623042,15.1402263 18.1623042,11.4123042 C18.1623042,7.68438216 15.1402263,4.66230422 11.4123042,4.66230422 C7.68438216,4.66230422 4.66230422,7.68438216 4.66230422,11.4123042 C4.66230422,14.1133847 6.26320464,16.5212245 8.69237771,17.5921064 C9.07139586,17.7591936 9.24319985,18.2018994 9.07611268,18.5809175 C8.90902551,18.9599357 8.46631969,19.1317397 8.08730154,18.9646525 C5.11897172,17.6560876 3.16230422,14.7131551 3.16230422,11.4123042 C3.16230422,6.85595504 6.85595504,3.16230422 11.4123042,3.16230422 Z" id="Oval" fill-rule="nonzero" transform="translate(11.4123, 11.4123) rotate(-57) translate(-11.4123, -11.4123)"></path>
            <path d="M11.4123042,16.9123042 C13.016257,16.9123042 14.4598485,16.2257162 15.4652106,15.1304083 C15.9096799,14.646174 13.7625527,14.3179998 11.6111828,14.4139142 C9.41308346,14.5119118 7.21086732,15.0447167 7.79355202,15.554221 C8.7606874,16.3998923 10.0266557,16.9123042 11.4123042,16.9123042 Z" id="Oval"></path>
            <path d="M21.7910457,15.8917602 C22.7522159,15.8907997 23.5781425,16.5737005 23.757799,17.5179317 C24.0266585,18.9311161 24.2276388,20.2817413 24.3607482,21.5698058 C24.4659052,22.5873834 24.5327375,23.6049521 24.5612449,24.6225118 L24.5755245,25.3856796 C24.5825314,26.3529591 23.8963277,27.1866595 22.9457393,27.3657152 C22.4817608,27.4524773 22.0247507,27.4963937 21.5745075,27.4963937 C21.2113929,27.4963937 20.8483039,27.4678297 20.4852406,27.4107016 L20.1221057,27.3444354 C19.2490508,27.1621161 18.6022283,26.423741 18.5363996,25.5342851 C18.4437471,24.2802529 18.4556231,22.9539869 18.5720064,21.5554889 C18.686884,20.1750824 18.8965938,18.8082793 19.2011356,17.4550795 C19.4043322,16.5425831 20.2132703,15.8934881 21.148115,15.8917602 L21.7910457,15.8917602 Z M21.1481126,17.3917603 C20.9171707,17.3921922 20.7149362,17.554466 20.6638807,17.7825327 C20.3751793,19.0701372 20.1759761,20.3684632 20.066839,21.6798891 C19.9567883,23.002293 19.9456186,24.2502451 20.0323083,25.4235728 C20.0487134,25.645233 20.2094491,25.8293618 20.4266644,25.8756734 C20.7176763,25.9363324 21.0038094,25.9738867 21.2892599,25.988894 L21.5745075,25.9963937 C21.9293913,25.9963937 22.2941477,25.9615599 22.6680776,25.8916379 C22.9057182,25.8468752 23.0772526,25.6384674 23.0755161,25.399455 C23.0642529,24.1744757 22.9953253,22.9493733 22.868694,21.7239955 C22.7400737,20.4793705 22.545335,19.1707036 22.2842347,17.7983031 C22.2393206,17.5622453 22.0328389,17.3915201 21.7910434,17.3917603 L21.1481126,17.3917603 Z" id="Rectangle" fill-rule="nonzero" transform="translate(21.5252, 21.6941) rotate(-45) translate(-21.5252, -21.6941)"></path>
        </g>
    </g>
</svg>