<?xml version="1.0" encoding="UTF-8"?>
<svg width="26px" height="26px" viewBox="0 0 26 26" version="1.1" xmlns="http://www.w3.org/2000/svg" xmlns:xlink="http://www.w3.org/1999/xlink">
    <title>app-icons/unmatched@2x</title>
    <g id="app-icons/unmatched" stroke="none" stroke-width="1" fill="none" fill-rule="evenodd">
        <path d="M3.61407401,17.3455477 C4.41440723,17.2918853 4.946104,17.265054 5.20916433,17.265054 C5.47140643,17.265054 6.00061643,17.2917186 6.79679433,17.3450478 L6.7968045,17.3448932 C7.78827479,17.4101405 8.58150462,18.193368 8.65932751,19.1839305 C8.72190011,19.969001 8.75329825,20.497658 8.75329825,20.7699191 C8.75329825,21.0421803 8.72190011,21.5708373 8.65910383,22.3558902 L8.65890052,22.3558737 C8.57846329,23.34573 7.78386461,24.1266242 6.79275882,24.1898299 C6.00719351,24.2399763 5.47932887,24.265054 5.20916433,24.265054 C4.93815155,24.265054 4.40781792,24.2398186 3.61816345,24.1893477 L3.61816932,24.1892568 C2.62802264,24.1252688 1.83448362,23.3450245 1.7537771,22.3561001 C1.68896533,21.5710731 1.65646194,21.0423514 1.65646194,20.7699191 C1.65646194,20.4966315 1.68916975,19.9654425 1.75458538,19.1763523 L1.75454301,19.1763488 C1.83604995,18.1900595 2.62663495,17.4116854 3.61407347,17.3455396 Z" id="Rectangle" fill="#000000"></path>
        <path d="M3.61407401,8.34554774 C4.41440723,8.29188525 4.946104,8.26505401 5.20916433,8.26505401 C5.47140643,8.26505401 6.00061643,8.2917186 6.79679433,8.34504778 L6.7968045,8.34489325 C7.78827479,8.41014049 8.58150462,9.19336798 8.65932751,10.1839305 C8.72190011,10.969001 8.75329825,11.497658 8.75329825,11.7699191 C8.75329825,12.0421803 8.72190011,12.5708373 8.65910383,13.3558902 L8.65890052,13.3558737 C8.57846329,14.34573 7.78386461,15.1266242 6.79275882,15.1898299 C6.00719351,15.2399763 5.47932887,15.265054 5.20916433,15.265054 C4.93815155,15.265054 4.40781792,15.2398186 3.61816345,15.1893477 L3.61816932,15.1892568 C2.62802264,15.1252688 1.83448362,14.3450245 1.7537771,13.3561001 C1.68896533,12.5710731 1.65646194,12.0423514 1.65646194,11.7699191 C1.65646194,11.4966315 1.68916975,10.9654425 1.75458538,10.1763523 L1.75454301,10.1763488 C1.83604995,9.19005948 2.62663495,8.41168537 3.61407347,8.34553956 Z" id="Rectangle-Copy" fill="#000000"></path>
        <path d="M12.614074,17.3455477 C13.4144072,17.2918853 13.946104,17.265054 14.2091643,17.265054 C14.4714064,17.265054 15.0006164,17.2917186 15.7967943,17.3450478 L15.7968045,17.3448932 C16.7882748,17.4101405 17.5815046,18.193368 17.6593275,19.1839305 C17.7219001,19.969001 17.7532982,20.497658 17.7532982,20.7699191 C17.7532982,21.0421803 17.7219001,21.5708373 17.6591038,22.3558902 L17.6589005,22.3558737 C17.5784633,23.34573 16.7838646,24.1266242 15.7927588,24.1898299 C15.0071935,24.2399763 14.4793289,24.265054 14.2091643,24.265054 C13.9381516,24.265054 13.4078179,24.2398186 12.6181634,24.1893477 L12.6181693,24.1892568 C11.6280226,24.1252688 10.8344836,23.3450245 10.7537771,22.3561001 C10.6889653,21.5710731 10.6564619,21.0423514 10.6564619,20.7699191 C10.6564619,20.4966315 10.6891698,19.9654425 10.7545854,19.1763523 L10.754543,19.1763488 C10.8360499,18.1900595 11.626635,17.4116854 12.6140735,17.3455396 Z" id="Rectangle-Copy-2" fill="#000000"></path>
        <path d="M12.7611882,1.49025407 C14.3338487,1.3401207 16.0007415,1.26505401 17.7618667,1.26505401 C19.5299392,1.26505401 21.2030344,1.34071411 22.7811523,1.4920343 L22.7811451,1.49210839 C23.7208498,1.58258025 24.4693243,2.31782523 24.576538,3.25576729 C24.758973,4.85777563 24.8501346,6.53078554 24.8501346,8.27478426 C24.8501346,10.0142384 24.7594475,11.6830731 24.5780733,13.2812886 L24.578225,13.2813057 C24.4719252,14.2236678 23.7184294,14.9618195 22.7740801,15.0487115 C21.1907111,15.1930001 19.5171116,15.265054 17.7532982,15.265054 C15.9987256,15.265054 14.3365664,15.1937531 12.7668208,15.0511514 L12.7668307,15.0510428 C11.8221848,14.9646582 11.0681638,14.2265761 10.9616194,13.2839911 C10.7580988,11.4677227 10.6564619,9.79797781 10.6564619,8.27478426 C10.6564619,6.74967836 10.7583542,5.07765286 10.9621387,3.25870778 L10.9621188,3.25870555 C11.0674694,2.31759941 11.8184067,1.57937553 12.7611744,1.49010819 Z" id="Rectangle-Copy-3" fill="#000000"></path>
    </g>
</svg>