<?xml version="1.0" encoding="UTF-8"?>
<svg width="26px" height="26px" viewBox="0 0 26 26" version="1.1" xmlns="http://www.w3.org/2000/svg" xmlns:xlink="http://www.w3.org/1999/xlink">
    <title>app-icons/user@2x</title>
    <g id="app-icons/user" stroke="none" stroke-width="1" fill="none" fill-rule="evenodd">
        <path d="M17.2981283,9.1309966 C19.9331248,8.9918171 22.1719613,11.2057707 22.3918416,14.1113976 C22.3941973,14.1432702 22.3941973,14.1432702 22.3963292,14.1751573 C22.4872877,15.5723839 22.5329143,16.7202604 22.5329143,17.6217324 C22.5329143,18.5230937 22.4873192,19.6043963 22.396424,20.8677832 C22.1936308,23.6765395 20.095392,25.8775357 17.5243029,25.8750044 L8.7694028,25.8750044 C6.16068539,25.8745749 4.04844558,23.6101555 3.89458648,20.7572517 C3.8201497,19.3655238 3.78291427,18.0457028 3.78291427,16.7979096 C3.78291427,16.0023258 3.79805128,15.2067711 3.82832497,14.4112515 L3.84093978,14.1833765 C4.05616779,11.3078795 6.26576319,9.07068845 8.92224353,9.2002784 C8.982889,9.20323685 9.04347715,9.20745209 9.10397615,9.21292169 L9.11691427,9.21500003 L9.77893615,9.26775701 C10.461129,9.31630668 11.1664747,9.34667739 11.8949482,9.35882838 L12.6311301,9.36490464 C13.1143792,9.36490464 13.5061301,9.75665548 13.5061301,10.2399046 C13.5061301,10.7231538 13.1143792,11.1149046 12.6311301,11.1149046 C11.3396541,11.1149046 10.1112807,11.0619828 8.94589372,10.9559504 L8.89171603,10.9514391 L8.83697542,10.9481998 C7.13882515,10.8653597 5.6541901,12.4186521 5.57688731,14.4773491 L5.57691427,14.466 L5.57705917,14.4778 C5.55743915,14.993367 5.5443592,15.5089417 5.53781924,16.0245259 L5.53291427,16.7979096 C5.53291427,18.0136169 5.56927319,19.3023699 5.64206791,20.6633981 C5.74819556,22.6312493 7.1413117,24.1247347 8.7695454,24.125 L17.5251657,24.1250005 C19.1295706,24.1265825 20.5112234,22.6772657 20.6509516,20.7419817 C20.7390303,19.5177421 20.7829143,18.4770185 20.7829143,17.6217324 C20.7829143,16.7631675 20.7387162,15.6512284 20.6500254,14.2888366 C20.6485076,14.2661348 20.6485076,14.2661348 20.6468309,14.2434495 C20.4917803,12.1945199 18.9558066,10.7218372 17.2659035,10.8879757 C16.7773145,10.93601 16.3448333,10.5727446 16.3077875,10.0831998 L16.3062939,9.97311441 C16.3275774,9.53882791 16.669453,9.17820289 17.1142574,9.14454278 L17.0939143,9.14800003 L17.1069143,9.14600003 L17.1199143,9.14500003 L17.2981283,9.1309966 Z" id="Path" fill="#000000" fill-rule="nonzero"></path>
        <path d="M13,0 C15.4852814,0 17.5,2.01471863 17.5,4.5 C17.5,6.98528137 15.4852814,9 13,9 C10.5147186,9 8.5,6.98528137 8.5,4.5 C8.5,2.01471863 10.5147186,0 13,0 Z M13,2 C11.6192881,2 10.5,3.11928813 10.5,4.5 C10.5,5.88071187 11.6192881,7 13,7 C14.3807119,7 15.5,5.88071187 15.5,4.5 C15.5,3.11928813 14.3807119,2 13,2 Z" id="Oval" fill="#000000" fill-rule="nonzero"></path>
        <circle id="Oval" fill="#000000" cx="15" cy="14" r="1"></circle>
        <circle id="Oval-Copy" fill="#000000" cx="15" cy="18" r="1"></circle>
    </g>
</svg>