<?xml version="1.0" encoding="UTF-8"?>
<svg width="26px" height="26px" viewBox="0 0 26 26" version="1.1" xmlns="http://www.w3.org/2000/svg" xmlns:xlink="http://www.w3.org/1999/xlink">
    <title>app-icons/workflow@2x</title>
    <g id="app-icons/workflow" stroke="none" stroke-width="1" fill="none" fill-rule="evenodd">
        <path d="M16.4314817,0.0197185568 L16.4867599,0.0208682317 C16.4959667,0.0210633237 16.5051713,0.0212601652 16.5143751,0.021458771 L16.6248716,0.0239276631 L16.6802574,0.0252273838 C16.717234,0.0261086047 16.7543309,0.0270194631 16.7916367,0.027960899 C17.9988222,0.0584249733 18.9413892,0.120005885 19.7555274,0.229465925 C21.6416951,0.483059205 22.9467314,1.01998357 23.963328,2.0366487 C24.9800377,3.05328819 25.5169626,4.35832339 25.7705561,6.24448943 C25.8800162,7.05862697 25.9415972,8.00119312 25.9720613,9.20837757 C25.9730027,9.24568338 25.9739136,9.28278024 25.9747948,9.31975684 L25.9760945,9.37514261 L25.9785634,9.48563897 C25.978762,9.49484279 25.9789588,9.50404741 25.9791539,9.51325421 L25.9803036,9.56853227 C25.9929922,10.190378 25.9978577,10.8347456 25.9994042,11.9265414 L25.9998987,12.4637644 C25.9999473,12.5591123 25.9999804,12.6574946 26,12.7591045 L26,13.2408976 L25.9998987,13.5362401 L25.9994042,14.0734674 C25.9978577,15.1652715 25.9929922,15.8096415 25.9803036,16.4314882 L25.9791539,16.4867664 C25.9789588,16.4959732 25.978762,16.5051778 25.9785634,16.5143817 L25.9760945,16.6248782 L25.9747948,16.680264 C25.9739136,16.7172406 25.9730027,16.7543375 25.9720613,16.7916434 C25.9415972,17.9988271 25.8800163,18.9413898 25.770556,19.7555247 C25.516964,21.6416711 24.9800432,22.946701 23.9633652,23.9633504 C22.9467246,24.9800386 21.6416904,25.5169512 19.755525,25.7705389 C18.9413875,25.8799966 17.9988212,25.9415762 16.7916363,25.9720397 C16.7543305,25.9729811 16.7172336,25.9738919 16.6802569,25.9747731 L16.6248711,25.9760728 C16.578773,25.9771376 16.5327935,25.9781568 16.4867595,25.9791322 L16.4314814,25.9802819 C15.8265789,25.9926244 15.2003652,25.9975646 14.1617286,25.9992661 L13.606231,25.9998662 C13.5073165,25.9999277 13.4050851,25.9999715 13.2993108,26 L12.7007089,26 L12.393786,25.9998662 L11.8382841,25.9992661 C10.7996398,25.9975646 10.1734237,25.9926244 9.56852031,25.9802819 L9.51324213,25.9791322 C9.4119671,25.9769862 9.31095605,25.9746286 9.20836494,25.9720397 C8.0011808,25.9415763 7.05861787,25.8799967 6.24448304,25.7705389 C4.35833725,25.5169526 3.05330838,24.9800441 2.03663824,23.9633679 C1.01995678,22.9466942 0.483047859,21.6416665 0.229461332,19.7555223 C0.120003396,18.9413881 0.0584237703,17.998826 0.0279603438,16.7916429 C0.0253714455,16.6890519 0.0230137847,16.5880409 0.0208678147,16.486766 L0.0197181623,16.4314878 C0.00737559626,15.8265849 0.00243541295,15.2003694 0.000733921517,14.161726 L0.000733922618,11.8382835 C0.00243541611,10.7996477 0.00737560308,10.1734346 0.0197181656,9.56853266 L0.0208678177,9.51325461 C0.0218432583,9.46722062 0.0228624366,9.42124115 0.0239271884,9.37514305 L0.0252268833,9.31975728 C0.0261080866,9.28278069 0.027018927,9.24568384 0.0279603441,9.20837804 C0.0584238051,8.0011942 0.120003467,7.05862866 0.229461259,6.24449186 C0.483049258,4.35832807 1.01996223,3.05329495 2.03661629,2.03669035 C2.72965731,1.34360722 3.56610515,0.870933416 4.61143789,0.563612541 C5.53999137,0.290623994 6.64394228,0.14119199 8.11765882,0.0677564982 C8.61794793,0.0428270246 9.04372174,0.428181808 9.06865124,0.928470497 C9.09358073,1.42875919 8.70822562,1.85453263 8.2079365,1.87946211 C5.57143049,2.01083955 4.23475709,2.40381264 3.31928063,3.31934473 C2.62032997,4.01826139 2.23221414,4.96162471 2.0272409,6.48619651 C1.92790335,7.22505992 1.87028745,8.1069543 1.84133808,9.25413882 L1.83998012,9.30870201 L1.83866617,9.36304824 L1.83536071,9.50793906 L1.82962854,9.79948731 C1.82014549,10.3407552 1.81612886,10.9360979 1.81467075,11.8640313 L1.81411167,12.404835 C1.81405496,12.5010243 1.81401501,12.6003808 1.81398966,12.7031138 L1.81398966,13.2968888 L1.81411925,13.6078361 L1.8147243,14.1692076 C1.81674371,15.3915933 1.82334137,16.032721 1.84133808,16.7458822 C1.87028741,17.8930656 1.92790324,18.7749562 2.02724083,19.5138165 C2.23221373,21.0383788 2.62032987,21.9817462 3.31929815,22.6807091 C4.01825727,23.3796724 4.9616254,23.7677882 6.48618899,23.9727609 C7.22504992,24.0720984 8.10694131,24.1297142 9.25412573,24.1586635 C9.96728748,24.1766602 10.6084157,24.1832578 11.8308025,24.1852773 L12.3921744,24.1858823 C12.4923025,24.1859431 12.5958724,24.1859854 12.7031221,24.1860119 L13.2968976,24.1860119 L13.5951766,24.1858899 L14.1359808,24.1853308 C15.3169879,24.183475 15.9592527,24.1774749 16.636966,24.1613354 L16.6913122,24.1600215 L16.7458755,24.1586635 C17.893061,24.1297141 18.7749561,24.0720983 19.5138201,23.9727608 C21.0383932,23.7677878 21.9817574,23.3796723 22.6806987,22.6806981 C23.3796771,21.9817394 23.7678003,21.0383742 23.9727771,19.5138141 C24.0721167,18.7749546 24.1297336,17.8930645 24.1586835,16.7458817 L24.162405,16.5923331 L24.1688406,16.2860948 C24.1794642,15.7203031 24.1838326,15.1107412 24.1853601,14.1304119 L24.1859321,13.5569511 C24.1859873,13.4545908 24.1860241,13.3486749 24.1860452,13.2389578 L24.1860452,12.7610443 L24.1859321,12.4430536 L24.1853601,11.8695974 C24.1838326,10.8892755 24.1794642,10.2797161 24.1688406,9.7139255 L24.162405,9.40768776 C24.1612222,9.35671645 24.1599826,9.30561552 24.1586835,9.25413929 C24.1297336,8.10695537 24.0721166,7.2250616 23.9727771,6.48619894 C23.7677999,4.96162939 23.379677,4.01826816 22.680668,3.31930751 C21.9817506,2.62034293 21.0383886,2.23222034 19.5138177,2.02724338 C18.7749544,1.92790398 17.8930599,1.87028699 16.745875,1.84133707 L16.5923264,1.83761557 L16.2860884,1.83118003 C15.8780007,1.82351757 15.4471431,1.81910921 14.8708192,1.81667386 C14.96627,1.92072879 15.0537972,2.01203016 15.1336474,2.09157671 C15.4803598,2.43697078 16.0336623,2.9106145 16.7872153,3.50480079 C17.1558445,3.79546964 17.2190438,4.32993626 16.928375,4.69856541 C16.6377061,5.06719456 16.1032395,5.13039388 15.7346104,4.83972504 C14.9339408,4.20838679 14.3358032,3.69636277 13.9338579,3.2959459 C13.6932309,3.05623391 13.4063966,2.74040817 13.0715402,2.34693126 L12.7206094,1.92751368 C12.6523812,1.84472389 12.582473,1.7592337 12.5108733,1.67103324 C12.2599277,1.51025609 12.0930336,1.22810651 12.0930336,0.906976744 C12.0930336,0.40606732 12.4991012,0 13.0000111,0 L14.0734706,0.00060607081 C15.1652674,0.00216451091 15.8096354,0.00703001882 16.4314817,0.0197185568 Z" id="Combined-Shape" fill="#000000" fill-rule="nonzero" transform="translate(13, 13) scale(-1, 1) translate(-13, -13)"></path>
        <circle id="Oval" fill="#000000" cx="8.5" cy="9.5" r="2.5"></circle>
        <circle id="Oval-Copy-3" fill="#000000" cx="17.5" cy="9.5" r="2.5"></circle>
        <circle id="Oval-Copy" fill="#000000" cx="8.5" cy="18.5" r="2.5"></circle>
        <circle id="Oval-Copy-2" fill="#000000" cx="17.5" cy="18.5" r="2.5"></circle>
    </g>
</svg>